  0
SECTION
  2
HEADER
  9
$ACADVER
  1
AC1027
  9
$ACADMAINTVER
 70
   125
  9
$DWGCODEPAGE
  3
ANSI_1252
  9
$REQUIREDVERSIONS
160
                 0
  9
$INSBASE
 10
0.0
 20
0.0
 30
0.0
  9
$EXTMIN
 10
1.000000000000000E+20
 20
1.000000000000000E+20
 30
1.000000000000000E+20
  9
$EXTMAX
 10
-1.000000000000000E+20
 20
-1.000000000000000E+20
 30
-1.000000000000000E+20
  9
$LIMMIN
 10
0.0
 20
0.0
  9
$LIMMAX
 10
12.0
 20
9.0
  9
$ORTHOMODE
 70
     0
  9
$REGENMODE
 70
     1
  9
$FILLMODE
 70
     1
  9
$QTEXTMODE
 70
     0
  9
$MIRRTEXT
 70
     0
  9
$LTSCALE
 40
1.0
  9
$ATTMODE
 70
     1
  9
$TEXTSIZE
 40
0.2
  9
$TRACEWID
 40
0.05
  9
$TEXTSTYLE
  7
Standard
  9
$CLAYER
  8
0
  9
$CELTYPE
  6
ByLayer
  9
$CECOLOR
 62
   256
  9
$CELTSCALE
 40
1.0
  9
$DISPSILH
 70
     0
  9
$DIMSCALE
 40
1.0
  9
$DIMASZ
 40
0.18
  9
$DIMEXO
 40
0.0625
  9
$DIMDLI
 40
0.38
  9
$DIMRND
 40
0.0
  9
$DIMDLE
 40
0.0
  9
$DIMEXE
 40
0.18
  9
$DIMTP
 40
0.0
  9
$DIMTM
 40
0.0
  9
$DIMTXT
 40
0.18
  9
$DIMCEN
 40
0.09
  9
$DIMTSZ
 40
0.0
  9
$DIMTOL
 70
     0
  9
$DIMLIM
 70
     0
  9
$DIMTIH
 70
     1
  9
$DIMTOH
 70
     1
  9
$DIMSE1
 70
     0
  9
$DIMSE2
 70
     0
  9
$DIMTAD
 70
     0
  9
$DIMZIN
 70
     0
  9
$DIMBLK
  1

  9
$DIMASO
 70
     1
  9
$DIMSHO
 70
     1
  9
$DIMPOST
  1

  9
$DIMAPOST
  1

  9
$DIMALT
 70
     0
  9
$DIMALTD
 70
     2
  9
$DIMALTF
 40
25.4
  9
$DIMLFAC
 40
1.0
  9
$DIMTOFL
 70
     0
  9
$DIMTVP
 40
0.0
  9
$DIMTIX
 70
     0
  9
$DIMSOXD
 70
     0
  9
$DIMSAH
 70
     0
  9
$DIMBLK1
  1

  9
$DIMBLK2
  1

  9
$DIMSTYLE
  2
Standard
  9
$DIMCLRD
 70
     0
  9
$DIMCLRE
 70
     0
  9
$DIMCLRT
 70
     0
  9
$DIMTFAC
 40
1.0
  9
$DIMGAP
 40
0.09
  9
$DIMJUST
 70
     0
  9
$DIMSD1
 70
     0
  9
$DIMSD2
 70
     0
  9
$DIMTOLJ
 70
     1
  9
$DIMTZIN
 70
     0
  9
$DIMALTZ
 70
     0
  9
$DIMALTTZ
 70
     0
  9
$DIMUPT
 70
     0
  9
$DIMDEC
 70
     4
  9
$DIMTDEC
 70
     4
  9
$DIMALTU
 70
     2
  9
$DIMALTTD
 70
     2
  9
$DIMTXSTY
  7
Standard
  9
$DIMAUNIT
 70
     0
  9
$DIMADEC
 70
     0
  9
$DIMALTRND
 40
0.0
  9
$DIMAZIN
 70
     0
  9
$DIMDSEP
 70
    46
  9
$DIMATFIT
 70
     3
  9
$DIMFRAC
 70
     0
  9
$DIMLDRBLK
  1

  9
$DIMLUNIT
 70
     2
  9
$DIMLWD
 70
    -2
  9
$DIMLWE
 70
    -2
  9
$DIMTMOVE
 70
     0
  9
$DIMFXL
 40
1.0
  9
$DIMFXLON
 70
     0
  9
$DIMJOGANG
 40
0.7853981633974483
  9
$DIMTFILL
 70
     0
  9
$DIMTFILLCLR
 70
     0
  9
$DIMARCSYM
 70
     0
  9
$DIMLTYPE
  6

  9
$DIMLTEX1
  6

  9
$DIMLTEX2
  6

  9
$DIMTXTDIRECTION
 70
     0
  9
$LUNITS
 70
     2
  9
$LUPREC
 70
     4
  9
$SKETCHINC
 40
0.1
  9
$FILLETRAD
 40
0.0
  9
$AUNITS
 70
     0
  9
$AUPREC
 70
     0
  9
$MENU
  1
.
  9
$ELEVATION
 40
0.0
  9
$PELEVATION
 40
0.0
  9
$THICKNESS
 40
0.0
  9
$LIMCHECK
 70
     0
  9
$CHAMFERA
 40
0.0
  9
$CHAMFERB
 40
0.0
  9
$CHAMFERC
 40
0.0
  9
$CHAMFERD
 40
0.0
  9
$SKPOLY
 70
     0
  9
$TDCREATE
 40
2459591.554085649
  9
$TDUCREATE
 40
2459591.554085649
  9
$TDUPDATE
 40
2459591.554085649
  9
$TDUUPDATE
 40
2459591.554085649
  9
$TDINDWG
 40
0.0000000000
  9
$TDUSRTIMER
 40
0.0000000000
  9
$USRTIMER
 70
     1
  9
$ANGBASE
 50
0.0
  9
$ANGDIR
 70
     0
  9
$PDMODE
 70
     0
  9
$PDSIZE
 40
0.0
  9
$PLINEWID
 40
0.0
  9
$SPLFRAME
 70
     0
  9
$SPLINETYPE
 70
     6
  9
$SPLINESEGS
 70
     8
  9
$HANDSEED
  5
34B
  9
$SURFTAB1
 70
     6
  9
$SURFTAB2
 70
     6
  9
$SURFTYPE
 70
     6
  9
$SURFU
 70
     6
  9
$SURFV
 70
     6
  9
$UCSBASE
  2

  9
$UCSNAME
  2

  9
$UCSORG
 10
0.0
 20
0.0
 30
0.0
  9
$UCSXDIR
 10
1.0
 20
0.0
 30
0.0
  9
$UCSYDIR
 10
0.0
 20
1.0
 30
0.0
  9
$UCSORTHOREF
  2

  9
$UCSORTHOVIEW
 70
     0
  9
$UCSORGTOP
 10
0.0
 20
0.0
 30
0.0
  9
$UCSORGBOTTOM
 10
0.0
 20
0.0
 30
0.0
  9
$UCSORGLEFT
 10
0.0
 20
0.0
 30
0.0
  9
$UCSORGRIGHT
 10
0.0
 20
0.0
 30
0.0
  9
$UCSORGFRONT
 10
0.0
 20
0.0
 30
0.0
  9
$UCSORGBACK
 10
0.0
 20
0.0
 30
0.0
  9
$PUCSBASE
  2

  9
$PUCSNAME
  2

  9
$PUCSORG
 10
0.0
 20
0.0
 30
0.0
  9
$PUCSXDIR
 10
1.0
 20
0.0
 30
0.0
  9
$PUCSYDIR
 10
0.0
 20
1.0
 30
0.0
  9
$PUCSORTHOREF
  2

  9
$PUCSORTHOVIEW
 70
     0
  9
$PUCSORGTOP
 10
0.0
 20
0.0
 30
0.0
  9
$PUCSORGBOTTOM
 10
0.0
 20
0.0
 30
0.0
  9
$PUCSORGLEFT
 10
0.0
 20
0.0
 30
0.0
  9
$PUCSORGRIGHT
 10
0.0
 20
0.0
 30
0.0
  9
$PUCSORGFRONT
 10
0.0
 20
0.0
 30
0.0
  9
$PUCSORGBACK
 10
0.0
 20
0.0
 30
0.0
  9
$USERI1
 70
     0
  9
$USERI2
 70
     0
  9
$USERI3
 70
     0
  9
$USERI4
 70
     0
  9
$USERI5
 70
     0
  9
$USERR1
 40
0.0
  9
$USERR2
 40
0.0
  9
$USERR3
 40
0.0
  9
$USERR4
 40
0.0
  9
$USERR5
 40
0.0
  9
$WORLDVIEW
 70
     1
  9
$SHADEDGE
 70
     3
  9
$SHADEDIF
 70
    70
  9
$TILEMODE
 70
     1
  9
$MAXACTVP
 70
    64
  9
$PINSBASE
 10
0.0
 20
0.0
 30
0.0
  9
$PLIMCHECK
 70
     0
  9
$PEXTMIN
 10
1.000000000000000E+20
 20
1.000000000000000E+20
 30
1.000000000000000E+20
  9
$PEXTMAX
 10
-1.000000000000000E+20
 20
-1.000000000000000E+20
 30
-1.000000000000000E+20
  9
$PLIMMIN
 10
0.0
 20
0.0
  9
$PLIMMAX
 10
12.0
 20
9.0
  9
$UNITMODE
 70
     0
  9
$VISRETAIN
 70
     1
  9
$PLINEGEN
 70
     0
  9
$PSLTSCALE
 70
     1
  9
$TREEDEPTH
 70
  3020
  9
$CMLSTYLE
  2
Standard
  9
$CMLJUST
 70
     0
  9
$CMLSCALE
 40
1.0
  9
$PROXYGRAPHICS
 70
     1
  9
$MEASUREMENT
 70
     0
  9
$CELWEIGHT
370
    -1
  9
$ENDCAPS
280
     0
  9
$JOINSTYLE
280
     0
  9
$LWDISPLAY
290
     0
  9
$INSUNITS
 70
     5
  9
$HYPERLINKBASE
  1

  9
$STYLESHEET
  1

  9
$XEDIT
290
     1
  9
$CEPSNTYPE
380
     0
  9
$PSTYLEMODE
290
     1
  9
$FINGERPRINTGUID
  2
{560C6E4E-62E0-0443-9848-58F7222D1E50}
  9
$VERSIONGUID
  2
{3C86EB90-0CBC-8C41-93A5-E7485A2CD58F}
  9
$EXTNAMES
290
     1
  9
$PSVPSCALE
 40
0.0
  9
$OLESTARTUP
290
     0
  9
$SORTENTS
280
   127
  9
$INDEXCTL
280
     0
  9
$HIDETEXT
280
     1
  9
$XCLIPFRAME
280
     2
  9
$HALOGAP
280
     0
  9
$OBSCOLOR
 70
   257
  9
$OBSLTYPE
280
     0
  9
$INTERSECTIONDISPLAY
280
     0
  9
$INTERSECTIONCOLOR
 70
   257
  9
$DIMASSOC
280
     2
  9
$PROJECTNAME
  1

  9
$CAMERADISPLAY
290
     0
  9
$LENSLENGTH
 40
50.0
  9
$CAMERAHEIGHT
 40
0.0
  9
$STEPSPERSEC
 40
2.0
  9
$STEPSIZE
 40
6.0
  9
$3DDWFPREC
 40
2.0
  9
$PSOLWIDTH
 40
0.25
  9
$PSOLHEIGHT
 40
4.0
  9
$LOFTANG1
 40
1.570796326794896
  9
$LOFTANG2
 40
1.570796326794896
  9
$LOFTMAG1
 40
0.0
  9
$LOFTMAG2
 40
0.0
  9
$LOFTPARAM
 70
     7
  9
$LOFTNORMALS
280
     1
  9
$LATITUDE
 40
37.795
  9
$LONGITUDE
 40
-122.394
  9
$NORTHDIRECTION
 40
0.0
  9
$TIMEZONE
 70
 -8000
  9
$LIGHTGLYPHDISPLAY
280
     1
  9
$TILEMODELIGHTSYNCH
280
     1
  9
$CMATERIAL
347
11
  9
$SOLIDHIST
280
     0
  9
$SHOWHIST
280
     1
  9
$DWFFRAME
280
     2
  9
$DGNFRAME
280
     0
  9
$REALWORLDSCALE
290
     1
  9
$INTERFERECOLOR
 62
     1
  9
$INTERFEREOBJVS
345
33
  9
$INTERFEREVPVS
346
30
  9
$CSHADOW
280
     0
  9
$SHADOWPLANELOCATION
 40
0.0
  0
ENDSEC
  0
SECTION
  2
CLASSES
  0
CLASS
  1
ACDBDICTIONARYWDFLT
  2
AcDbDictionaryWithDefault
  3
ObjectDBX Classes
 90
        0
 91
        1
280
     0
281
     0
  0
CLASS
  1
MATERIAL
  2
AcDbMaterial
  3
ObjectDBX Classes
 90
     1153
 91
        3
280
     0
281
     0
  0
CLASS
  1
VISUALSTYLE
  2
AcDbVisualStyle
  3
ObjectDBX Classes
 90
     4095
 91
       24
280
     0
281
     0
  0
CLASS
  1
SCALE
  2
AcDbScale
  3
ObjectDBX Classes
 90
     1153
 91
       17
280
     0
281
     0
  0
CLASS
  1
TABLESTYLE
  2
AcDbTableStyle
  3
ObjectDBX Classes
 90
     4095
 91
        1
280
     0
281
     0
  0
CLASS
  1
MLEADERSTYLE
  2
AcDbMLeaderStyle
  3
ACDB_MLEADERSTYLE_CLASS
 90
     4095
 91
        1
280
     0
281
     0
  0
CLASS
  1
ACDBSECTIONVIEWSTYLE
  2
AcDbSectionViewStyle
  3
ObjectDBX Classes
 90
     1025
 91
        1
280
     0
281
     0
  0
CLASS
  1
ACDBDETAILVIEWSTYLE
  2
AcDbDetailViewStyle
  3
ObjectDBX Classes
 90
     1025
 91
        1
280
     0
281
     0
  0
CLASS
  1
DICTIONARYVAR
  2
AcDbDictionaryVar
  3
ObjectDBX Classes
 90
        0
 91
        5
280
     0
281
     0
  0
CLASS
  1
CELLSTYLEMAP
  2
AcDbCellStyleMap
  3
ObjectDBX Classes
 90
     1152
 91
        1
280
     0
281
     0
  0
ENDSEC
  0
SECTION
  2
TABLES
  0
TABLE
  2
VPORT
  5
8
330
0
100
AcDbSymbolTable
 70
     1
1001
ACAD
1000
DbSaveVer
1071
      247
  0
VPORT
  5
57
330
8
100
AcDbSymbolTableRecord
100
AcDbViewportTableRecord
  2
*Active
 70
     0
 10
0.0
 20
0.0
 11
1.0
 21
1.0
 12
500.0
 22
500.0
 13
0.0
 23
0.0
 14
1.0
 24
1.0
 15
0.0
 25
0.0
 16
0.0
 26
0.0
 36
1.0
 17
0.0
 27
0.0
 37
0.0
 40
12.0
 41
1.0
 42
50.0
 43
0.0
 44
0.0
 50
0.0
 51
0.0
 71
     0
 72
   100
 73
     1
 74
     1
 75
     0
 76
     0
 77
     0
 78
     0
281
     0
 65
     1
110
0.0
120
0.0
130
0.0
111
1.0
121
0.0
131
0.0
112
0.0
122
1.0
132
0.0
 79
     0
146
0.0
 60
     3
 61
     5
292
     1
282
     1
141
0.0
142
0.0
 63
   250
421
  3355443
  0
ENDTAB
  0
TABLE
  2
LTYPE
  5
5
330
0
100
AcDbSymbolTable
 70
     1
  0
LTYPE
  5
5B
330
5
100
AcDbSymbolTableRecord
100
AcDbLinetypeTableRecord
  2
ByBlock
 70
     0
  3

 72
    65
 73
     0
 40
0.0
  0
LTYPE
  5
5C
330
5
100
AcDbSymbolTableRecord
100
AcDbLinetypeTableRecord
  2
ByLayer
 70
     0
  3

 72
    65
 73
     0
 40
0.0
  0
LTYPE
  5
5D
330
5
100
AcDbSymbolTableRecord
100
AcDbLinetypeTableRecord
  2
Continuous
 70
     0
  3
Solid line
 72
    65
 73
     0
 40
0.0
  0
ENDTAB
  0
TABLE
  2
LAYER
  5
2
330
0
100
AcDbSymbolTable
 70
     2
  0
LAYER
  5
54
330
2
100
AcDbSymbolTableRecord
100
AcDbLayerTableRecord
  2
0
 70
     0
 62
     7
  6
Continuous
370
    -3
390
F
347
21
348
0
  0
LAYER
  5
7A
330
2
100
AcDbSymbolTableRecord
100
AcDbLayerTableRecord
  2
desuneko-65-plate-single-layout v5_0
 70
     0
 62
     7
  6
Continuous
370
    -3
390
F
347
21
348
0
1001
NFusion_SketchTransform
1000
1.000000;0.000000;0.000000;0.000000;0.000000;1.000000;0.000000;0.000000;0.000000;0.000000;1.000000;0.000000;0.000000;0.000000;0.000000;1.000000
  0
ENDTAB
  0
TABLE
  2
STYLE
  5
3
330
0
100
AcDbSymbolTable
 70
     2
  0
STYLE
  5
55
330
3
100
AcDbSymbolTableRecord
100
AcDbTextStyleTableRecord
  2
Standard
 70
     0
 40
0.0
 41
1.0
 50
0.0
 71
     0
 42
0.2
  3
txt
  4

  0
STYLE
  5
5A
330
3
100
AcDbSymbolTableRecord
100
AcDbTextStyleTableRecord
  2
Annotative
 70
     0
 40
0.0
 41
1.0
 50
0.0
 71
     0
 42
0.2
  3
txt
  4

1001
AcadAnnotative
1000
AnnotativeData
1002
{
1070
     1
1070
     1
1002
}
  0
ENDTAB
  0
TABLE
  2
VIEW
  5
6
330
0
100
AcDbSymbolTable
 70
     0
  0
ENDTAB
  0
TABLE
  2
UCS
  5
7
330
0
100
AcDbSymbolTable
 70
     0
  0
ENDTAB
  0
TABLE
  2
APPID
  5
9
330
0
100
AcDbSymbolTable
 70
     4
  0
APPID
  5
56
330
9
100
AcDbSymbolTableRecord
100
AcDbRegAppTableRecord
  2
ACAD
 70
     0
  0
APPID
  5
5E
330
9
100
AcDbSymbolTableRecord
100
AcDbRegAppTableRecord
  2
AcadAnnotative
 70
     0
  0
APPID
  5
78
330
9
100
AcDbSymbolTableRecord
100
AcDbRegAppTableRecord
  2
EDIT_IN_FUSION_ACAD_ADDIN
 70
     0
  0
APPID
  5
79
330
9
100
AcDbSymbolTableRecord
100
AcDbRegAppTableRecord
  2
NFusion_SketchTransform
 70
     0
  0
ENDTAB
  0
TABLE
  2
DIMSTYLE
  5
A
330
0
100
AcDbSymbolTable
 70
     2
100
AcDbDimStyleTable
 71
     0
  0
DIMSTYLE
105
58
330
A
100
AcDbSymbolTableRecord
100
AcDbDimStyleTableRecord
  2
Standard
 70
     0
340
55
  0
DIMSTYLE
105
59
330
A
100
AcDbSymbolTableRecord
100
AcDbDimStyleTableRecord
  2
Annotative
 70
     0
340
55
1001
AcadAnnotative
1000
AnnotativeData
1002
{
1070
     1
1070
     1
1002
}
  0
ENDTAB
  0
TABLE
  2
BLOCK_RECORD
  5
1
330
0
100
AcDbSymbolTable
 70
     1
  0
BLOCK_RECORD
  5
70
330
1
100
AcDbSymbolTableRecord
100
AcDbBlockTableRecord
  2
*Model_Space
340
73
 70
     0
280
     1
281
     0
  0
BLOCK_RECORD
  5
6C
330
1
100
AcDbSymbolTableRecord
100
AcDbBlockTableRecord
  2
*Paper_Space
340
6F
 70
     0
280
     1
281
     0
  0
BLOCK_RECORD
  5
74
330
1
100
AcDbSymbolTableRecord
100
AcDbBlockTableRecord
  2
*Paper_Space0
340
77
 70
     0
280
     1
281
     0
  0
ENDTAB
  0
ENDSEC
  0
SECTION
  2
BLOCKS
  0
BLOCK
  5
71
330
70
100
AcDbEntity
  8
0
100
AcDbBlockBegin
  2
*Model_Space
 70
     0
 10
0.0
 20
0.0
 30
0.0
  3
*Model_Space
  1

  0
ENDBLK
  5
72
330
70
100
AcDbEntity
  8
0
100
AcDbBlockEnd
  0
BLOCK
  5
6D
330
6C
100
AcDbEntity
 67
     1
  8
0
100
AcDbBlockBegin
  2
*Paper_Space
 70
     0
 10
0.0
 20
0.0
 30
0.0
  3
*Paper_Space
  1

  0
ENDBLK
  5
6E
330
6C
100
AcDbEntity
 67
     1
  8
0
100
AcDbBlockEnd
  0
BLOCK
  5
75
330
74
100
AcDbEntity
 67
     1
  8
0
100
AcDbBlockBegin
  2
*Paper_Space0
 70
     0
 10
0.0
 20
0.0
 30
0.0
  3
*Paper_Space0
  1

  0
ENDBLK
  5
76
330
74
100
AcDbEntity
 67
     1
  8
0
100
AcDbBlockEnd
  0
ENDSEC
  0
SECTION
  2
ENTITIES
  0
ARC
  5
7B
330
70
100
AcDbEntity
  8
desuneko-65-plate-single-layout v5_0
100
AcDbCircle
 10
1.6025
 20
-0.3025
 30
0.0
 40
0.0500000000000001
100
AcDbArc
 50
0.0
 51
90.0
  0
ARC
  5
7C
330
70
100
AcDbEntity
  8
desuneko-65-plate-single-layout v5_0
100
AcDbCircle
 10
6.0175
 20
-0.3025
 30
0.0
 40
0.05
100
AcDbArc
 50
90.0
 51
180.0
  0
ARC
  5
7D
330
70
100
AcDbEntity
  8
desuneko-65-plate-single-layout v5_0
100
AcDbCircle
 10
11.1275
 20
-1.6025
 30
0.0
 40
0.0500000000000001
100
AcDbArc
 50
270.0
 51
0.0
  0
LINE
  5
7E
330
70
100
AcDbEntity
  8
desuneko-65-plate-single-layout v5_0
100
AcDbLine
 10
9.272499999999999
 20
-0.3025
 30
0.0
 11
9.272499999999999
 21
-1.6025
 31
0.0
  0
ARC
  5
7F
330
70
100
AcDbEntity
  8
desuneko-65-plate-single-layout v5_0
100
AcDbCircle
 10
13.0325
 20
-0.3025
 30
0.0
 40
0.0500000000000007
100
AcDbArc
 50
0.0
 51
90.0
  0
LINE
  5
80
330
70
100
AcDbEntity
  8
desuneko-65-plate-single-layout v5_0
100
AcDbLine
 10
13.6375
 20
-0.2525
 30
0.0
 11
14.9375
 21
-0.2525
 31
0.0
  0
LINE
  5
81
330
70
100
AcDbEntity
  8
desuneko-65-plate-single-layout v5_0
100
AcDbLine
 10
2.1575
 20
-0.3025
 30
0.0
 11
2.1575
 21
-1.6025
 31
0.0
  0
ARC
  5
82
330
70
100
AcDbEntity
  8
desuneko-65-plate-single-layout v5_0
100
AcDbCircle
 10
11.7325
 20
-1.6025
 30
0.0
 40
0.0500000000000007
100
AcDbArc
 50
180.0
 51
270.0
  0
LINE
  5
83
330
70
100
AcDbEntity
  8
desuneko-65-plate-single-layout v5_0
100
AcDbLine
 10
17.3975
 20
-0.3025
 30
0.0
 11
17.3975
 21
-1.6025
 31
0.0
  0
ARC
  5
84
330
70
100
AcDbEntity
  8
desuneko-65-plate-single-layout v5_0
100
AcDbCircle
 10
5.4125
 20
-0.3025
 30
0.0
 40
0.0499999999999998
100
AcDbArc
 50
0.0
 51
90.0
  0
LINE
  5
85
330
70
100
AcDbEntity
  8
desuneko-65-plate-single-layout v5_0
100
AcDbLine
 10
5.4625
 20
-0.3025
 30
0.0
 11
5.4625
 21
-1.6025
 31
0.0
  0
ARC
  5
86
330
70
100
AcDbEntity
  8
desuneko-65-plate-single-layout v5_0
100
AcDbCircle
 10
0.3025
 20
-0.3025
 30
0.0
 40
0.05
100
AcDbArc
 50
90.0
 51
180.0
  0
ARC
  5
87
330
70
100
AcDbEntity
  8
desuneko-65-plate-single-layout v5_0
100
AcDbCircle
 10
9.8275
 20
-1.6025
 30
0.0
 40
0.0500000000000007
100
AcDbArc
 50
180.0
 51
270.0
  0
ARC
  5
88
330
70
100
AcDbEntity
  8
desuneko-65-plate-single-layout v5_0
100
AcDbCircle
 10
0.3025
 20
-1.6025
 30
0.0
 40
0.05
100
AcDbArc
 50
180.0
 51
270.0
  0
ARC
  5
89
330
70
100
AcDbEntity
  8
desuneko-65-plate-single-layout v5_0
100
AcDbCircle
 10
4.112499999999999
 20
-0.3025
 30
0.0
 40
0.05
100
AcDbArc
 50
90.0
 51
180.0
  0
LINE
  5
8A
330
70
100
AcDbEntity
  8
desuneko-65-plate-single-layout v5_0
100
AcDbLine
 10
7.922499999999998
 20
-1.652499999999999
 30
0.0
 11
9.2225
 21
-1.6525
 31
0.0
  0
LINE
  5
8B
330
70
100
AcDbEntity
  8
desuneko-65-plate-single-layout v5_0
100
AcDbLine
 10
0.3025
 20
-0.2525
 30
0.0
 11
1.6025
 21
-0.2525
 31
0.0
  0
LINE
  5
8C
330
70
100
AcDbEntity
  8
desuneko-65-plate-single-layout v5_0
100
AcDbLine
 10
7.367499999999999
 20
-0.3025
 30
0.0
 11
7.367499999999999
 21
-1.6025
 31
0.0
  0
ARC
  5
8D
330
70
100
AcDbEntity
  8
desuneko-65-plate-single-layout v5_0
100
AcDbCircle
 10
1.6025
 20
-1.6025
 30
0.0
 40
0.0500000000000001
100
AcDbArc
 50
270.0
 51
0.0
  0
LINE
  5
8E
330
70
100
AcDbEntity
  8
desuneko-65-plate-single-layout v5_0
100
AcDbLine
 10
23.1625
 20
-1.652499999999999
 30
0.0
 11
24.4625
 21
-1.652499999999999
 31
0.0
  0
LINE
  5
8F
330
70
100
AcDbEntity
  8
desuneko-65-plate-single-layout v5_0
100
AcDbLine
 10
0.3025
 20
-1.6525
 30
0.0
 11
1.6025
 21
-1.6525
 31
0.0
  0
ARC
  5
90
330
70
100
AcDbEntity
  8
desuneko-65-plate-single-layout v5_0
100
AcDbCircle
 10
22.5575
 20
-0.3025
 30
0.0
 40
0.0500000000000007
100
AcDbArc
 50
0.0
 51
90.0
  0
ARC
  5
91
330
70
100
AcDbEntity
  8
desuneko-65-plate-single-layout v5_0
100
AcDbCircle
 10
6.0175
 20
-1.6025
 30
0.0
 40
0.0499999999999998
100
AcDbArc
 50
180.0
 51
270.0
  0
ARC
  5
92
330
70
100
AcDbEntity
  8
desuneko-65-plate-single-layout v5_0
100
AcDbCircle
 10
7.922499999999998
 20
-1.6025
 30
0.0
 40
0.0499999999999998
100
AcDbArc
 50
180.0
 51
270.0
  0
ARC
  5
93
330
70
100
AcDbEntity
  8
desuneko-65-plate-single-layout v5_0
100
AcDbCircle
 10
2.2075
 20
-0.3025
 30
0.0
 40
0.05
100
AcDbArc
 50
90.0
 51
180.0
  0
LINE
  5
94
330
70
100
AcDbEntity
  8
desuneko-65-plate-single-layout v5_0
100
AcDbLine
 10
0.2525
 20
-0.3025
 30
0.0
 11
0.2525
 21
-1.6025
 31
0.0
  0
LINE
  5
95
330
70
100
AcDbEntity
  8
desuneko-65-plate-single-layout v5_0
100
AcDbLine
 10
14.9875
 20
-0.3025
 30
0.0
 11
14.9875
 21
-1.6025
 31
0.0
  0
LINE
  5
96
330
70
100
AcDbEntity
  8
desuneko-65-plate-single-layout v5_0
100
AcDbLine
 10
6.0175
 20
-0.2525
 30
0.0
 11
7.317499999999999
 21
-0.2525
 31
0.0
  0
LINE
  5
97
330
70
100
AcDbEntity
  8
desuneko-65-plate-single-layout v5_0
100
AcDbLine
 10
1.6525
 20
-0.3025
 30
0.0
 11
1.6525
 21
-1.6025
 31
0.0
  0
LINE
  5
98
330
70
100
AcDbEntity
  8
desuneko-65-plate-single-layout v5_0
100
AcDbLine
 10
27.37
 20
-0.3025
 30
0.0
 11
27.37
 21
-1.6025
 31
0.0
  0
ARC
  5
99
330
70
100
AcDbEntity
  8
desuneko-65-plate-single-layout v5_0
100
AcDbCircle
 10
21.2575
 20
-1.6025
 30
0.0
 40
0.0500000000000007
100
AcDbArc
 50
180.0
 51
270.0
  0
LINE
  5
9A
330
70
100
AcDbEntity
  8
desuneko-65-plate-single-layout v5_0
100
AcDbLine
 10
2.2075
 20
-0.2525
 30
0.0
 11
3.5075
 21
-0.2525
 31
0.0
  0
ARC
  5
9B
330
70
100
AcDbEntity
  8
desuneko-65-plate-single-layout v5_0
100
AcDbCircle
 10
18.7475
 20
-0.3025
 30
0.0
 40
0.0500000000000007
100
AcDbArc
 50
0.0
 51
90.0
  0
LINE
  5
9C
330
70
100
AcDbEntity
  8
desuneko-65-plate-single-layout v5_0
100
AcDbLine
 10
26.02
 20
-0.2525
 30
0.0
 11
27.32
 21
-0.2525
 31
0.0
  0
LINE
  5
9D
330
70
100
AcDbEntity
  8
desuneko-65-plate-single-layout v5_0
100
AcDbLine
 10
9.777499999999999
 20
-0.3025
 30
0.0
 11
9.777499999999999
 21
-1.6025
 31
0.0
  0
ARC
  5
9E
330
70
100
AcDbEntity
  8
desuneko-65-plate-single-layout v5_0
100
AcDbCircle
 10
21.2575
 20
-0.3025
 30
0.0
 40
0.05
100
AcDbArc
 50
90.0
 51
180.0
  0
ARC
  5
9F
330
70
100
AcDbEntity
  8
desuneko-65-plate-single-layout v5_0
100
AcDbCircle
 10
3.5075
 20
-0.3025
 30
0.0
 40
0.0499999999999998
100
AcDbArc
 50
0.0
 51
90.0
  0
LINE
  5
A0
330
70
100
AcDbEntity
  8
desuneko-65-plate-single-layout v5_0
100
AcDbLine
 10
15.5425
 20
-1.652499999999999
 30
0.0
 11
16.8425
 21
-1.652499999999999
 31
0.0
  0
LINE
  5
A1
330
70
100
AcDbEntity
  8
desuneko-65-plate-single-layout v5_0
100
AcDbLine
 10
11.1775
 20
-0.3025
 30
0.0
 11
11.1775
 21
-1.6025
 31
0.0
  0
ARC
  5
A2
330
70
100
AcDbEntity
  8
desuneko-65-plate-single-layout v5_0
100
AcDbCircle
 10
4.459999999999999
 20
-3.5075
 30
0.0
 40
0.0499999999999998
100
AcDbArc
 50
270.0
 51
0.0
  0
LINE
  5
A3
330
70
100
AcDbEntity
  8
desuneko-65-plate-single-layout v5_0
100
AcDbLine
 10
21.2575
 20
-1.652499999999999
 30
0.0
 11
22.5575
 21
-1.652499999999999
 31
0.0
  0
LINE
  5
A4
330
70
100
AcDbEntity
  8
desuneko-65-plate-single-layout v5_0
100
AcDbLine
 10
27.5638
 20
-0.3525
 30
0.0
 11
28.1638
 21
-0.3525
 31
0.0
  0
LINE
  5
A5
330
70
100
AcDbEntity
  8
desuneko-65-plate-single-layout v5_0
100
AcDbLine
 10
4.112499999999999
 20
-1.652499999999999
 30
0.0
 11
5.4125
 21
-1.652499999999999
 31
0.0
  0
ARC
  5
A6
330
70
100
AcDbEntity
  8
desuneko-65-plate-single-layout v5_0
100
AcDbCircle
 10
9.2225
 20
-0.3025
 30
0.0
 40
0.0500000000000007
100
AcDbArc
 50
0.0
 51
90.0
  0
ARC
  5
A7
330
70
100
AcDbEntity
  8
desuneko-65-plate-single-layout v5_0
100
AcDbCircle
 10
7.317499999999999
 20
-1.6025
 30
0.0
 40
0.0500000000000001
100
AcDbArc
 50
270.0
 51
0.0
  0
LINE
  5
A8
330
70
100
AcDbEntity
  8
desuneko-65-plate-single-layout v5_0
100
AcDbLine
 10
23.1125
 20
-0.3025
 30
0.0
 11
23.1125
 21
-1.6025
 31
0.0
  0
ARC
  5
A9
330
70
100
AcDbEntity
  8
desuneko-65-plate-single-layout v5_0
100
AcDbCircle
 10
14.9375
 20
-0.3025
 30
0.0
 40
0.0500000000000007
100
AcDbArc
 50
0.0
 51
90.0
  0
LINE
  5
AA
330
70
100
AcDbEntity
  8
desuneko-65-plate-single-layout v5_0
100
AcDbLine
 10
0.7787500000000001
 20
-2.1575
 30
0.0
 11
2.07875
 21
-2.1575
 31
0.0
  0
ARC
  5
AB
330
70
100
AcDbEntity
  8
desuneko-65-plate-single-layout v5_0
100
AcDbCircle
 10
27.32
 20
-0.3025
 30
0.0
 40
0.0500000000000007
100
AcDbArc
 50
0.0
 51
90.0
  0
ARC
  5
AC
330
70
100
AcDbEntity
  8
desuneko-65-plate-single-layout v5_0
100
AcDbCircle
 10
17.4475
 20
-0.3025
 30
0.0
 40
0.05
100
AcDbArc
 50
90.0
 51
180.0
  0
ARC
  5
AD
330
70
100
AcDbEntity
  8
desuneko-65-plate-single-layout v5_0
100
AcDbCircle
 10
17.4475
 20
-1.6025
 30
0.0
 40
0.0500000000000007
100
AcDbArc
 50
180.0
 51
270.0
  0
LINE
  5
AE
330
70
100
AcDbEntity
  8
desuneko-65-plate-single-layout v5_0
100
AcDbLine
 10
0.72875
 20
-2.2075
 30
0.0
 11
0.72875
 21
-3.5075
 31
0.0
  0
LINE
  5
AF
330
70
100
AcDbEntity
  8
desuneko-65-plate-single-layout v5_0
100
AcDbLine
 10
26.02
 20
-1.652499999999999
 30
0.0
 11
27.32
 21
-1.652499999999999
 31
0.0
  0
ARC
  5
B0
330
70
100
AcDbEntity
  8
desuneko-65-plate-single-layout v5_0
100
AcDbCircle
 10
2.2075
 20
-1.6025
 30
0.0
 40
0.0499999999999998
100
AcDbArc
 50
180.0
 51
270.0
  0
ARC
  5
B1
330
70
100
AcDbEntity
  8
desuneko-65-plate-single-layout v5_0
100
AcDbCircle
 10
9.2225
 20
-1.6025
 30
0.0
 40
0.0500000000000001
100
AcDbArc
 50
270.0
 51
0.0
  0
LINE
  5
B2
330
70
100
AcDbEntity
  8
desuneko-65-plate-single-layout v5_0
100
AcDbLine
 10
11.7325
 20
-0.2525
 30
0.0
 11
13.0325
 21
-0.2525
 31
0.0
  0
ARC
  5
B3
330
70
100
AcDbEntity
  8
desuneko-65-plate-single-layout v5_0
100
AcDbCircle
 10
16.8425
 20
-0.3025
 30
0.0
 40
0.0500000000000007
100
AcDbArc
 50
0.0
 51
90.0
  0
ARC
  5
B4
330
70
100
AcDbEntity
  8
desuneko-65-plate-single-layout v5_0
100
AcDbCircle
 10
7.922499999999998
 20
-0.3025
 30
0.0
 40
0.05
100
AcDbArc
 50
90.0
 51
180.0
  0
LINE
  5
B5
330
70
100
AcDbEntity
  8
desuneko-65-plate-single-layout v5_0
100
AcDbLine
 10
18.7975
 20
-0.3025
 30
0.0
 11
18.7975
 21
-1.6025
 31
0.0
  0
LINE
  5
B6
330
70
100
AcDbEntity
  8
desuneko-65-plate-single-layout v5_0
100
AcDbLine
 10
2.2075
 20
-1.652499999999999
 30
0.0
 11
3.5075
 21
-1.652499999999999
 31
0.0
  0
LINE
  5
B7
330
70
100
AcDbEntity
  8
desuneko-65-plate-single-layout v5_0
100
AcDbLine
 10
4.0625
 20
-0.3025
 30
0.0
 11
4.0625
 21
-1.6025
 31
0.0
  0
LINE
  5
B8
330
70
100
AcDbEntity
  8
desuneko-65-plate-single-layout v5_0
100
AcDbLine
 10
9.8275
 20
-0.2525
 30
0.0
 11
11.1275
 21
-0.2525
 31
0.0
  0
LINE
  5
B9
330
70
100
AcDbEntity
  8
desuneko-65-plate-single-layout v5_0
100
AcDbLine
 10
9.8275
 20
-1.6525
 30
0.0
 11
11.1275
 21
-1.6525
 31
0.0
  0
LINE
  5
BA
330
70
100
AcDbEntity
  8
desuneko-65-plate-single-layout v5_0
100
AcDbLine
 10
7.872499999999998
 20
-0.3025
 30
0.0
 11
7.872499999999998
 21
-1.6025
 31
0.0
  0
ARC
  5
BB
330
70
100
AcDbEntity
  8
desuneko-65-plate-single-layout v5_0
100
AcDbCircle
 10
11.7325
 20
-0.3025
 30
0.0
 40
0.05
100
AcDbArc
 50
90.0
 51
180.0
  0
LINE
  5
BC
330
70
100
AcDbEntity
  8
desuneko-65-plate-single-layout v5_0
100
AcDbLine
 10
5.9675
 20
-0.3025
 30
0.0
 11
5.9675
 21
-1.6025
 31
0.0
  0
LINE
  5
BD
330
70
100
AcDbEntity
  8
desuneko-65-plate-single-layout v5_0
100
AcDbLine
 10
6.0175
 20
-1.652499999999999
 30
0.0
 11
7.317499999999999
 21
-1.652499999999999
 31
0.0
  0
ARC
  5
BE
330
70
100
AcDbEntity
  8
desuneko-65-plate-single-layout v5_0
100
AcDbCircle
 10
4.112499999999999
 20
-1.6025
 30
0.0
 40
0.0499999999999998
100
AcDbArc
 50
180.0
 51
270.0
  0
ARC
  5
BF
330
70
100
AcDbEntity
  8
desuneko-65-plate-single-layout v5_0
100
AcDbCircle
 10
3.5075
 20
-1.6025
 30
0.0
 40
0.0500000000000001
100
AcDbArc
 50
270.0
 51
0.0
  0
LINE
  5
C0
330
70
100
AcDbEntity
  8
desuneko-65-plate-single-layout v5_0
100
AcDbLine
 10
7.922499999999998
 20
-0.2525
 30
0.0
 11
9.2225
 21
-0.2525
 31
0.0
  0
ARC
  5
C1
330
70
100
AcDbEntity
  8
desuneko-65-plate-single-layout v5_0
100
AcDbCircle
 10
11.1275
 20
-0.3025
 30
0.0
 40
0.0500000000000007
100
AcDbArc
 50
0.0
 51
90.0
  0
ARC
  5
C2
330
70
100
AcDbEntity
  8
desuneko-65-plate-single-layout v5_0
100
AcDbCircle
 10
9.8275
 20
-0.3025
 30
0.0
 40
0.05
100
AcDbArc
 50
90.0
 51
180.0
  0
ARC
  5
C3
330
70
100
AcDbEntity
  8
desuneko-65-plate-single-layout v5_0
100
AcDbCircle
 10
5.4125
 20
-1.6025
 30
0.0
 40
0.0500000000000001
100
AcDbArc
 50
270.0
 51
0.0
  0
LINE
  5
C4
330
70
100
AcDbEntity
  8
desuneko-65-plate-single-layout v5_0
100
AcDbLine
 10
4.112499999999999
 20
-0.2525
 30
0.0
 11
5.4125
 21
-0.2525
 31
0.0
  0
LINE
  5
C5
330
70
100
AcDbEntity
  8
desuneko-65-plate-single-layout v5_0
100
AcDbLine
 10
3.5575
 20
-0.3025
 30
0.0
 11
3.5575
 21
-1.6025
 31
0.0
  0
LINE
  5
C6
330
70
100
AcDbEntity
  8
desuneko-65-plate-single-layout v5_0
100
AcDbLine
 10
11.7325
 20
-1.6525
 30
0.0
 11
13.0325
 21
-1.652499999999999
 31
0.0
  0
ARC
  5
C7
330
70
100
AcDbEntity
  8
desuneko-65-plate-single-layout v5_0
100
AcDbCircle
 10
7.317499999999999
 20
-0.3025
 30
0.0
 40
0.0499999999999998
100
AcDbArc
 50
0.0
 51
90.0
  0
ARC
  5
C8
330
70
100
AcDbEntity
  8
desuneko-65-plate-single-layout v5_0
100
AcDbCircle
 10
18.7475
 20
-1.6025
 30
0.0
 40
0.0500000000000001
100
AcDbArc
 50
270.0
 51
0.0
  0
LINE
  5
C9
330
70
100
AcDbEntity
  8
desuneko-65-plate-single-layout v5_0
100
AcDbLine
 10
20.70250000000001
 20
-0.3025
 30
0.0
 11
20.7025
 21
-1.6025
 31
0.0
  0
LINE
  5
CA
330
70
100
AcDbEntity
  8
desuneko-65-plate-single-layout v5_0
100
AcDbLine
 10
28.8775
 20
-0.2525
 30
0.0
 11
30.1775
 21
-0.2525
 31
0.0
  0
LINE
  5
CB
330
70
100
AcDbEntity
  8
desuneko-65-plate-single-layout v5_0
100
AcDbLine
 10
13.0825
 20
-0.3025
 30
0.0
 11
13.0825
 21
-1.6025
 31
0.0
  0
ARC
  5
CC
330
70
100
AcDbEntity
  8
desuneko-65-plate-single-layout v5_0
100
AcDbCircle
 10
10.175
 20
-2.2075
 30
0.0
 40
0.0500000000000007
100
AcDbArc
 50
0.0
 51
90.0
  0
ARC
  5
CD
330
70
100
AcDbEntity
  8
desuneko-65-plate-single-layout v5_0
100
AcDbCircle
 10
28.1638
 20
-1.8025
 30
0.0
 40
0.0500000000000001
100
AcDbArc
 50
270.0
 51
0.0
  0
ARC
  5
CE
330
70
100
AcDbEntity
  8
desuneko-65-plate-single-layout v5_0
100
AcDbCircle
 10
30.1775
 20
-1.6025
 30
0.0
 40
0.0500000000000001
100
AcDbArc
 50
270.0
 51
0.0
  0
ARC
  5
CF
330
70
100
AcDbEntity
  8
desuneko-65-plate-single-layout v5_0
100
AcDbCircle
 10
20.6525
 20
-1.6025
 30
0.0
 40
0.0500000000000001
100
AcDbArc
 50
270.0
 51
0.0
  0
ARC
  5
D0
330
70
100
AcDbEntity
  8
desuneko-65-plate-single-layout v5_0
100
AcDbCircle
 10
15.5425
 20
-0.3025
 30
0.0
 40
0.05
100
AcDbArc
 50
90.0
 51
180.0
  0
ARC
  5
D1
330
70
100
AcDbEntity
  8
desuneko-65-plate-single-layout v5_0
100
AcDbCircle
 10
8.875
 20
-3.5075
 30
0.0
 40
0.0500000000000007
100
AcDbArc
 50
180.0
 51
270.0
  0
ARC
  5
D2
330
70
100
AcDbEntity
  8
desuneko-65-plate-single-layout v5_0
100
AcDbCircle
 10
25.1762
 20
-1.8025
 30
0.0
 40
0.0500000000000007
100
AcDbArc
 50
180.0
 51
270.0
  0
LINE
  5
D3
330
70
100
AcDbEntity
  8
desuneko-65-plate-single-layout v5_0
100
AcDbLine
 10
25.8262
 20
-0.4025000000000001
 30
0.0
 11
25.8262
 21
-1.8025
 31
0.0
  0
LINE
  5
D4
330
70
100
AcDbEntity
  8
desuneko-65-plate-single-layout v5_0
100
AcDbLine
 10
21.2575
 20
-0.2525
 30
0.0
 11
22.5575
 21
-0.2525
 31
0.0
  0
LINE
  5
D5
330
70
100
AcDbEntity
  8
desuneko-65-plate-single-layout v5_0
100
AcDbLine
 10
10.225
 20
-2.2075
 30
0.0
 11
10.225
 21
-3.5075
 31
0.0
  0
LINE
  5
D6
330
70
100
AcDbEntity
  8
desuneko-65-plate-single-layout v5_0
100
AcDbLine
 10
5.065
 20
-3.5575
 30
0.0
 11
6.365
 21
-3.5575
 31
0.0
  0
LINE
  5
D7
330
70
100
AcDbEntity
  8
desuneko-65-plate-single-layout v5_0
100
AcDbLine
 10
3.16
 20
-2.1575
 30
0.0
 11
4.459999999999999
 21
-2.1575
 31
0.0
  0
ARC
  5
D8
330
70
100
AcDbEntity
  8
desuneko-65-plate-single-layout v5_0
100
AcDbCircle
 10
14.9375
 20
-1.6025
 30
0.0
 40
0.0500000000000001
100
AcDbArc
 50
270.0
 51
0.0
  0
LINE
  5
D9
330
70
100
AcDbEntity
  8
desuneko-65-plate-single-layout v5_0
100
AcDbLine
 10
19.3525
 20
-0.2525
 30
0.0
 11
20.6525
 21
-0.2525
 31
0.0
  0
ARC
  5
DA
330
70
100
AcDbEntity
  8
desuneko-65-plate-single-layout v5_0
100
AcDbCircle
 10
20.6525
 20
-0.3025
 30
0.0
 40
0.0500000000000007
100
AcDbArc
 50
0.0
 51
90.0
  0
LINE
  5
DB
330
70
100
AcDbEntity
  8
desuneko-65-plate-single-layout v5_0
100
AcDbLine
 10
15.4925
 20
-0.3025
 30
0.0
 11
15.4925
 21
-1.6025
 31
0.0
  0
ARC
  5
DC
330
70
100
AcDbEntity
  8
desuneko-65-plate-single-layout v5_0
100
AcDbCircle
 10
22.5575
 20
-1.6025
 30
0.0
 40
0.0500000000000001
100
AcDbArc
 50
270.0
 51
0.0
  0
LINE
  5
DD
330
70
100
AcDbEntity
  8
desuneko-65-plate-single-layout v5_0
100
AcDbLine
 10
28.8275
 20
-0.3025
 30
0.0
 11
28.8275
 21
-1.6025
 31
0.0
  0
LINE
  5
DE
330
70
100
AcDbEntity
  8
desuneko-65-plate-single-layout v5_0
100
AcDbLine
 10
11.6825
 20
-0.3025
 30
0.0
 11
11.6825
 21
-1.6025
 31
0.0
  0
ARC
  5
DF
330
70
100
AcDbEntity
  8
desuneko-65-plate-single-layout v5_0
100
AcDbCircle
 10
23.1625
 20
-0.3025
 30
0.0
 40
0.05
100
AcDbArc
 50
90.0
 51
180.0
  0
ARC
  5
E0
330
70
100
AcDbEntity
  8
desuneko-65-plate-single-layout v5_0
100
AcDbCircle
 10
6.365
 20
-3.5075
 30
0.0
 40
0.0499999999999998
100
AcDbArc
 50
270.0
 51
0.0
  0
LINE
  5
E1
330
70
100
AcDbEntity
  8
desuneko-65-plate-single-layout v5_0
100
AcDbLine
 10
19.3525
 20
-1.6525
 30
0.0
 11
20.6525
 21
-1.6525
 31
0.0
  0
LINE
  5
E2
330
70
100
AcDbEntity
  8
desuneko-65-plate-single-layout v5_0
100
AcDbLine
 10
25.97
 20
-0.3025
 30
0.0
 11
25.97
 21
-1.6025
 31
0.0
  0
LINE
  5
E3
330
70
100
AcDbEntity
  8
desuneko-65-plate-single-layout v5_0
100
AcDbLine
 10
3.16
 20
-3.5575
 30
0.0
 11
4.459999999999999
 21
-3.5575
 31
0.0
  0
LINE
  5
E4
330
70
100
AcDbEntity
  8
desuneko-65-plate-single-layout v5_0
100
AcDbLine
 10
27.5638
 20
-1.8525
 30
0.0
 11
28.1638
 21
-1.8525
 31
0.0
  0
ARC
  5
E5
330
70
100
AcDbEntity
  8
desuneko-65-plate-single-layout v5_0
100
AcDbCircle
 10
19.3525
 20
-0.3025
 30
0.0
 40
0.05
100
AcDbArc
 50
90.0
 51
180.0
  0
ARC
  5
E6
330
70
100
AcDbEntity
  8
desuneko-65-plate-single-layout v5_0
100
AcDbCircle
 10
26.02
 20
-1.6025
 30
0.0
 40
0.0500000000000007
100
AcDbArc
 50
180.0
 51
270.0
  0
ARC
  5
E7
330
70
100
AcDbEntity
  8
desuneko-65-plate-single-layout v5_0
100
AcDbCircle
 10
24.4625
 20
-1.6025
 30
0.0
 40
0.0500000000000001
100
AcDbArc
 50
270.0
 51
0.0
  0
ARC
  5
E8
330
70
100
AcDbEntity
  8
desuneko-65-plate-single-layout v5_0
100
AcDbCircle
 10
30.1775
 20
-0.3025
 30
0.0
 40
0.0500000000000007
100
AcDbArc
 50
0.0
 51
90.0
  0
ARC
  5
E9
330
70
100
AcDbEntity
  8
desuneko-65-plate-single-layout v5_0
100
AcDbCircle
 10
5.065
 20
-2.2075
 30
0.0
 40
0.0499999999999998
100
AcDbArc
 50
90.0
 51
180.0
  0
LINE
  5
EA
330
70
100
AcDbEntity
  8
desuneko-65-plate-single-layout v5_0
100
AcDbLine
 10
25.1262
 20
-0.4025000000000001
 30
0.0
 11
25.1262
 21
-1.8025
 31
0.0
  0
ARC
  5
EB
330
70
100
AcDbEntity
  8
desuneko-65-plate-single-layout v5_0
100
AcDbCircle
 10
27.32
 20
-1.6025
 30
0.0
 40
0.0500000000000001
100
AcDbArc
 50
270.0
 51
0.0
  0
LINE
  5
EC
330
70
100
AcDbEntity
  8
desuneko-65-plate-single-layout v5_0
100
AcDbLine
 10
13.6375
 20
-1.652499999999999
 30
0.0
 11
14.9375
 21
-1.6525
 31
0.0
  0
ARC
  5
ED
330
70
100
AcDbEntity
  8
desuneko-65-plate-single-layout v5_0
100
AcDbCircle
 10
13.6375
 20
-1.6025
 30
0.0
 40
0.0500000000000007
100
AcDbArc
 50
180.0
 51
270.0
  0
ARC
  5
EE
330
70
100
AcDbEntity
  8
desuneko-65-plate-single-layout v5_0
100
AcDbCircle
 10
6.365
 20
-2.2075
 30
0.0
 40
0.0499999999999998
100
AcDbArc
 50
0.0
 51
90.0
  0
LINE
  5
EF
330
70
100
AcDbEntity
  8
desuneko-65-plate-single-layout v5_0
100
AcDbLine
 10
3.11
 20
-2.2075
 30
0.0
 11
3.11
 21
-3.5075
 31
0.0
  0
ARC
  5
F0
330
70
100
AcDbEntity
  8
desuneko-65-plate-single-layout v5_0
100
AcDbCircle
 10
13.0325
 20
-1.6025
 30
0.0
 40
0.0500000000000001
100
AcDbArc
 50
270.0
 51
0.0
  0
ARC
  5
F1
330
70
100
AcDbEntity
  8
desuneko-65-plate-single-layout v5_0
100
AcDbCircle
 10
5.065
 20
-3.5075
 30
0.0
 40
0.0499999999999998
100
AcDbArc
 50
180.0
 51
270.0
  0
ARC
  5
F2
330
70
100
AcDbEntity
  8
desuneko-65-plate-single-layout v5_0
100
AcDbCircle
 10
8.270000000000001
 20
-3.5075
 30
0.0
 40
0.0499999999999998
100
AcDbArc
 50
270.0
 51
0.0
  0
ARC
  5
F3
330
70
100
AcDbEntity
  8
desuneko-65-plate-single-layout v5_0
100
AcDbCircle
 10
16.8425
 20
-1.6025
 30
0.0
 40
0.0500000000000001
100
AcDbArc
 50
270.0
 51
0.0
  0
LINE
  5
F4
330
70
100
AcDbEntity
  8
desuneko-65-plate-single-layout v5_0
100
AcDbLine
 10
24.5125
 20
-0.3025
 30
0.0
 11
24.5125
 21
-1.6025
 31
0.0
  0
ARC
  5
F5
330
70
100
AcDbEntity
  8
desuneko-65-plate-single-layout v5_0
100
AcDbCircle
 10
15.5425
 20
-1.6025
 30
0.0
 40
0.0500000000000007
100
AcDbArc
 50
180.0
 51
270.0
  0
LINE
  5
F6
330
70
100
AcDbEntity
  8
desuneko-65-plate-single-layout v5_0
100
AcDbLine
 10
27.5138
 20
-0.4025000000000001
 30
0.0
 11
27.5138
 21
-1.8025
 31
0.0
  0
ARC
  5
F7
330
70
100
AcDbEntity
  8
desuneko-65-plate-single-layout v5_0
100
AcDbCircle
 10
13.6375
 20
-0.3025
 30
0.0
 40
0.05
100
AcDbArc
 50
90.0
 51
180.0
  0
LINE
  5
F8
330
70
100
AcDbEntity
  8
desuneko-65-plate-single-layout v5_0
100
AcDbLine
 10
15.5425
 20
-0.2525
 30
0.0
 11
16.8425
 21
-0.2525
 31
0.0
  0
LINE
  5
F9
330
70
100
AcDbEntity
  8
desuneko-65-plate-single-layout v5_0
100
AcDbLine
 10
22.6075
 20
-0.3025
 30
0.0
 11
22.6075
 21
-1.6025
 31
0.0
  0
LINE
  5
FA
330
70
100
AcDbEntity
  8
desuneko-65-plate-single-layout v5_0
100
AcDbLine
 10
5.065
 20
-2.1575
 30
0.0
 11
6.365
 21
-2.1575
 31
0.0
  0
ARC
  5
FB
330
70
100
AcDbEntity
  8
desuneko-65-plate-single-layout v5_0
100
AcDbCircle
 10
6.97
 20
-3.5075
 30
0.0
 40
0.0499999999999998
100
AcDbArc
 50
180.0
 51
270.0
  0
ARC
  5
FC
330
70
100
AcDbEntity
  8
desuneko-65-plate-single-layout v5_0
100
AcDbCircle
 10
23.1625
 20
-1.6025
 30
0.0
 40
0.0500000000000007
100
AcDbArc
 50
180.0
 51
270.0
  0
LINE
  5
FD
330
70
100
AcDbEntity
  8
desuneko-65-plate-single-layout v5_0
100
AcDbLine
 10
17.4475
 20
-0.2525
 30
0.0
 11
18.7475
 21
-0.2525
 31
0.0
  0
LINE
  5
FE
330
70
100
AcDbEntity
  8
desuneko-65-plate-single-layout v5_0
100
AcDbLine
 10
23.1625
 20
-0.2525
 30
0.0
 11
24.4625
 21
-0.2525
 31
0.0
  0
ARC
  5
FF
330
70
100
AcDbEntity
  8
desuneko-65-plate-single-layout v5_0
100
AcDbCircle
 10
19.3525
 20
-1.6025
 30
0.0
 40
0.0500000000000007
100
AcDbArc
 50
180.0
 51
270.0
  0
LINE
  5
100
330
70
100
AcDbEntity
  8
desuneko-65-plate-single-layout v5_0
100
AcDbLine
 10
21.2075
 20
-0.3025
 30
0.0
 11
21.2075
 21
-1.6025
 31
0.0
  0
ARC
  5
101
330
70
100
AcDbEntity
  8
desuneko-65-plate-single-layout v5_0
100
AcDbCircle
 10
26.02
 20
-0.3025
 30
0.0
 40
0.05
100
AcDbArc
 50
90.0
 51
180.0
  0
LINE
  5
102
330
70
100
AcDbEntity
  8
desuneko-65-plate-single-layout v5_0
100
AcDbLine
 10
16.8925
 20
-0.3025
 30
0.0
 11
16.8925
 21
-1.6025
 31
0.0
  0
LINE
  5
103
330
70
100
AcDbEntity
  8
desuneko-65-plate-single-layout v5_0
100
AcDbLine
 10
2.12875
 20
-2.2075
 30
0.0
 11
2.12875
 21
-3.5075
 31
0.0
  0
LINE
  5
104
330
70
100
AcDbEntity
  8
desuneko-65-plate-single-layout v5_0
100
AcDbLine
 10
19.3025
 20
-0.3025
 30
0.0
 11
19.3025
 21
-1.6025
 31
0.0
  0
LINE
  5
105
330
70
100
AcDbEntity
  8
desuneko-65-plate-single-layout v5_0
100
AcDbLine
 10
17.4475
 20
-1.6525
 30
0.0
 11
18.7475
 21
-1.6525
 31
0.0
  0
ARC
  5
106
330
70
100
AcDbEntity
  8
desuneko-65-plate-single-layout v5_0
100
AcDbCircle
 10
24.4625
 20
-0.3025
 30
0.0
 40
0.0500000000000007
100
AcDbArc
 50
0.0
 51
90.0
  0
LINE
  5
107
330
70
100
AcDbEntity
  8
desuneko-65-plate-single-layout v5_0
100
AcDbLine
 10
13.5875
 20
-0.3025
 30
0.0
 11
13.5875
 21
-1.6025
 31
0.0
  0
LINE
  5
108
330
70
100
AcDbEntity
  8
desuneko-65-plate-single-layout v5_0
100
AcDbLine
 10
8.875
 20
-3.5575
 30
0.0
 11
10.175
 21
-3.5575
 31
0.0
  0
ARC
  5
109
330
70
100
AcDbEntity
  8
desuneko-65-plate-single-layout v5_0
100
AcDbCircle
 10
23.51
 20
-2.2075
 30
0.0
 40
0.0500000000000007
100
AcDbArc
 50
0.0
 51
90.0
  0
LINE
  5
10A
330
70
100
AcDbEntity
  8
desuneko-65-plate-single-layout v5_0
100
AcDbLine
 10
16.445
 20
-2.2075
 30
0.0
 11
16.445
 21
-3.5075
 31
0.0
  0
ARC
  5
10B
330
70
100
AcDbEntity
  8
desuneko-65-plate-single-layout v5_0
100
AcDbCircle
 10
8.875
 20
-2.2075
 30
0.0
 40
0.0499999999999998
100
AcDbArc
 50
90.0
 51
180.0
  0
ARC
  5
10C
330
70
100
AcDbEntity
  8
desuneko-65-plate-single-layout v5_0
100
AcDbCircle
 10
25.1762
 20
-0.4025000000000001
 30
0.0
 40
0.05
100
AcDbArc
 50
90.0
 51
180.0
  0
LINE
  5
10D
330
70
100
AcDbEntity
  8
desuneko-65-plate-single-layout v5_0
100
AcDbLine
 10
25.1762
 20
-0.3525
 30
0.0
 11
25.7762
 21
-0.3525
 31
0.0
  0
ARC
  5
10E
330
70
100
AcDbEntity
  8
desuneko-65-plate-single-layout v5_0
100
AcDbCircle
 10
18.4
 20
-2.2075
 30
0.0
 40
0.0499999999999998
100
AcDbArc
 50
90.0
 51
180.0
  0
ARC
  5
10F
330
70
100
AcDbEntity
  8
desuneko-65-plate-single-layout v5_0
100
AcDbCircle
 10
15.89
 20
-2.2075
 30
0.0
 40
0.0500000000000007
100
AcDbArc
 50
0.0
 51
90.0
  0
ARC
  5
110
330
70
100
AcDbEntity
  8
desuneko-65-plate-single-layout v5_0
100
AcDbCircle
 10
19.7
 20
-3.5075
 30
0.0
 40
0.0499999999999998
100
AcDbArc
 50
270.0
 51
0.0
  0
LINE
  5
111
330
70
100
AcDbEntity
  8
desuneko-65-plate-single-layout v5_0
100
AcDbLine
 10
8.824999999999999
 20
-2.2075
 30
0.0
 11
8.824999999999999
 21
-3.5075
 31
0.0
  0
ARC
  5
112
330
70
100
AcDbEntity
  8
desuneko-65-plate-single-layout v5_0
100
AcDbCircle
 10
21.605
 20
-3.5075
 30
0.0
 40
0.0499999999999998
100
AcDbArc
 50
270.0
 51
0.0
  0
ARC
  5
113
330
70
100
AcDbEntity
  8
desuneko-65-plate-single-layout v5_0
100
AcDbCircle
 10
25.415
 20
-2.2075
 30
0.0
 40
0.0500000000000007
100
AcDbArc
 50
0.0
 51
90.0
  0
LINE
  5
114
330
70
100
AcDbEntity
  8
desuneko-65-plate-single-layout v5_0
100
AcDbLine
 10
28.8775
 20
-1.652499999999999
 30
0.0
 11
30.1775
 21
-1.6525
 31
0.0
  0
LINE
  5
115
330
70
100
AcDbEntity
  8
desuneko-65-plate-single-layout v5_0
100
AcDbLine
 10
14.59
 20
-2.1575
 30
0.0
 11
15.89
 21
-2.1575
 31
0.0
  0
ARC
  5
116
330
70
100
AcDbEntity
  8
desuneko-65-plate-single-layout v5_0
100
AcDbCircle
 10
28.8775
 20
-1.6025
 30
0.0
 40
0.0500000000000007
100
AcDbArc
 50
180.0
 51
270.0
  0
LINE
  5
117
330
70
100
AcDbEntity
  8
desuneko-65-plate-single-layout v5_0
100
AcDbLine
 10
14.035
 20
-2.2075
 30
0.0
 11
14.035
 21
-3.5075
 31
0.0
  0
ARC
  5
118
330
70
100
AcDbEntity
  8
desuneko-65-plate-single-layout v5_0
100
AcDbCircle
 10
12.685
 20
-3.5075
 30
0.0
 40
0.0500000000000007
100
AcDbArc
 50
180.0
 51
270.0
  0
ARC
  5
119
330
70
100
AcDbEntity
  8
desuneko-65-plate-single-layout v5_0
100
AcDbCircle
 10
6.97
 20
-2.2075
 30
0.0
 40
0.0499999999999998
100
AcDbArc
 50
90.0
 51
180.0
  0
LINE
  5
11A
330
70
100
AcDbEntity
  8
desuneko-65-plate-single-layout v5_0
100
AcDbLine
 10
6.97
 20
-3.5575
 30
0.0
 11
8.270000000000001
 21
-3.5575
 31
0.0
  0
ARC
  5
11B
330
70
100
AcDbEntity
  8
desuneko-65-plate-single-layout v5_0
100
AcDbCircle
 10
8.270000000000001
 20
-2.2075
 30
0.0
 40
0.0500000000000007
100
AcDbArc
 50
0.0
 51
90.0
  0
LINE
  5
11C
330
70
100
AcDbEntity
  8
desuneko-65-plate-single-layout v5_0
100
AcDbLine
 10
30.2275
 20
-0.3025
 30
0.0
 11
30.2275
 21
-1.6025
 31
0.0
  0
ARC
  5
11D
330
70
100
AcDbEntity
  8
desuneko-65-plate-single-layout v5_0
100
AcDbCircle
 10
4.459999999999999
 20
-2.2075
 30
0.0
 40
0.0499999999999998
100
AcDbArc
 50
0.0
 51
90.0
  0
ARC
  5
11E
330
70
100
AcDbEntity
  8
desuneko-65-plate-single-layout v5_0
100
AcDbCircle
 10
10.78
 20
-2.2075
 30
0.0
 40
0.0499999999999998
100
AcDbArc
 50
90.0
 51
180.0
  0
LINE
  5
11F
330
70
100
AcDbEntity
  8
desuneko-65-plate-single-layout v5_0
100
AcDbLine
 10
4.509999999999999
 20
-2.2075
 30
0.0
 11
4.509999999999999
 21
-3.5075
 31
0.0
  0
LINE
  5
120
330
70
100
AcDbEntity
  8
desuneko-65-plate-single-layout v5_0
100
AcDbLine
 10
24.115
 20
-2.1575
 30
0.0
 11
25.415
 21
-2.1575
 31
0.0
  0
LINE
  5
121
330
70
100
AcDbEntity
  8
desuneko-65-plate-single-layout v5_0
100
AcDbLine
 10
12.685
 20
-2.1575
 30
0.0
 11
13.985
 21
-2.1575
 31
0.0
  0
LINE
  5
122
330
70
100
AcDbEntity
  8
desuneko-65-plate-single-layout v5_0
100
AcDbLine
 10
14.54
 20
-2.2075
 30
0.0
 11
14.54
 21
-3.5075
 31
0.0
  0
ARC
  5
123
330
70
100
AcDbEntity
  8
desuneko-65-plate-single-layout v5_0
100
AcDbCircle
 10
2.07875
 20
-2.2075
 30
0.0
 40
0.0499999999999998
100
AcDbArc
 50
0.0
 51
90.0
  0
ARC
  5
124
330
70
100
AcDbEntity
  8
desuneko-65-plate-single-layout v5_0
100
AcDbCircle
 10
25.7762
 20
-1.8025
 30
0.0
 40
0.0500000000000001
100
AcDbArc
 50
270.0
 51
0.0
  0
LINE
  5
125
330
70
100
AcDbEntity
  8
desuneko-65-plate-single-layout v5_0
100
AcDbLine
 10
12.635
 20
-2.2075
 30
0.0
 11
12.635
 21
-3.5075
 31
0.0
  0
ARC
  5
126
330
70
100
AcDbEntity
  8
desuneko-65-plate-single-layout v5_0
100
AcDbCircle
 10
17.795
 20
-3.5075
 30
0.0
 40
0.0499999999999998
100
AcDbArc
 50
270.0
 51
0.0
  0
LINE
  5
127
330
70
100
AcDbEntity
  8
desuneko-65-plate-single-layout v5_0
100
AcDbLine
 10
6.97
 20
-2.1575
 30
0.0
 11
8.270000000000001
 21
-2.1575
 31
0.0
  0
LINE
  5
128
330
70
100
AcDbEntity
  8
desuneko-65-plate-single-layout v5_0
100
AcDbLine
 10
5.015
 20
-2.2075
 30
0.0
 11
5.015
 21
-3.5075
 31
0.0
  0
LINE
  5
129
330
70
100
AcDbEntity
  8
desuneko-65-plate-single-layout v5_0
100
AcDbLine
 10
23.56
 20
-2.2075
 30
0.0
 11
23.56
 21
-3.5075
 31
0.0
  0
LINE
  5
12A
330
70
100
AcDbEntity
  8
desuneko-65-plate-single-layout v5_0
100
AcDbLine
 10
25.1762
 20
-1.8525
 30
0.0
 11
25.7762
 21
-1.8525
 31
0.0
  0
ARC
  5
12B
330
70
100
AcDbEntity
  8
desuneko-65-plate-single-layout v5_0
100
AcDbCircle
 10
10.175
 20
-3.5075
 30
0.0
 40
0.0499999999999998
100
AcDbArc
 50
270.0
 51
0.0
  0
ARC
  5
12C
330
70
100
AcDbEntity
  8
desuneko-65-plate-single-layout v5_0
100
AcDbCircle
 10
25.415
 20
-3.5075
 30
0.0
 40
0.0499999999999998
100
AcDbArc
 50
270.0
 51
0.0
  0
ARC
  5
12D
330
70
100
AcDbEntity
  8
desuneko-65-plate-single-layout v5_0
100
AcDbCircle
 10
15.89
 20
-3.5075
 30
0.0
 40
0.0499999999999998
100
AcDbArc
 50
270.0
 51
0.0
  0
LINE
  5
12E
330
70
100
AcDbEntity
  8
desuneko-65-plate-single-layout v5_0
100
AcDbLine
 10
6.92
 20
-2.2075
 30
0.0
 11
6.92
 21
-3.5075
 31
0.0
  0
ARC
  5
12F
330
70
100
AcDbEntity
  8
desuneko-65-plate-single-layout v5_0
100
AcDbCircle
 10
24.115
 20
-3.5075
 30
0.0
 40
0.0500000000000007
100
AcDbArc
 50
180.0
 51
270.0
  0
ARC
  5
130
330
70
100
AcDbEntity
  8
desuneko-65-plate-single-layout v5_0
100
AcDbCircle
 10
13.985
 20
-2.2075
 30
0.0
 40
0.0500000000000007
100
AcDbArc
 50
0.0
 51
90.0
  0
ARC
  5
131
330
70
100
AcDbEntity
  8
desuneko-65-plate-single-layout v5_0
100
AcDbCircle
 10
3.16
 20
-3.5075
 30
0.0
 40
0.0499999999999998
100
AcDbArc
 50
180.0
 51
270.0
  0
ARC
  5
132
330
70
100
AcDbEntity
  8
desuneko-65-plate-single-layout v5_0
100
AcDbCircle
 10
0.7787500000000001
 20
-2.2075
 30
0.0
 40
0.0499999999999998
100
AcDbArc
 50
90.0
 51
180.0
  0
ARC
  5
133
330
70
100
AcDbEntity
  8
desuneko-65-plate-single-layout v5_0
100
AcDbCircle
 10
27.5638
 20
-1.8025
 30
0.0
 40
0.0500000000000007
100
AcDbArc
 50
180.0
 51
270.0
  0
ARC
  5
134
330
70
100
AcDbEntity
  8
desuneko-65-plate-single-layout v5_0
100
AcDbCircle
 10
27.5638
 20
-0.4025000000000001
 30
0.0
 40
0.05
100
AcDbArc
 50
90.0
 51
180.0
  0
LINE
  5
135
330
70
100
AcDbEntity
  8
desuneko-65-plate-single-layout v5_0
100
AcDbLine
 10
8.32
 20
-2.2075
 30
0.0
 11
8.320000000000002
 21
-3.5075
 31
0.0
  0
LINE
  5
136
330
70
100
AcDbEntity
  8
desuneko-65-plate-single-layout v5_0
100
AcDbLine
 10
8.875
 20
-2.1575
 30
0.0
 11
10.175
 21
-2.1575
 31
0.0
  0
ARC
  5
137
330
70
100
AcDbEntity
  8
desuneko-65-plate-single-layout v5_0
100
AcDbCircle
 10
3.16
 20
-2.2075
 30
0.0
 40
0.0499999999999998
100
AcDbArc
 50
90.0
 51
180.0
  0
ARC
  5
138
330
70
100
AcDbEntity
  8
desuneko-65-plate-single-layout v5_0
100
AcDbCircle
 10
0.7787500000000001
 20
-3.5075
 30
0.0
 40
0.0500000000000001
100
AcDbArc
 50
180.0
 51
270.0
  0
ARC
  5
139
330
70
100
AcDbEntity
  8
desuneko-65-plate-single-layout v5_0
100
AcDbCircle
 10
22.21
 20
-3.5075
 30
0.0
 40
0.0500000000000007
100
AcDbArc
 50
180.0
 51
270.0
  0
LINE
  5
13A
330
70
100
AcDbEntity
  8
desuneko-65-plate-single-layout v5_0
100
AcDbLine
 10
24.115
 20
-3.5575
 30
0.0
 11
25.415
 21
-3.5575
 31
0.0
  0
LINE
  5
13B
330
70
100
AcDbEntity
  8
desuneko-65-plate-single-layout v5_0
100
AcDbLine
 10
24.065
 20
-2.2075
 30
0.0
 11
24.065
 21
-3.5075
 31
0.0
  0
LINE
  5
13C
330
70
100
AcDbEntity
  8
desuneko-65-plate-single-layout v5_0
100
AcDbLine
 10
28.2138
 20
-0.4025000000000001
 30
0.0
 11
28.2138
 21
-1.8025
 31
0.0
  0
LINE
  5
13D
330
70
100
AcDbEntity
  8
desuneko-65-plate-single-layout v5_0
100
AcDbLine
 10
12.13
 20
-2.2075
 30
0.0
 11
12.13
 21
-3.5075
 31
0.0
  0
ARC
  5
13E
330
70
100
AcDbEntity
  8
desuneko-65-plate-single-layout v5_0
100
AcDbCircle
 10
25.7762
 20
-0.4025000000000001
 30
0.0
 40
0.0500000000000007
100
AcDbArc
 50
0.0
 51
90.0
  0
LINE
  5
13F
330
70
100
AcDbEntity
  8
desuneko-65-plate-single-layout v5_0
100
AcDbLine
 10
0.7787500000000001
 20
-3.5575
 30
0.0
 11
2.07875
 21
-3.5575
 31
0.0
  0
ARC
  5
140
330
70
100
AcDbEntity
  8
desuneko-65-plate-single-layout v5_0
100
AcDbCircle
 10
28.1638
 20
-0.4025000000000001
 30
0.0
 40
0.0500000000000007
100
AcDbArc
 50
0.0
 51
90.0
  0
ARC
  5
141
330
70
100
AcDbEntity
  8
desuneko-65-plate-single-layout v5_0
100
AcDbCircle
 10
18.4
 20
-3.5075
 30
0.0
 40
0.0500000000000007
100
AcDbArc
 50
180.0
 51
270.0
  0
ARC
  5
142
330
70
100
AcDbEntity
  8
desuneko-65-plate-single-layout v5_0
100
AcDbCircle
 10
21.605
 20
-2.2075
 30
0.0
 40
0.0500000000000007
100
AcDbArc
 50
0.0
 51
90.0
  0
ARC
  5
143
330
70
100
AcDbEntity
  8
desuneko-65-plate-single-layout v5_0
100
AcDbCircle
 10
13.985
 20
-3.5075
 30
0.0
 40
0.0499999999999998
100
AcDbArc
 50
270.0
 51
0.0
  0
LINE
  5
144
330
70
100
AcDbEntity
  8
desuneko-65-plate-single-layout v5_0
100
AcDbLine
 10
6.415
 20
-2.2075
 30
0.0
 11
6.415
 21
-3.5075
 31
0.0
  0
ARC
  5
145
330
70
100
AcDbEntity
  8
desuneko-65-plate-single-layout v5_0
100
AcDbCircle
 10
28.8775
 20
-0.3025
 30
0.0
 40
0.05
100
AcDbArc
 50
90.0
 51
180.0
  0
ARC
  5
146
330
70
100
AcDbEntity
  8
desuneko-65-plate-single-layout v5_0
100
AcDbCircle
 10
2.07875
 20
-3.5075
 30
0.0
 40
0.0499999999999998
100
AcDbArc
 50
270.0
 51
0.0
  0
LINE
  5
147
330
70
100
AcDbEntity
  8
desuneko-65-plate-single-layout v5_0
100
AcDbLine
 10
18.35
 20
-2.2075
 30
0.0
 11
18.35
 21
-3.5075
 31
0.0
  0
ARC
  5
148
330
70
100
AcDbEntity
  8
desuneko-65-plate-single-layout v5_0
100
AcDbCircle
 10
20.305
 20
-3.5075
 30
0.0
 40
0.0500000000000007
100
AcDbArc
 50
180.0
 51
270.0
  0
LINE
  5
149
330
70
100
AcDbEntity
  8
desuneko-65-plate-single-layout v5_0
100
AcDbLine
 10
28.8275
 20
-2.2075
 30
0.0
 11
28.8275
 21
-3.5075
 31
0.0
  0
LINE
  5
14A
330
70
100
AcDbEntity
  8
desuneko-65-plate-single-layout v5_0
100
AcDbLine
 10
18.4
 20
-3.5575
 30
0.0
 11
19.7
 21
-3.5575
 31
0.0
  0
LINE
  5
14B
330
70
100
AcDbEntity
  8
desuneko-65-plate-single-layout v5_0
100
AcDbLine
 10
12.60625
 20
-4.112499999999999
 30
0.0
 11
12.60625
 21
-5.4125
 31
0.0
  0
LINE
  5
14C
330
70
100
AcDbEntity
  8
desuneko-65-plate-single-layout v5_0
100
AcDbLine
 10
20.255
 20
-2.2075
 30
0.0
 11
20.255
 21
-3.5075
 31
0.0
  0
ARC
  5
14D
330
70
100
AcDbEntity
  8
desuneko-65-plate-single-layout v5_0
100
AcDbCircle
 10
16.495
 20
-3.5075
 30
0.0
 40
0.0500000000000007
100
AcDbArc
 50
180.0
 51
270.0
  0
LINE
  5
14E
330
70
100
AcDbEntity
  8
desuneko-65-plate-single-layout v5_0
100
AcDbLine
 10
22.21
 20
-3.5575
 30
0.0
 11
23.51
 21
-3.5575
 31
0.0
  0
LINE
  5
14F
330
70
100
AcDbEntity
  8
desuneko-65-plate-single-layout v5_0
100
AcDbLine
 10
1.016875
 20
-5.4625
 30
0.0
 11
2.316875
 21
-5.4625
 31
0.0
  0
ARC
  5
150
330
70
100
AcDbEntity
  8
desuneko-65-plate-single-layout v5_0
100
AcDbCircle
 10
14.59
 20
-2.2075
 30
0.0
 40
0.0499999999999998
100
AcDbArc
 50
90.0
 51
180.0
  0
LINE
  5
151
330
70
100
AcDbEntity
  8
desuneko-65-plate-single-layout v5_0
100
AcDbLine
 10
20.305
 20
-3.5575
 30
0.0
 11
21.605
 21
-3.5575
 31
0.0
  0
LINE
  5
152
330
70
100
AcDbEntity
  8
desuneko-65-plate-single-layout v5_0
100
AcDbLine
 10
10.78
 20
-3.5575
 30
0.0
 11
12.08
 21
-3.5575
 31
0.0
  0
ARC
  5
153
330
70
100
AcDbEntity
  8
desuneko-65-plate-single-layout v5_0
100
AcDbCircle
 10
10.65125
 20
-4.112499999999999
 30
0.0
 40
0.0500000000000007
100
AcDbArc
 50
0.0
 51
90.0
  0
LINE
  5
154
330
70
100
AcDbEntity
  8
desuneko-65-plate-single-layout v5_0
100
AcDbLine
 10
20.305
 20
-2.1575
 30
0.0
 11
21.605
 21
-2.1575
 31
0.0
  0
ARC
  5
155
330
70
100
AcDbEntity
  8
desuneko-65-plate-single-layout v5_0
100
AcDbCircle
 10
20.305
 20
-2.2075
 30
0.0
 40
0.0499999999999998
100
AcDbArc
 50
90.0
 51
180.0
  0
LINE
  5
156
330
70
100
AcDbEntity
  8
desuneko-65-plate-single-layout v5_0
100
AcDbLine
 10
8.796250000000002
 20
-4.112499999999999
 30
0.0
 11
8.796250000000002
 21
-5.4125
 31
0.0
  0
ARC
  5
157
330
70
100
AcDbEntity
  8
desuneko-65-plate-single-layout v5_0
100
AcDbCircle
 10
10.78
 20
-3.5075
 30
0.0
 40
0.0500000000000007
100
AcDbArc
 50
180.0
 51
270.0
  0
LINE
  5
158
330
70
100
AcDbEntity
  8
desuneko-65-plate-single-layout v5_0
100
AcDbLine
 10
27.131875
 20
-4.112499999999999
 30
0.0
 11
27.131875
 21
-5.4125
 31
0.0
  0
ARC
  5
159
330
70
100
AcDbEntity
  8
desuneko-65-plate-single-layout v5_0
100
AcDbCircle
 10
12.08
 20
-2.2075
 30
0.0
 40
0.0500000000000007
100
AcDbArc
 50
0.0
 51
90.0
  0
LINE
  5
15A
330
70
100
AcDbEntity
  8
desuneko-65-plate-single-layout v5_0
100
AcDbLine
 10
21.65500000000001
 20
-2.2075
 30
0.0
 11
21.65500000000001
 21
-3.5075
 31
0.0
  0
LINE
  5
15B
330
70
100
AcDbEntity
  8
desuneko-65-plate-single-layout v5_0
100
AcDbLine
 10
22.16
 20
-2.2075
 30
0.0
 11
22.16
 21
-3.5075
 31
0.0
  0
LINE
  5
15C
330
70
100
AcDbEntity
  8
desuneko-65-plate-single-layout v5_0
100
AcDbLine
 10
11.25625
 20
-5.4625
 30
0.0
 11
12.55625
 21
-5.4625
 31
0.0
  0
LINE
  5
15D
330
70
100
AcDbEntity
  8
desuneko-65-plate-single-layout v5_0
100
AcDbLine
 10
25.465
 20
-2.2075
 30
0.0
 11
25.465
 21
-3.5075
 31
0.0
  0
ARC
  5
15E
330
70
100
AcDbEntity
  8
desuneko-65-plate-single-layout v5_0
100
AcDbCircle
 10
1.016875
 20
-4.112499999999999
 30
0.0
 40
0.0499999999999998
100
AcDbArc
 50
90.0
 51
180.0
  0
ARC
  5
15F
330
70
100
AcDbEntity
  8
desuneko-65-plate-single-layout v5_0
100
AcDbCircle
 10
16.97125
 20
-4.112499999999999
 30
0.0
 40
0.0499999999999998
100
AcDbArc
 50
90.0
 51
180.0
  0
ARC
  5
160
330
70
100
AcDbEntity
  8
desuneko-65-plate-single-layout v5_0
100
AcDbCircle
 10
22.21
 20
-2.2075
 30
0.0
 40
0.0499999999999998
100
AcDbArc
 50
90.0
 51
180.0
  0
LINE
  5
161
330
70
100
AcDbEntity
  8
desuneko-65-plate-single-layout v5_0
100
AcDbLine
 10
5.54125
 20
-4.0625
 30
0.0
 11
6.841249999999999
 21
-4.0625
 31
0.0
  0
LINE
  5
162
330
70
100
AcDbEntity
  8
desuneko-65-plate-single-layout v5_0
100
AcDbLine
 10
7.396250000000001
 20
-4.112499999999999
 30
0.0
 11
7.396250000000001
 21
-5.4125
 31
0.0
  0
ARC
  5
163
330
70
100
AcDbEntity
  8
desuneko-65-plate-single-layout v5_0
100
AcDbCircle
 10
12.08
 20
-3.5075
 30
0.0
 40
0.0499999999999998
100
AcDbArc
 50
270.0
 51
0.0
  0
LINE
  5
164
330
70
100
AcDbEntity
  8
desuneko-65-plate-single-layout v5_0
100
AcDbLine
 10
11.25625
 20
-4.0625
 30
0.0
 11
12.55625
 21
-4.0625
 31
0.0
  0
LINE
  5
165
330
70
100
AcDbEntity
  8
desuneko-65-plate-single-layout v5_0
100
AcDbLine
 10
16.495
 20
-3.5575
 30
0.0
 11
17.795
 21
-3.5575
 31
0.0
  0
ARC
  5
166
330
70
100
AcDbEntity
  8
desuneko-65-plate-single-layout v5_0
100
AcDbCircle
 10
17.795
 20
-2.2075
 30
0.0
 40
0.0500000000000007
100
AcDbArc
 50
0.0
 51
90.0
  0
ARC
  5
167
330
70
100
AcDbEntity
  8
desuneko-65-plate-single-layout v5_0
100
AcDbCircle
 10
14.59
 20
-3.5075
 30
0.0
 40
0.0500000000000007
100
AcDbArc
 50
180.0
 51
270.0
  0
ARC
  5
168
330
70
100
AcDbEntity
  8
desuneko-65-plate-single-layout v5_0
100
AcDbCircle
 10
28.8775
 20
-3.5075
 30
0.0
 40
0.0500000000000007
100
AcDbArc
 50
180.0
 51
270.0
  0
LINE
  5
169
330
70
100
AcDbEntity
  8
desuneko-65-plate-single-layout v5_0
100
AcDbLine
 10
9.35125
 20
-5.4625
 30
0.0
 11
10.65125
 21
-5.4625
 31
0.0
  0
LINE
  5
16A
330
70
100
AcDbEntity
  8
desuneko-65-plate-single-layout v5_0
100
AcDbLine
 10
10.78
 20
-2.1575
 30
0.0
 11
12.08
 21
-2.1575
 31
0.0
  0
ARC
  5
16B
330
70
100
AcDbEntity
  8
desuneko-65-plate-single-layout v5_0
100
AcDbCircle
 10
14.46125
 20
-5.4125
 30
0.0
 40
0.0499999999999998
100
AcDbArc
 50
270.0
 51
0.0
  0
LINE
  5
16C
330
70
100
AcDbEntity
  8
desuneko-65-plate-single-layout v5_0
100
AcDbLine
 10
10.73
 20
-2.2075
 30
0.0
 11
10.73
 21
-3.5075
 31
0.0
  0
LINE
  5
16D
330
70
100
AcDbEntity
  8
desuneko-65-plate-single-layout v5_0
100
AcDbLine
 10
27.84625
 20
-2.2075
 30
0.0
 11
27.84625
 21
-3.5075
 31
0.0
  0
LINE
  5
16E
330
70
100
AcDbEntity
  8
desuneko-65-plate-single-layout v5_0
100
AcDbLine
 10
14.59
 20
-3.5575
 30
0.0
 11
15.89
 21
-3.5575
 31
0.0
  0
ARC
  5
16F
330
70
100
AcDbEntity
  8
desuneko-65-plate-single-layout v5_0
100
AcDbCircle
 10
26.49625
 20
-2.2075
 30
0.0
 40
0.0499999999999998
100
AcDbArc
 50
90.0
 51
180.0
  0
ARC
  5
170
330
70
100
AcDbEntity
  8
desuneko-65-plate-single-layout v5_0
100
AcDbCircle
 10
23.51
 20
-3.5075
 30
0.0
 40
0.0499999999999998
100
AcDbArc
 50
270.0
 51
0.0
  0
LINE
  5
171
330
70
100
AcDbEntity
  8
desuneko-65-plate-single-layout v5_0
100
AcDbLine
 10
30.2275
 20
-2.2075
 30
0.0
 11
30.2275
 21
-3.5075
 31
0.0
  0
ARC
  5
172
330
70
100
AcDbEntity
  8
desuneko-65-plate-single-layout v5_0
100
AcDbCircle
 10
4.93625
 20
-4.112499999999999
 30
0.0
 40
0.0499999999999998
100
AcDbArc
 50
0.0
 51
90.0
  0
LINE
  5
173
330
70
100
AcDbEntity
  8
desuneko-65-plate-single-layout v5_0
100
AcDbLine
 10
1.016875
 20
-4.0625
 30
0.0
 11
2.316875
 21
-4.0625
 31
0.0
  0
LINE
  5
174
330
70
100
AcDbEntity
  8
desuneko-65-plate-single-layout v5_0
100
AcDbLine
 10
15.94
 20
-2.2075
 30
0.0
 11
15.94
 21
-3.5075
 31
0.0
  0
LINE
  5
175
330
70
100
AcDbEntity
  8
desuneko-65-plate-single-layout v5_0
100
AcDbLine
 10
18.4
 20
-2.1575
 30
0.0
 11
19.7
 21
-2.1575
 31
0.0
  0
LINE
  5
176
330
70
100
AcDbEntity
  8
desuneko-65-plate-single-layout v5_0
100
AcDbLine
 10
16.495
 20
-2.1575
 30
0.0
 11
17.795
 21
-2.1575
 31
0.0
  0
ARC
  5
177
330
70
100
AcDbEntity
  8
desuneko-65-plate-single-layout v5_0
100
AcDbCircle
 10
3.636249999999999
 20
-4.112499999999999
 30
0.0
 40
0.0499999999999998
100
AcDbArc
 50
90.0
 51
180.0
  0
ARC
  5
178
330
70
100
AcDbEntity
  8
desuneko-65-plate-single-layout v5_0
100
AcDbCircle
 10
2.316875
 20
-4.112499999999999
 30
0.0
 40
0.0499999999999998
100
AcDbArc
 50
0.0
 51
90.0
  0
ARC
  5
179
330
70
100
AcDbEntity
  8
desuneko-65-plate-single-layout v5_0
100
AcDbCircle
 10
4.93625
 20
-5.4125
 30
0.0
 40
0.0499999999999998
100
AcDbArc
 50
270.0
 51
0.0
  0
LINE
  5
17A
330
70
100
AcDbEntity
  8
desuneko-65-plate-single-layout v5_0
100
AcDbLine
 10
2.366875
 20
-4.112499999999999
 30
0.0
 11
2.366875
 21
-5.4125
 31
0.0
  0
ARC
  5
17B
330
70
100
AcDbEntity
  8
desuneko-65-plate-single-layout v5_0
100
AcDbCircle
 10
24.115
 20
-2.2075
 30
0.0
 40
0.0499999999999998
100
AcDbArc
 50
90.0
 51
180.0
  0
ARC
  5
17C
330
70
100
AcDbEntity
  8
desuneko-65-plate-single-layout v5_0
100
AcDbCircle
 10
19.7
 20
-2.2075
 30
0.0
 40
0.0500000000000007
100
AcDbArc
 50
0.0
 51
90.0
  0
ARC
  5
17D
330
70
100
AcDbEntity
  8
desuneko-65-plate-single-layout v5_0
100
AcDbCircle
 10
9.35125
 20
-4.112499999999999
 30
0.0
 40
0.0499999999999998
100
AcDbArc
 50
90.0
 51
180.0
  0
ARC
  5
17E
330
70
100
AcDbEntity
  8
desuneko-65-plate-single-layout v5_0
100
AcDbCircle
 10
12.685
 20
-2.2075
 30
0.0
 40
0.0499999999999998
100
AcDbArc
 50
90.0
 51
180.0
  0
LINE
  5
17F
330
70
100
AcDbEntity
  8
desuneko-65-plate-single-layout v5_0
100
AcDbLine
 10
19.75
 20
-2.2075
 30
0.0
 11
19.75
 21
-3.5075
 31
0.0
  0
ARC
  5
180
330
70
100
AcDbEntity
  8
desuneko-65-plate-single-layout v5_0
100
AcDbCircle
 10
16.495
 20
-2.2075
 30
0.0
 40
0.0499999999999998
100
AcDbArc
 50
90.0
 51
180.0
  0
ARC
  5
181
330
70
100
AcDbEntity
  8
desuneko-65-plate-single-layout v5_0
100
AcDbCircle
 10
5.54125
 20
-4.112499999999999
 30
0.0
 40
0.0499999999999998
100
AcDbArc
 50
90.0
 51
180.0
  0
LINE
  5
182
330
70
100
AcDbEntity
  8
desuneko-65-plate-single-layout v5_0
100
AcDbLine
 10
17.845
 20
-2.2075
 30
0.0
 11
17.845
 21
-3.5075
 31
0.0
  0
ARC
  5
183
330
70
100
AcDbEntity
  8
desuneko-65-plate-single-layout v5_0
100
AcDbCircle
 10
1.016875
 20
-5.4125
 30
0.0
 40
0.0500000000000001
100
AcDbArc
 50
180.0
 51
270.0
  0
LINE
  5
184
330
70
100
AcDbEntity
  8
desuneko-65-plate-single-layout v5_0
100
AcDbLine
 10
10.70125
 20
-4.112499999999999
 30
0.0
 11
10.70125
 21
-5.4125
 31
0.0
  0
LINE
  5
185
330
70
100
AcDbEntity
  8
desuneko-65-plate-single-layout v5_0
100
AcDbLine
 10
28.8775
 20
-3.5575
 30
0.0
 11
30.1775
 21
-3.5575
 31
0.0
  0
LINE
  5
186
330
70
100
AcDbEntity
  8
desuneko-65-plate-single-layout v5_0
100
AcDbLine
 10
12.685
 20
-3.5575
 30
0.0
 11
13.985
 21
-3.5575
 31
0.0
  0
LINE
  5
187
330
70
100
AcDbEntity
  8
desuneko-65-plate-single-layout v5_0
100
AcDbLine
 10
22.21
 20
-2.1575
 30
0.0
 11
23.51
 21
-2.1575
 31
0.0
  0
ARC
  5
188
330
70
100
AcDbEntity
  8
desuneko-65-plate-single-layout v5_0
100
AcDbCircle
 10
15.06625
 20
-4.112499999999999
 30
0.0
 40
0.0499999999999998
100
AcDbArc
 50
90.0
 51
180.0
  0
LINE
  5
189
330
70
100
AcDbEntity
  8
desuneko-65-plate-single-layout v5_0
100
AcDbLine
 10
15.06625
 20
-5.4625
 30
0.0
 11
16.36625
 21
-5.4625
 31
0.0
  0
ARC
  5
18A
330
70
100
AcDbEntity
  8
desuneko-65-plate-single-layout v5_0
100
AcDbCircle
 10
28.8775
 20
-2.2075
 30
0.0
 40
0.0499999999999998
100
AcDbArc
 50
90.0
 51
180.0
  0
LINE
  5
18B
330
70
100
AcDbEntity
  8
desuneko-65-plate-single-layout v5_0
100
AcDbLine
 10
18.82625
 20
-4.112499999999999
 30
0.0
 11
18.82625
 21
-5.4125
 31
0.0
  0
LINE
  5
18C
330
70
100
AcDbEntity
  8
desuneko-65-plate-single-layout v5_0
100
AcDbLine
 10
15.01625
 20
-4.112499999999999
 30
0.0
 11
15.01625
 21
-5.4125
 31
0.0
  0
ARC
  5
18D
330
70
100
AcDbEntity
  8
desuneko-65-plate-single-layout v5_0
100
AcDbCircle
 10
3.636249999999999
 20
-5.4125
 30
0.0
 40
0.0499999999999998
100
AcDbArc
 50
180.0
 51
270.0
  0
ARC
  5
18E
330
70
100
AcDbEntity
  8
desuneko-65-plate-single-layout v5_0
100
AcDbCircle
 10
25.781875
 20
-5.4125
 30
0.0
 40
0.0500000000000007
100
AcDbArc
 50
180.0
 51
270.0
  0
ARC
  5
18F
330
70
100
AcDbEntity
  8
desuneko-65-plate-single-layout v5_0
100
AcDbCircle
 10
8.746250000000001
 20
-5.4125
 30
0.0
 40
0.0499999999999998
100
AcDbArc
 50
270.0
 51
0.0
  0
LINE
  5
190
330
70
100
AcDbEntity
  8
desuneko-65-plate-single-layout v5_0
100
AcDbLine
 10
20.22625
 20
-4.112499999999999
 30
0.0
 11
20.22625
 21
-5.4125
 31
0.0
  0
LINE
  5
191
330
70
100
AcDbEntity
  8
desuneko-65-plate-single-layout v5_0
100
AcDbLine
 10
25.781875
 20
-5.4625
 30
0.0
 11
27.08187500000001
 21
-5.4625
 31
0.0
  0
ARC
  5
192
330
70
100
AcDbEntity
  8
desuneko-65-plate-single-layout v5_0
100
AcDbCircle
 10
15.06625
 20
-5.4125
 30
0.0
 40
0.0500000000000007
100
AcDbArc
 50
180.0
 51
270.0
  0
ARC
  5
193
330
70
100
AcDbEntity
  8
desuneko-65-plate-single-layout v5_0
100
AcDbCircle
 10
11.25625
 20
-4.112499999999999
 30
0.0
 40
0.0499999999999998
100
AcDbArc
 50
90.0
 51
180.0
  0
ARC
  5
194
330
70
100
AcDbEntity
  8
desuneko-65-plate-single-layout v5_0
100
AcDbCircle
 10
30.1775
 20
-2.2075
 30
0.0
 40
0.0500000000000007
100
AcDbArc
 50
0.0
 51
90.0
  0
LINE
  5
195
330
70
100
AcDbEntity
  8
desuneko-65-plate-single-layout v5_0
100
AcDbLine
 10
7.446250000000002
 20
-5.4625
 30
0.0
 11
8.746250000000001
 21
-5.4625
 31
0.0
  0
LINE
  5
196
330
70
100
AcDbEntity
  8
desuneko-65-plate-single-layout v5_0
100
AcDbLine
 10
25.731875
 20
-4.112499999999999
 30
0.0
 11
25.731875
 21
-5.4125
 31
0.0
  0
LINE
  5
197
330
70
100
AcDbEntity
  8
desuneko-65-plate-single-layout v5_0
100
AcDbLine
 10
13.16125
 20
-4.0625
 30
0.0
 11
14.46125
 21
-4.0625
 31
0.0
  0
LINE
  5
198
330
70
100
AcDbEntity
  8
desuneko-65-plate-single-layout v5_0
100
AcDbLine
 10
27.975675
 20
-4.2125
 30
0.0
 11
27.975675
 21
-5.6125
 31
0.0
  0
ARC
  5
199
330
70
100
AcDbEntity
  8
desuneko-65-plate-single-layout v5_0
100
AcDbCircle
 10
27.925675
 20
-4.2125
 30
0.0
 40
0.0500000000000007
100
AcDbArc
 50
0.0
 51
90.0
  0
LINE
  5
19A
330
70
100
AcDbEntity
  8
desuneko-65-plate-single-layout v5_0
100
AcDbLine
 10
9.35125
 20
-4.0625
 30
0.0
 11
10.65125
 21
-4.0625
 31
0.0
  0
LINE
  5
19B
330
70
100
AcDbEntity
  8
desuneko-65-plate-single-layout v5_0
100
AcDbLine
 10
5.49125
 20
-4.112499999999999
 30
0.0
 11
5.49125
 21
-5.4125
 31
0.0
  0
ARC
  5
19C
330
70
100
AcDbEntity
  8
desuneko-65-plate-single-layout v5_0
100
AcDbCircle
 10
30.1775
 20
-3.5075
 30
0.0
 40
0.0499999999999998
100
AcDbArc
 50
270.0
 51
0.0
  0
LINE
  5
19D
330
70
100
AcDbEntity
  8
desuneko-65-plate-single-layout v5_0
100
AcDbLine
 10
0.9668750000000001
 20
-4.112499999999999
 30
0.0
 11
0.9668750000000001
 21
-5.4125
 31
0.0
  0
LINE
  5
19E
330
70
100
AcDbEntity
  8
desuneko-65-plate-single-layout v5_0
100
AcDbLine
 10
18.87625
 20
-5.4625
 30
0.0
 11
20.17625
 21
-5.4625
 31
0.0
  0
LINE
  5
19F
330
70
100
AcDbEntity
  8
desuneko-65-plate-single-layout v5_0
100
AcDbLine
 10
11.20625
 20
-4.112499999999999
 30
0.0
 11
11.20625
 21
-5.4125
 31
0.0
  0
ARC
  5
1A0
330
70
100
AcDbEntity
  8
desuneko-65-plate-single-layout v5_0
100
AcDbCircle
 10
9.35125
 20
-5.4125
 30
0.0
 40
0.0500000000000007
100
AcDbArc
 50
180.0
 51
270.0
  0
ARC
  5
1A1
330
70
100
AcDbEntity
  8
desuneko-65-plate-single-layout v5_0
100
AcDbCircle
 10
18.87625
 20
-4.112499999999999
 30
0.0
 40
0.0499999999999998
100
AcDbArc
 50
90.0
 51
180.0
  0
ARC
  5
1A2
330
70
100
AcDbEntity
  8
desuneko-65-plate-single-layout v5_0
100
AcDbCircle
 10
16.36625
 20
-5.4125
 30
0.0
 40
0.0499999999999998
100
AcDbArc
 50
270.0
 51
0.0
  0
LINE
  5
1A3
330
70
100
AcDbEntity
  8
desuneko-65-plate-single-layout v5_0
100
AcDbLine
 10
6.891249999999999
 20
-4.112499999999999
 30
0.0
 11
6.891249999999999
 21
-5.4125
 31
0.0
  0
ARC
  5
1A4
330
70
100
AcDbEntity
  8
desuneko-65-plate-single-layout v5_0
100
AcDbCircle
 10
26.49625
 20
-3.5075
 30
0.0
 40
0.0500000000000007
100
AcDbArc
 50
180.0
 51
270.0
  0
LINE
  5
1A5
330
70
100
AcDbEntity
  8
desuneko-65-plate-single-layout v5_0
100
AcDbLine
 10
4.98625
 20
-4.112499999999999
 30
0.0
 11
4.98625
 21
-5.4125
 31
0.0
  0
ARC
  5
1A6
330
70
100
AcDbEntity
  8
desuneko-65-plate-single-layout v5_0
100
AcDbCircle
 10
10.65125
 20
-5.4125
 30
0.0
 40
0.0499999999999998
100
AcDbArc
 50
270.0
 51
0.0
  0
LINE
  5
1A7
330
70
100
AcDbEntity
  8
desuneko-65-plate-single-layout v5_0
100
AcDbLine
 10
20.78125
 20
-4.0625
 30
0.0
 11
22.08125
 21
-4.0625
 31
0.0
  0
ARC
  5
1A8
330
70
100
AcDbEntity
  8
desuneko-65-plate-single-layout v5_0
100
AcDbCircle
 10
2.316875
 20
-5.4125
 30
0.0
 40
0.0499999999999998
100
AcDbArc
 50
270.0
 51
0.0
  0
ARC
  5
1A9
330
70
100
AcDbEntity
  8
desuneko-65-plate-single-layout v5_0
100
AcDbCircle
 10
27.79625
 20
-3.5075
 30
0.0
 40
0.0499999999999998
100
AcDbArc
 50
270.0
 51
0.0
  0
ARC
  5
1AA
330
70
100
AcDbEntity
  8
desuneko-65-plate-single-layout v5_0
100
AcDbCircle
 10
27.79625
 20
-2.2075
 30
0.0
 40
0.0500000000000007
100
AcDbArc
 50
0.0
 51
90.0
  0
ARC
  5
1AB
330
70
100
AcDbEntity
  8
desuneko-65-plate-single-layout v5_0
100
AcDbCircle
 10
14.46125
 20
-4.112499999999999
 30
0.0
 40
0.0500000000000007
100
AcDbArc
 50
0.0
 51
90.0
  0
LINE
  5
1AC
330
70
100
AcDbEntity
  8
desuneko-65-plate-single-layout v5_0
100
AcDbLine
 10
3.636249999999999
 20
-4.0625
 30
0.0
 11
4.93625
 21
-4.0625
 31
0.0
  0
LINE
  5
1AD
330
70
100
AcDbEntity
  8
desuneko-65-plate-single-layout v5_0
100
AcDbLine
 10
26.49625
 20
-2.1575
 30
0.0
 11
27.79625
 21
-2.1575
 31
0.0
  0
ARC
  5
1AE
330
70
100
AcDbEntity
  8
desuneko-65-plate-single-layout v5_0
100
AcDbCircle
 10
13.16125
 20
-5.4125
 30
0.0
 40
0.0500000000000007
100
AcDbArc
 50
180.0
 51
270.0
  0
LINE
  5
1AF
330
70
100
AcDbEntity
  8
desuneko-65-plate-single-layout v5_0
100
AcDbLine
 10
20.78125
 20
-5.4625
 30
0.0
 11
22.08125
 21
-5.4625
 31
0.0
  0
ARC
  5
1B0
330
70
100
AcDbEntity
  8
desuneko-65-plate-single-layout v5_0
100
AcDbCircle
 10
18.27125
 20
-4.112499999999999
 30
0.0
 40
0.0500000000000007
100
AcDbArc
 50
0.0
 51
90.0
  0
ARC
  5
1B1
330
70
100
AcDbEntity
  8
desuneko-65-plate-single-layout v5_0
100
AcDbCircle
 10
20.78125
 20
-5.4125
 30
0.0
 40
0.0500000000000007
100
AcDbArc
 50
180.0
 51
270.0
  0
LINE
  5
1B2
330
70
100
AcDbEntity
  8
desuneko-65-plate-single-layout v5_0
100
AcDbLine
 10
16.97125
 20
-5.4625
 30
0.0
 11
18.27125
 21
-5.4625
 31
0.0
  0
ARC
  5
1B3
330
70
100
AcDbEntity
  8
desuneko-65-plate-single-layout v5_0
100
AcDbCircle
 10
12.55625
 20
-4.112499999999999
 30
0.0
 40
0.0500000000000007
100
AcDbArc
 50
0.0
 51
90.0
  0
ARC
  5
1B4
330
70
100
AcDbEntity
  8
desuneko-65-plate-single-layout v5_0
100
AcDbCircle
 10
6.841249999999999
 20
-4.112499999999999
 30
0.0
 40
0.0499999999999998
100
AcDbArc
 50
0.0
 51
90.0
  0
ARC
  5
1B5
330
70
100
AcDbEntity
  8
desuneko-65-plate-single-layout v5_0
100
AcDbCircle
 10
8.746250000000001
 20
-4.112499999999999
 30
0.0
 40
0.0500000000000007
100
AcDbArc
 50
0.0
 51
90.0
  0
ARC
  5
1B6
330
70
100
AcDbEntity
  8
desuneko-65-plate-single-layout v5_0
100
AcDbCircle
 10
5.54125
 20
-5.4125
 30
0.0
 40
0.0499999999999998
100
AcDbArc
 50
180.0
 51
270.0
  0
ARC
  5
1B7
330
70
100
AcDbEntity
  8
desuneko-65-plate-single-layout v5_0
100
AcDbCircle
 10
12.55625
 20
-5.4125
 30
0.0
 40
0.0499999999999998
100
AcDbArc
 50
270.0
 51
0.0
  0
ARC
  5
1B8
330
70
100
AcDbEntity
  8
desuneko-65-plate-single-layout v5_0
100
AcDbCircle
 10
7.446250000000002
 20
-4.112499999999999
 30
0.0
 40
0.0499999999999998
100
AcDbArc
 50
90.0
 51
180.0
  0
LINE
  5
1B9
330
70
100
AcDbEntity
  8
desuneko-65-plate-single-layout v5_0
100
AcDbLine
 10
26.44625
 20
-2.2075
 30
0.0
 11
26.44625
 21
-3.5075
 31
0.0
  0
LINE
  5
1BA
330
70
100
AcDbEntity
  8
desuneko-65-plate-single-layout v5_0
100
AcDbLine
 10
3.636249999999999
 20
-5.4625
 30
0.0
 11
4.93625
 21
-5.4625
 31
0.0
  0
LINE
  5
1BB
330
70
100
AcDbEntity
  8
desuneko-65-plate-single-layout v5_0
100
AcDbLine
 10
13.16125
 20
-5.4625
 30
0.0
 11
14.46125
 21
-5.4625
 31
0.0
  0
ARC
  5
1BC
330
70
100
AcDbEntity
  8
desuneko-65-plate-single-layout v5_0
100
AcDbCircle
 10
20.17625
 20
-4.112499999999999
 30
0.0
 40
0.0500000000000007
100
AcDbArc
 50
0.0
 51
90.0
  0
LINE
  5
1BD
330
70
100
AcDbEntity
  8
desuneko-65-plate-single-layout v5_0
100
AcDbLine
 10
3.58625
 20
-4.112499999999999
 30
0.0
 11
3.58625
 21
-5.4125
 31
0.0
  0
LINE
  5
1BE
330
70
100
AcDbEntity
  8
desuneko-65-plate-single-layout v5_0
100
AcDbLine
 10
26.49625
 20
-3.5575
 30
0.0
 11
27.79625
 21
-3.5575
 31
0.0
  0
ARC
  5
1BF
330
70
100
AcDbEntity
  8
desuneko-65-plate-single-layout v5_0
100
AcDbCircle
 10
6.841249999999999
 20
-5.4125
 30
0.0
 40
0.0499999999999998
100
AcDbArc
 50
270.0
 51
0.0
  0
ARC
  5
1C0
330
70
100
AcDbEntity
  8
desuneko-65-plate-single-layout v5_0
100
AcDbCircle
 10
11.25625
 20
-5.4125
 30
0.0
 40
0.0500000000000007
100
AcDbArc
 50
180.0
 51
270.0
  0
ARC
  5
1C1
330
70
100
AcDbEntity
  8
desuneko-65-plate-single-layout v5_0
100
AcDbCircle
 10
25.781875
 20
-4.112499999999999
 30
0.0
 40
0.0499999999999998
100
AcDbArc
 50
90.0
 51
180.0
  0
LINE
  5
1C2
330
70
100
AcDbEntity
  8
desuneko-65-plate-single-layout v5_0
100
AcDbLine
 10
9.301249999999999
 20
-4.112499999999999
 30
0.0
 11
9.301250000000001
 21
-5.4125
 31
0.0
  0
ARC
  5
1C3
330
70
100
AcDbEntity
  8
desuneko-65-plate-single-layout v5_0
100
AcDbCircle
 10
22.68625
 20
-5.4125
 30
0.0
 40
0.0500000000000007
100
AcDbArc
 50
180.0
 51
270.0
  0
LINE
  5
1C4
330
70
100
AcDbEntity
  8
desuneko-65-plate-single-layout v5_0
100
AcDbLine
 10
5.54125
 20
-5.4625
 30
0.0
 11
6.841249999999999
 21
-5.4625
 31
0.0
  0
LINE
  5
1C5
330
70
100
AcDbEntity
  8
desuneko-65-plate-single-layout v5_0
100
AcDbLine
 10
28.8775
 20
-2.1575
 30
0.0
 11
30.1775
 21
-2.1575
 31
0.0
  0
LINE
  5
1C6
330
70
100
AcDbEntity
  8
desuneko-65-plate-single-layout v5_0
100
AcDbLine
 10
7.446250000000002
 20
-4.0625
 30
0.0
 11
8.746250000000001
 21
-4.0625
 31
0.0
  0
ARC
  5
1C7
330
70
100
AcDbEntity
  8
desuneko-65-plate-single-layout v5_0
100
AcDbCircle
 10
7.446250000000002
 20
-5.4125
 30
0.0
 40
0.0499999999999998
100
AcDbArc
 50
180.0
 51
270.0
  0
LINE
  5
1C8
330
70
100
AcDbEntity
  8
desuneko-65-plate-single-layout v5_0
100
AcDbLine
 10
16.92125
 20
-4.112499999999999
 30
0.0
 11
16.92125
 21
-5.4125
 31
0.0
  0
LINE
  5
1C9
330
70
100
AcDbEntity
  8
desuneko-65-plate-single-layout v5_0
100
AcDbLine
 10
20.73125
 20
-4.112499999999999
 30
0.0
 11
20.73125
 21
-5.4125
 31
0.0
  0
LINE
  5
1CA
330
70
100
AcDbEntity
  8
desuneko-65-plate-single-layout v5_0
100
AcDbLine
 10
15.06625
 20
-4.0625
 30
0.0
 11
16.36625
 21
-4.0625
 31
0.0
  0
ARC
  5
1CB
330
70
100
AcDbEntity
  8
desuneko-65-plate-single-layout v5_0
100
AcDbCircle
 10
27.325675
 20
-4.2125
 30
0.0
 40
0.0499999999999998
100
AcDbArc
 50
90.0
 51
180.0
  0
ARC
  5
1CC
330
70
100
AcDbEntity
  8
desuneko-65-plate-single-layout v5_0
100
AcDbCircle
 10
25.538075
 20
-4.2125
 30
0.0
 40
0.0500000000000007
100
AcDbArc
 50
0.0
 51
90.0
  0
ARC
  5
1CD
330
70
100
AcDbEntity
  8
desuneko-65-plate-single-layout v5_0
100
AcDbCircle
 10
27.325675
 20
-5.6125
 30
0.0
 40
0.0500000000000007
100
AcDbArc
 50
180.0
 51
270.0
  0
LINE
  5
1CE
330
70
100
AcDbEntity
  8
desuneko-65-plate-single-layout v5_0
100
AcDbLine
 10
27.325675
 20
-5.6625
 30
0.0
 11
27.925675
 21
-5.6625
 31
0.0
  0
LINE
  5
1CF
330
70
100
AcDbEntity
  8
desuneko-65-plate-single-layout v5_0
100
AcDbLine
 10
22.63625000000001
 20
-4.112499999999999
 30
0.0
 11
22.63625
 21
-5.4125
 31
0.0
  0
LINE
  5
1D0
330
70
100
AcDbEntity
  8
desuneko-65-plate-single-layout v5_0
100
AcDbLine
 10
25.781875
 20
-4.0625
 30
0.0
 11
27.08187500000001
 21
-4.0625
 31
0.0
  0
LINE
  5
1D1
330
70
100
AcDbEntity
  8
desuneko-65-plate-single-layout v5_0
100
AcDbLine
 10
18.32125
 20
-4.112499999999999
 30
0.0
 11
18.32125
 21
-5.4125
 31
0.0
  0
ARC
  5
1D2
330
70
100
AcDbEntity
  8
desuneko-65-plate-single-layout v5_0
100
AcDbCircle
 10
0.6493250000000001
 20
-7.5175
 30
0.0
 40
0.0500000000000001
100
AcDbArc
 50
180.0
 51
270.0
  0
LINE
  5
1D3
330
70
100
AcDbEntity
  8
desuneko-65-plate-single-layout v5_0
100
AcDbLine
 10
6.49375
 20
-7.367499999999999
 30
0.0
 11
7.79375
 21
-7.367499999999999
 31
0.0
  0
LINE
  5
1D4
330
70
100
AcDbEntity
  8
desuneko-65-plate-single-layout v5_0
100
AcDbLine
 10
24.888075
 20
-4.2125
 30
0.0
 11
24.888075
 21
-5.6125
 31
0.0
  0
ARC
  5
1D5
330
70
100
AcDbEntity
  8
desuneko-65-plate-single-layout v5_0
100
AcDbCircle
 10
23.98625
 20
-4.112499999999999
 30
0.0
 40
0.0500000000000007
100
AcDbArc
 50
0.0
 51
90.0
  0
ARC
  5
1D6
330
70
100
AcDbEntity
  8
desuneko-65-plate-single-layout v5_0
100
AcDbCircle
 10
6.49375
 20
-6.0175
 30
0.0
 40
0.0499999999999998
100
AcDbArc
 50
90.0
 51
180.0
  0
ARC
  5
1D7
330
70
100
AcDbEntity
  8
desuneko-65-plate-single-layout v5_0
100
AcDbCircle
 10
9.69875
 20
-6.0175
 30
0.0
 40
0.0500000000000007
100
AcDbArc
 50
0.0
 51
90.0
  0
ARC
  5
1D8
330
70
100
AcDbEntity
  8
desuneko-65-plate-single-layout v5_0
100
AcDbCircle
 10
4.58875
 20
-6.0175
 30
0.0
 40
0.0499999999999998
100
AcDbArc
 50
90.0
 51
180.0
  0
ARC
  5
1D9
330
70
100
AcDbEntity
  8
desuneko-65-plate-single-layout v5_0
100
AcDbCircle
 10
30.1775
 20
-5.4125
 30
0.0
 40
0.0499999999999998
100
AcDbArc
 50
270.0
 51
0.0
  0
LINE
  5
1DA
330
70
100
AcDbEntity
  8
desuneko-65-plate-single-layout v5_0
100
AcDbLine
 10
9.748750000000001
 20
-6.0175
 30
0.0
 11
9.748750000000001
 21
-7.317499999999999
 31
0.0
  0
ARC
  5
1DB
330
70
100
AcDbEntity
  8
desuneko-65-plate-single-layout v5_0
100
AcDbCircle
 10
27.08187500000001
 20
-4.112499999999999
 30
0.0
 40
0.0500000000000007
100
AcDbArc
 50
0.0
 51
90.0
  0
ARC
  5
1DC
330
70
100
AcDbEntity
  8
desuneko-65-plate-single-layout v5_0
100
AcDbCircle
 10
16.97125
 20
-5.4125
 30
0.0
 40
0.0500000000000007
100
AcDbArc
 50
180.0
 51
270.0
  0
ARC
  5
1DD
330
70
100
AcDbEntity
  8
desuneko-65-plate-single-layout v5_0
100
AcDbCircle
 10
27.925675
 20
-5.6125
 30
0.0
 40
0.0499999999999998
100
AcDbArc
 50
270.0
 51
0.0
  0
ARC
  5
1DE
330
70
100
AcDbEntity
  8
desuneko-65-plate-single-layout v5_0
100
AcDbCircle
 10
18.27125
 20
-5.4125
 30
0.0
 40
0.0499999999999998
100
AcDbArc
 50
270.0
 51
0.0
  0
ARC
  5
1DF
330
70
100
AcDbEntity
  8
desuneko-65-plate-single-layout v5_0
100
AcDbCircle
 10
16.36625
 20
-4.112499999999999
 30
0.0
 40
0.0500000000000007
100
AcDbArc
 50
0.0
 51
90.0
  0
ARC
  5
1E0
330
70
100
AcDbEntity
  8
desuneko-65-plate-single-layout v5_0
100
AcDbCircle
 10
3.036925
 20
-7.5175
 30
0.0
 40
0.0499999999999998
100
AcDbArc
 50
180.0
 51
270.0
  0
LINE
  5
1E1
330
70
100
AcDbEntity
  8
desuneko-65-plate-single-layout v5_0
100
AcDbLine
 10
1.299325
 20
-6.117499999999999
 30
0.0
 11
1.299325
 21
-7.5175
 31
0.0
  0
LINE
  5
1E2
330
70
100
AcDbEntity
  8
desuneko-65-plate-single-layout v5_0
100
AcDbLine
 10
27.325675
 20
-4.1625
 30
0.0
 11
27.925675
 21
-4.1625
 31
0.0
  0
ARC
  5
1E3
330
70
100
AcDbEntity
  8
desuneko-65-plate-single-layout v5_0
100
AcDbCircle
 10
9.69875
 20
-7.317499999999999
 30
0.0
 40
0.0499999999999998
100
AcDbArc
 50
270.0
 51
0.0
  0
LINE
  5
1E4
330
70
100
AcDbEntity
  8
desuneko-65-plate-single-layout v5_0
100
AcDbLine
 10
28.8775
 20
-4.0625
 30
0.0
 11
30.1775
 21
-4.0625
 31
0.0
  0
LINE
  5
1E5
330
70
100
AcDbEntity
  8
desuneko-65-plate-single-layout v5_0
100
AcDbLine
 10
2.986925
 20
-6.117499999999999
 30
0.0
 11
2.986925
 21
-7.5175
 31
0.0
  0
LINE
  5
1E6
330
70
100
AcDbEntity
  8
desuneko-65-plate-single-layout v5_0
100
AcDbLine
 10
25.588075
 20
-4.2125
 30
0.0
 11
25.588075
 21
-5.6125
 31
0.0
  0
ARC
  5
1E7
330
70
100
AcDbEntity
  8
desuneko-65-plate-single-layout v5_0
100
AcDbCircle
 10
24.938075
 20
-5.6125
 30
0.0
 40
0.0500000000000007
100
AcDbArc
 50
180.0
 51
270.0
  0
LINE
  5
1E8
330
70
100
AcDbEntity
  8
desuneko-65-plate-single-layout v5_0
100
AcDbLine
 10
3.036925
 20
-7.567499999999999
 30
0.0
 11
3.636925
 21
-7.567499999999999
 31
0.0
  0
LINE
  5
1E9
330
70
100
AcDbEntity
  8
desuneko-65-plate-single-layout v5_0
100
AcDbLine
 10
16.97125
 20
-4.0625
 30
0.0
 11
18.27125
 21
-4.0625
 31
0.0
  0
ARC
  5
1EA
330
70
100
AcDbEntity
  8
desuneko-65-plate-single-layout v5_0
100
AcDbCircle
 10
25.538075
 20
-5.6125
 30
0.0
 40
0.0499999999999998
100
AcDbArc
 50
270.0
 51
0.0
  0
ARC
  5
1EB
330
70
100
AcDbEntity
  8
desuneko-65-plate-single-layout v5_0
100
AcDbCircle
 10
2.793124999999999
 20
-6.0175
 30
0.0
 40
0.0499999999999998
100
AcDbArc
 50
0.0
 51
90.0
  0
LINE
  5
1EC
330
70
100
AcDbEntity
  8
desuneko-65-plate-single-layout v5_0
100
AcDbLine
 10
24.03625
 20
-4.112499999999999
 30
0.0
 11
24.03625
 21
-5.4125
 31
0.0
  0
ARC
  5
1ED
330
70
100
AcDbEntity
  8
desuneko-65-plate-single-layout v5_0
100
AcDbCircle
 10
0.6493250000000001
 20
-6.117499999999999
 30
0.0
 40
0.0499999999999998
100
AcDbArc
 50
90.0
 51
180.0
  0
ARC
  5
1EE
330
70
100
AcDbEntity
  8
desuneko-65-plate-single-layout v5_0
100
AcDbCircle
 10
4.58875
 20
-7.317499999999999
 30
0.0
 40
0.0499999999999998
100
AcDbArc
 50
180.0
 51
270.0
  0
ARC
  5
1EF
330
70
100
AcDbEntity
  8
desuneko-65-plate-single-layout v5_0
100
AcDbCircle
 10
7.79375
 20
-7.317499999999999
 30
0.0
 40
0.0499999999999998
100
AcDbArc
 50
270.0
 51
0.0
  0
ARC
  5
1F0
330
70
100
AcDbEntity
  8
desuneko-65-plate-single-layout v5_0
100
AcDbCircle
 10
23.98625
 20
-5.4125
 30
0.0
 40
0.0499999999999998
100
AcDbArc
 50
270.0
 51
0.0
  0
ARC
  5
1F1
330
70
100
AcDbEntity
  8
desuneko-65-plate-single-layout v5_0
100
AcDbCircle
 10
22.68625
 20
-4.112499999999999
 30
0.0
 40
0.0499999999999998
100
AcDbArc
 50
90.0
 51
180.0
  0
LINE
  5
1F2
330
70
100
AcDbEntity
  8
desuneko-65-plate-single-layout v5_0
100
AcDbLine
 10
16.41625
 20
-4.112499999999999
 30
0.0
 11
16.41625
 21
-5.4125
 31
0.0
  0
LINE
  5
1F3
330
70
100
AcDbEntity
  8
desuneko-65-plate-single-layout v5_0
100
AcDbLine
 10
22.13125
 20
-4.112499999999999
 30
0.0
 11
22.13125
 21
-5.4125
 31
0.0
  0
ARC
  5
1F4
330
70
100
AcDbEntity
  8
desuneko-65-plate-single-layout v5_0
100
AcDbCircle
 10
8.398749999999999
 20
-7.317499999999999
 30
0.0
 40
0.0500000000000007
100
AcDbArc
 50
180.0
 51
270.0
  0
ARC
  5
1F5
330
70
100
AcDbEntity
  8
desuneko-65-plate-single-layout v5_0
100
AcDbCircle
 10
28.8775
 20
-5.4125
 30
0.0
 40
0.0500000000000007
100
AcDbArc
 50
180.0
 51
270.0
  0
ARC
  5
1F6
330
70
100
AcDbEntity
  8
desuneko-65-plate-single-layout v5_0
100
AcDbCircle
 10
22.08125
 20
-4.112499999999999
 30
0.0
 40
0.0500000000000007
100
AcDbArc
 50
0.0
 51
90.0
  0
ARC
  5
1F7
330
70
100
AcDbEntity
  8
desuneko-65-plate-single-layout v5_0
100
AcDbCircle
 10
5.88875
 20
-6.0175
 30
0.0
 40
0.0499999999999998
100
AcDbArc
 50
0.0
 51
90.0
  0
LINE
  5
1F8
330
70
100
AcDbEntity
  8
desuneko-65-plate-single-layout v5_0
100
AcDbLine
 10
14.51125
 20
-4.112499999999999
 30
0.0
 11
14.51125
 21
-5.4125
 31
0.0
  0
LINE
  5
1F9
330
70
100
AcDbEntity
  8
desuneko-65-plate-single-layout v5_0
100
AcDbLine
 10
27.27567500000001
 20
-4.2125
 30
0.0
 11
27.27567500000001
 21
-5.6125
 31
0.0
  0
ARC
  5
1FA
330
70
100
AcDbEntity
  8
desuneko-65-plate-single-layout v5_0
100
AcDbCircle
 10
13.16125
 20
-4.112499999999999
 30
0.0
 40
0.0499999999999998
100
AcDbArc
 50
90.0
 51
180.0
  0
LINE
  5
1FB
330
70
100
AcDbEntity
  8
desuneko-65-plate-single-layout v5_0
100
AcDbLine
 10
22.68625
 20
-5.4625
 30
0.0
 11
23.98625
 21
-5.4625
 31
0.0
  0
ARC
  5
1FC
330
70
100
AcDbEntity
  8
desuneko-65-plate-single-layout v5_0
100
AcDbCircle
 10
27.08187500000001
 20
-5.4125
 30
0.0
 40
0.0499999999999998
100
AcDbArc
 50
270.0
 51
0.0
  0
LINE
  5
1FD
330
70
100
AcDbEntity
  8
desuneko-65-plate-single-layout v5_0
100
AcDbLine
 10
13.11125
 20
-4.112499999999999
 30
0.0
 11
13.11125
 21
-5.4125
 31
0.0
  0
LINE
  5
1FE
330
70
100
AcDbEntity
  8
desuneko-65-plate-single-layout v5_0
100
AcDbLine
 10
18.87625
 20
-4.0625
 30
0.0
 11
20.17625
 21
-4.0625
 31
0.0
  0
LINE
  5
1FF
330
70
100
AcDbEntity
  8
desuneko-65-plate-single-layout v5_0
100
AcDbLine
 10
4.53875
 20
-6.0175
 30
0.0
 11
4.53875
 21
-7.317499999999999
 31
0.0
  0
LINE
  5
200
330
70
100
AcDbEntity
  8
desuneko-65-plate-single-layout v5_0
100
AcDbLine
 10
1.493125
 20
-5.9675
 30
0.0
 11
2.793124999999999
 21
-5.9675
 31
0.0
  0
LINE
  5
201
330
70
100
AcDbEntity
  8
desuneko-65-plate-single-layout v5_0
100
AcDbLine
 10
22.68625
 20
-4.0625
 30
0.0
 11
23.98625
 21
-4.0625
 31
0.0
  0
ARC
  5
202
330
70
100
AcDbEntity
  8
desuneko-65-plate-single-layout v5_0
100
AcDbCircle
 10
18.87625
 20
-5.4125
 30
0.0
 40
0.0500000000000007
100
AcDbArc
 50
180.0
 51
270.0
  0
ARC
  5
203
330
70
100
AcDbEntity
  8
desuneko-65-plate-single-layout v5_0
100
AcDbCircle
 10
20.17625
 20
-5.4125
 30
0.0
 40
0.0499999999999998
100
AcDbArc
 50
270.0
 51
0.0
  0
ARC
  5
204
330
70
100
AcDbEntity
  8
desuneko-65-plate-single-layout v5_0
100
AcDbCircle
 10
20.78125
 20
-4.112499999999999
 30
0.0
 40
0.0499999999999998
100
AcDbArc
 50
90.0
 51
180.0
  0
ARC
  5
205
330
70
100
AcDbEntity
  8
desuneko-65-plate-single-layout v5_0
100
AcDbCircle
 10
22.08125
 20
-5.4125
 30
0.0
 40
0.0499999999999998
100
AcDbArc
 50
270.0
 51
0.0
  0
ARC
  5
206
330
70
100
AcDbEntity
  8
desuneko-65-plate-single-layout v5_0
100
AcDbCircle
 10
17.92375
 20
-7.317499999999999
 30
0.0
 40
0.0500000000000007
100
AcDbArc
 50
180.0
 51
270.0
  0
LINE
  5
207
330
70
100
AcDbEntity
  8
desuneko-65-plate-single-layout v5_0
100
AcDbLine
 10
8.34875
 20
-6.0175
 30
0.0
 11
8.34875
 21
-7.317499999999999
 31
0.0
  0
ARC
  5
208
330
70
100
AcDbEntity
  8
desuneko-65-plate-single-layout v5_0
100
AcDbCircle
 10
8.398749999999999
 20
-6.0175
 30
0.0
 40
0.0499999999999998
100
AcDbArc
 50
90.0
 51
180.0
  0
LINE
  5
209
330
70
100
AcDbEntity
  8
desuneko-65-plate-single-layout v5_0
100
AcDbLine
 10
24.353125
 20
-5.9675
 30
0.0
 11
25.653125
 21
-5.9675
 31
0.0
  0
ARC
  5
20A
330
70
100
AcDbEntity
  8
desuneko-65-plate-single-layout v5_0
100
AcDbCircle
 10
10.30375
 20
-7.317499999999999
 30
0.0
 40
0.0500000000000007
100
AcDbArc
 50
180.0
 51
270.0
  0
LINE
  5
20B
330
70
100
AcDbEntity
  8
desuneko-65-plate-single-layout v5_0
100
AcDbLine
 10
25.703125
 20
-6.0175
 30
0.0
 11
25.703125
 21
-7.317499999999999
 31
0.0
  0
ARC
  5
20C
330
70
100
AcDbEntity
  8
desuneko-65-plate-single-layout v5_0
100
AcDbCircle
 10
1.249325
 20
-7.5175
 30
0.0
 40
0.0499999999999998
100
AcDbArc
 50
270.0
 51
0.0
  0
LINE
  5
20D
330
70
100
AcDbEntity
  8
desuneko-65-plate-single-layout v5_0
100
AcDbLine
 10
24.938075
 20
-5.6625
 30
0.0
 11
25.538075
 21
-5.6625
 31
0.0
  0
ARC
  5
20E
330
70
100
AcDbEntity
  8
desuneko-65-plate-single-layout v5_0
100
AcDbCircle
 10
3.636925
 20
-6.117499999999999
 30
0.0
 40
0.0499999999999998
100
AcDbArc
 50
0.0
 51
90.0
  0
LINE
  5
20F
330
70
100
AcDbEntity
  8
desuneko-65-plate-single-layout v5_0
100
AcDbLine
 10
10.30375
 20
-7.367499999999999
 30
0.0
 11
11.60375
 21
-7.367499999999999
 31
0.0
  0
ARC
  5
210
330
70
100
AcDbEntity
  8
desuneko-65-plate-single-layout v5_0
100
AcDbCircle
 10
5.88875
 20
-7.317499999999999
 30
0.0
 40
0.0499999999999998
100
AcDbArc
 50
270.0
 51
0.0
  0
ARC
  5
211
330
70
100
AcDbEntity
  8
desuneko-65-plate-single-layout v5_0
100
AcDbCircle
 10
30.1775
 20
-4.112499999999999
 30
0.0
 40
0.0500000000000007
100
AcDbArc
 50
0.0
 51
90.0
  0
ARC
  5
212
330
70
100
AcDbEntity
  8
desuneko-65-plate-single-layout v5_0
100
AcDbCircle
 10
1.493125
 20
-7.317499999999999
 30
0.0
 40
0.0500000000000001
100
AcDbArc
 50
180.0
 51
270.0
  0
ARC
  5
213
330
70
100
AcDbEntity
  8
desuneko-65-plate-single-layout v5_0
100
AcDbCircle
 10
21.12875
 20
-6.0175
 30
0.0
 40
0.0500000000000007
100
AcDbArc
 50
0.0
 51
90.0
  0
LINE
  5
214
330
70
100
AcDbEntity
  8
desuneko-65-plate-single-layout v5_0
100
AcDbLine
 10
14.11375
 20
-5.9675
 30
0.0
 11
15.41375
 21
-5.9675
 31
0.0
  0
LINE
  5
215
330
70
100
AcDbEntity
  8
desuneko-65-plate-single-layout v5_0
100
AcDbLine
 10
28.8275
 20
-4.112499999999999
 30
0.0
 11
28.8275
 21
-5.4125
 31
0.0
  0
ARC
  5
216
330
70
100
AcDbEntity
  8
desuneko-65-plate-single-layout v5_0
100
AcDbCircle
 10
1.493125
 20
-6.0175
 30
0.0
 40
0.0499999999999998
100
AcDbArc
 50
90.0
 51
180.0
  0
LINE
  5
217
330
70
100
AcDbEntity
  8
desuneko-65-plate-single-layout v5_0
100
AcDbLine
 10
7.84375
 20
-6.0175
 30
0.0
 11
7.84375
 21
-7.317499999999999
 31
0.0
  0
ARC
  5
218
330
70
100
AcDbEntity
  8
desuneko-65-plate-single-layout v5_0
100
AcDbCircle
 10
1.249325
 20
-6.117499999999999
 30
0.0
 40
0.0500000000000001
100
AcDbArc
 50
0.0
 51
90.0
  0
LINE
  5
219
330
70
100
AcDbEntity
  8
desuneko-65-plate-single-layout v5_0
100
AcDbLine
 10
8.398749999999999
 20
-5.9675
 30
0.0
 11
9.69875
 21
-5.9675
 31
0.0
  0
LINE
  5
21A
330
70
100
AcDbEntity
  8
desuneko-65-plate-single-layout v5_0
100
AcDbLine
 10
0.6493250000000001
 20
-7.567499999999999
 30
0.0
 11
1.249325
 21
-7.567499999999999
 31
0.0
  0
ARC
  5
21B
330
70
100
AcDbEntity
  8
desuneko-65-plate-single-layout v5_0
100
AcDbCircle
 10
16.01875
 20
-6.0175
 30
0.0
 40
0.0499999999999998
100
AcDbArc
 50
90.0
 51
180.0
  0
LINE
  5
21C
330
70
100
AcDbEntity
  8
desuneko-65-plate-single-layout v5_0
100
AcDbLine
 10
0.6493250000000001
 20
-6.067499999999999
 30
0.0
 11
1.249325
 21
-6.067499999999999
 31
0.0
  0
LINE
  5
21D
330
70
100
AcDbEntity
  8
desuneko-65-plate-single-layout v5_0
100
AcDbLine
 10
5.93875
 20
-6.0175
 30
0.0
 11
5.93875
 21
-7.317499999999999
 31
0.0
  0
ARC
  5
21E
330
70
100
AcDbEntity
  8
desuneko-65-plate-single-layout v5_0
100
AcDbCircle
 10
28.8775
 20
-4.112499999999999
 30
0.0
 40
0.0499999999999998
100
AcDbArc
 50
90.0
 51
180.0
  0
LINE
  5
21F
330
70
100
AcDbEntity
  8
desuneko-65-plate-single-layout v5_0
100
AcDbLine
 10
21.73375
 20
-7.367499999999999
 30
0.0
 11
23.03375
 21
-7.367499999999999
 31
0.0
  0
LINE
  5
220
330
70
100
AcDbEntity
  8
desuneko-65-plate-single-layout v5_0
100
AcDbLine
 10
15.96875
 20
-6.0175
 30
0.0
 11
15.96875
 21
-7.317499999999999
 31
0.0
  0
ARC
  5
221
330
70
100
AcDbEntity
  8
desuneko-65-plate-single-layout v5_0
100
AcDbCircle
 10
21.73375
 20
-7.317499999999999
 30
0.0
 40
0.0500000000000007
100
AcDbArc
 50
180.0
 51
270.0
  0
LINE
  5
222
330
70
100
AcDbEntity
  8
desuneko-65-plate-single-layout v5_0
100
AcDbLine
 10
1.493125
 20
-7.367499999999999
 30
0.0
 11
2.793124999999999
 21
-7.367499999999999
 31
0.0
  0
LINE
  5
223
330
70
100
AcDbEntity
  8
desuneko-65-plate-single-layout v5_0
100
AcDbLine
 10
3.686925
 20
-6.117499999999999
 30
0.0
 11
3.686925
 21
-7.5175
 31
0.0
  0
ARC
  5
224
330
70
100
AcDbEntity
  8
desuneko-65-plate-single-layout v5_0
100
AcDbCircle
 10
2.793124999999999
 20
-7.317499999999999
 30
0.0
 40
0.0499999999999998
100
AcDbArc
 50
270.0
 51
0.0
  0
ARC
  5
225
330
70
100
AcDbEntity
  8
desuneko-65-plate-single-layout v5_0
100
AcDbCircle
 10
3.636925
 20
-7.5175
 30
0.0
 40
0.0499999999999998
100
AcDbArc
 50
270.0
 51
0.0
  0
LINE
  5
226
330
70
100
AcDbEntity
  8
desuneko-65-plate-single-layout v5_0
100
AcDbLine
 10
21.73375
 20
-5.9675
 30
0.0
 11
23.03375
 21
-5.9675
 31
0.0
  0
LINE
  5
227
330
70
100
AcDbEntity
  8
desuneko-65-plate-single-layout v5_0
100
AcDbLine
 10
3.036925
 20
-6.067499999999999
 30
0.0
 11
3.636925
 21
-6.067499999999999
 31
0.0
  0
ARC
  5
228
330
70
100
AcDbEntity
  8
desuneko-65-plate-single-layout v5_0
100
AcDbCircle
 10
3.036925
 20
-6.117499999999999
 30
0.0
 40
0.0499999999999998
100
AcDbArc
 50
90.0
 51
180.0
  0
LINE
  5
229
330
70
100
AcDbEntity
  8
desuneko-65-plate-single-layout v5_0
100
AcDbLine
 10
11.65375
 20
-6.0175
 30
0.0
 11
11.65375
 21
-7.317499999999999
 31
0.0
  0
LINE
  5
22A
330
70
100
AcDbEntity
  8
desuneko-65-plate-single-layout v5_0
100
AcDbLine
 10
19.82875
 20
-7.367499999999999
 30
0.0
 11
21.12875
 21
-7.367499999999999
 31
0.0
  0
LINE
  5
22B
330
70
100
AcDbEntity
  8
desuneko-65-plate-single-layout v5_0
100
AcDbLine
 10
12.15875
 20
-6.0175
 30
0.0
 11
12.15875
 21
-7.317499999999999
 31
0.0
  0
ARC
  5
22C
330
70
100
AcDbEntity
  8
desuneko-65-plate-single-layout v5_0
100
AcDbCircle
 10
13.50875
 20
-6.0175
 30
0.0
 40
0.0500000000000007
100
AcDbArc
 50
0.0
 51
90.0
  0
ARC
  5
22D
330
70
100
AcDbEntity
  8
desuneko-65-plate-single-layout v5_0
100
AcDbCircle
 10
13.50875
 20
-7.317499999999999
 30
0.0
 40
0.0499999999999998
100
AcDbArc
 50
270.0
 51
0.0
  0
LINE
  5
22E
330
70
100
AcDbEntity
  8
desuneko-65-plate-single-layout v5_0
100
AcDbLine
 10
2.843124999999999
 20
-6.0175
 30
0.0
 11
2.843124999999999
 21
-7.317499999999999
 31
0.0
  0
ARC
  5
22F
330
70
100
AcDbEntity
  8
desuneko-65-plate-single-layout v5_0
100
AcDbCircle
 10
12.20875
 20
-6.0175
 30
0.0
 40
0.0499999999999998
100
AcDbArc
 50
90.0
 51
180.0
  0
LINE
  5
230
330
70
100
AcDbEntity
  8
desuneko-65-plate-single-layout v5_0
100
AcDbLine
 10
24.353125
 20
-7.367499999999999
 30
0.0
 11
25.653125
 21
-7.367499999999999
 31
0.0
  0
LINE
  5
231
330
70
100
AcDbEntity
  8
desuneko-65-plate-single-layout v5_0
100
AcDbLine
 10
4.58875
 20
-7.367499999999999
 30
0.0
 11
5.88875
 21
-7.367499999999999
 31
0.0
  0
LINE
  5
232
330
70
100
AcDbEntity
  8
desuneko-65-plate-single-layout v5_0
100
AcDbLine
 10
0.599325
 20
-6.117499999999999
 30
0.0
 11
0.599325
 21
-7.5175
 31
0.0
  0
ARC
  5
233
330
70
100
AcDbEntity
  8
desuneko-65-plate-single-layout v5_0
100
AcDbCircle
 10
19.82875
 20
-7.317499999999999
 30
0.0
 40
0.0500000000000007
100
AcDbArc
 50
180.0
 51
270.0
  0
ARC
  5
234
330
70
100
AcDbEntity
  8
desuneko-65-plate-single-layout v5_0
100
AcDbCircle
 10
14.11375
 20
-6.0175
 30
0.0
 40
0.0499999999999998
100
AcDbArc
 50
90.0
 51
180.0
  0
ARC
  5
235
330
70
100
AcDbEntity
  8
desuneko-65-plate-single-layout v5_0
100
AcDbCircle
 10
7.79375
 20
-6.0175
 30
0.0
 40
0.0499999999999998
100
AcDbArc
 50
0.0
 51
90.0
  0
LINE
  5
236
330
70
100
AcDbEntity
  8
desuneko-65-plate-single-layout v5_0
100
AcDbLine
 10
6.49375
 20
-5.9675
 30
0.0
 11
7.79375
 21
-5.9675
 31
0.0
  0
ARC
  5
237
330
70
100
AcDbEntity
  8
desuneko-65-plate-single-layout v5_0
100
AcDbCircle
 10
12.20875
 20
-7.317499999999999
 30
0.0
 40
0.0500000000000007
100
AcDbArc
 50
180.0
 51
270.0
  0
LINE
  5
238
330
70
100
AcDbEntity
  8
desuneko-65-plate-single-layout v5_0
100
AcDbLine
 10
6.44375
 20
-6.0175
 30
0.0
 11
6.44375
 21
-7.317499999999999
 31
0.0
  0
ARC
  5
239
330
70
100
AcDbEntity
  8
desuneko-65-plate-single-layout v5_0
100
AcDbCircle
 10
25.653125
 20
-7.317499999999999
 30
0.0
 40
0.0499999999999998
100
AcDbArc
 50
270.0
 51
0.0
  0
ARC
  5
23A
330
70
100
AcDbEntity
  8
desuneko-65-plate-single-layout v5_0
100
AcDbCircle
 10
19.22375
 20
-7.317499999999999
 30
0.0
 40
0.0499999999999998
100
AcDbArc
 50
270.0
 51
0.0
  0
ARC
  5
23B
330
70
100
AcDbEntity
  8
desuneko-65-plate-single-layout v5_0
100
AcDbCircle
 10
15.41375
 20
-6.0175
 30
0.0
 40
0.0500000000000007
100
AcDbArc
 50
0.0
 51
90.0
  0
ARC
  5
23C
330
70
100
AcDbEntity
  8
desuneko-65-plate-single-layout v5_0
100
AcDbCircle
 10
6.49375
 20
-7.317499999999999
 30
0.0
 40
0.0499999999999998
100
AcDbArc
 50
180.0
 51
270.0
  0
LINE
  5
23D
330
70
100
AcDbEntity
  8
desuneko-65-plate-single-layout v5_0
100
AcDbLine
 10
30.2275
 20
-4.112499999999999
 30
0.0
 11
30.2275
 21
-5.4125
 31
0.0
  0
LINE
  5
23E
330
70
100
AcDbEntity
  8
desuneko-65-plate-single-layout v5_0
100
AcDbLine
 10
28.8775
 20
-5.4625
 30
0.0
 11
30.1775
 21
-5.4625
 31
0.0
  0
LINE
  5
23F
330
70
100
AcDbEntity
  8
desuneko-65-plate-single-layout v5_0
100
AcDbLine
 10
4.58875
 20
-5.9675
 30
0.0
 11
5.88875
 21
-5.9675
 31
0.0
  0
LINE
  5
240
330
70
100
AcDbEntity
  8
desuneko-65-plate-single-layout v5_0
100
AcDbLine
 10
24.938075
 20
-4.1625
 30
0.0
 11
25.538075
 21
-4.1625
 31
0.0
  0
ARC
  5
241
330
70
100
AcDbEntity
  8
desuneko-65-plate-single-layout v5_0
100
AcDbCircle
 10
24.353125
 20
-7.317499999999999
 30
0.0
 40
0.0500000000000007
100
AcDbArc
 50
180.0
 51
270.0
  0
ARC
  5
242
330
70
100
AcDbEntity
  8
desuneko-65-plate-single-layout v5_0
100
AcDbCircle
 10
10.30375
 20
-6.0175
 30
0.0
 40
0.0499999999999998
100
AcDbArc
 50
90.0
 51
180.0
  0
ARC
  5
243
330
70
100
AcDbEntity
  8
desuneko-65-plate-single-layout v5_0
100
AcDbCircle
 10
24.938075
 20
-4.2125
 30
0.0
 40
0.0499999999999998
100
AcDbArc
 50
90.0
 51
180.0
  0
ARC
  5
244
330
70
100
AcDbEntity
  8
desuneko-65-plate-single-layout v5_0
100
AcDbCircle
 10
17.31875
 20
-7.317499999999999
 30
0.0
 40
0.0499999999999998
100
AcDbArc
 50
270.0
 51
0.0
  0
LINE
  5
245
330
70
100
AcDbEntity
  8
desuneko-65-plate-single-layout v5_0
100
AcDbLine
 10
8.398749999999999
 20
-7.367499999999999
 30
0.0
 11
9.69875
 21
-7.367499999999999
 31
0.0
  0
LINE
  5
246
330
70
100
AcDbEntity
  8
desuneko-65-plate-single-layout v5_0
100
AcDbLine
 10
1.443125
 20
-6.0175
 30
0.0
 11
1.443125
 21
-7.317499999999999
 31
0.0
  0
LINE
  5
247
330
70
100
AcDbEntity
  8
desuneko-65-plate-single-layout v5_0
100
AcDbLine
 10
16.01875
 20
-5.9675
 30
0.0
 11
17.31875
 21
-5.9675
 31
0.0
  0
ARC
  5
248
330
70
100
AcDbEntity
  8
desuneko-65-plate-single-layout v5_0
100
AcDbCircle
 10
13.746875
 20
-9.2225
 30
0.0
 40
0.0500000000000007
100
AcDbArc
 50
270.0
 51
0.0
  0
ARC
  5
249
330
70
100
AcDbEntity
  8
desuneko-65-plate-single-layout v5_0
100
AcDbCircle
 10
2.921499999999999
 20
-7.922499999999998
 30
0.0
 40
0.0499999999999998
100
AcDbArc
 50
90.0
 51
180.0
  0
LINE
  5
24A
330
70
100
AcDbEntity
  8
desuneko-65-plate-single-layout v5_0
100
AcDbLine
 10
8.396249999999998
 20
-9.172499999999999
 30
0.0
 11
7.796249999999998
 21
-9.172499999999999
 31
0.0
  0
LINE
  5
24B
330
70
100
AcDbEntity
  8
desuneko-65-plate-single-layout v5_0
100
AcDbLine
 10
17.36875
 20
-6.0175
 30
0.0
 11
17.36875
 21
-7.317499999999999
 31
0.0
  0
LINE
  5
24C
330
70
100
AcDbEntity
  8
desuneko-65-plate-single-layout v5_0
100
AcDbLine
 10
15.46375
 20
-6.0175
 30
0.0
 11
15.46375
 21
-7.317499999999999
 31
0.0
  0
ARC
  5
24D
330
70
100
AcDbEntity
  8
desuneko-65-plate-single-layout v5_0
100
AcDbCircle
 10
21.12875
 20
-7.317499999999999
 30
0.0
 40
0.0499999999999998
100
AcDbArc
 50
270.0
 51
0.0
  0
LINE
  5
24E
330
70
100
AcDbEntity
  8
desuneko-65-plate-single-layout v5_0
100
AcDbLine
 10
19.82875
 20
-5.9675
 30
0.0
 11
21.12875
 21
-5.9675
 31
0.0
  0
LINE
  5
24F
330
70
100
AcDbEntity
  8
desuneko-65-plate-single-layout v5_0
100
AcDbLine
 10
14.11375
 20
-7.367499999999999
 30
0.0
 11
15.41375
 21
-7.367499999999999
 31
0.0
  0
ARC
  5
250
330
70
100
AcDbEntity
  8
desuneko-65-plate-single-layout v5_0
100
AcDbCircle
 10
24.353125
 20
-6.0175
 30
0.0
 40
0.0499999999999998
100
AcDbArc
 50
90.0
 51
180.0
  0
LINE
  5
251
330
70
100
AcDbEntity
  8
desuneko-65-plate-single-layout v5_0
100
AcDbLine
 10
21.17875
 20
-6.0175
 30
0.0
 11
21.17875
 21
-7.317499999999999
 31
0.0
  0
ARC
  5
252
330
70
100
AcDbEntity
  8
desuneko-65-plate-single-layout v5_0
100
AcDbCircle
 10
19.22375
 20
-6.0175
 30
0.0
 40
0.0500000000000007
100
AcDbArc
 50
0.0
 51
90.0
  0
ARC
  5
253
330
70
100
AcDbEntity
  8
desuneko-65-plate-single-layout v5_0
100
AcDbCircle
 10
28.27250000000001
 20
-7.317499999999999
 30
0.0
 40
0.0499999999999998
100
AcDbArc
 50
270.0
 51
0.0
  0
LINE
  5
254
330
70
100
AcDbEntity
  8
desuneko-65-plate-single-layout v5_0
100
AcDbLine
 10
23.08375
 20
-6.0175
 30
0.0
 11
23.08375
 21
-7.317499999999999
 31
0.0
  0
LINE
  5
255
330
70
100
AcDbEntity
  8
desuneko-65-plate-single-layout v5_0
100
AcDbLine
 10
7.746249999999998
 20
-9.1225
 30
0.0
 11
7.746249999999998
 21
-7.722499999999998
 31
0.0
  0
LINE
  5
256
330
70
100
AcDbEntity
  8
desuneko-65-plate-single-layout v5_0
100
AcDbLine
 10
2.921499999999999
 20
-7.872499999999998
 30
0.0
 11
4.221499999999999
 21
-7.872499999999998
 31
0.0
  0
LINE
  5
257
330
70
100
AcDbEntity
  8
desuneko-65-plate-single-layout v5_0
100
AcDbLine
 10
13.796875
 20
-7.922499999999998
 30
0.0
 11
13.796875
 21
-9.2225
 31
0.0
  0
ARC
  5
258
330
70
100
AcDbEntity
  8
desuneko-65-plate-single-layout v5_0
100
AcDbCircle
 10
25.0675
 20
-7.922499999999998
 30
0.0
 40
0.0499999999999998
100
AcDbArc
 50
90.0
 51
180.0
  0
ARC
  5
259
330
70
100
AcDbEntity
  8
desuneko-65-plate-single-layout v5_0
100
AcDbCircle
 10
2.921499999999999
 20
-9.2225
 30
0.0
 40
0.0499999999999998
100
AcDbArc
 50
180.0
 51
270.0
  0
LINE
  5
25A
330
70
100
AcDbEntity
  8
desuneko-65-plate-single-layout v5_0
100
AcDbLine
 10
30.2275
 20
-6.0175
 30
0.0
 11
30.2275
 21
-7.317499999999999
 31
0.0
  0
LINE
  5
25B
330
70
100
AcDbEntity
  8
desuneko-65-plate-single-layout v5_0
100
AcDbLine
 10
24.303125
 20
-6.0175
 30
0.0
 11
24.303125
 21
-7.317499999999999
 31
0.0
  0
LINE
  5
25C
330
70
100
AcDbEntity
  8
desuneko-65-plate-single-layout v5_0
100
AcDbLine
 10
16.01875
 20
-7.367499999999999
 30
0.0
 11
17.31875
 21
-7.367499999999999
 31
0.0
  0
ARC
  5
25D
330
70
100
AcDbEntity
  8
desuneko-65-plate-single-layout v5_0
100
AcDbCircle
 10
25.653125
 20
-6.0175
 30
0.0
 40
0.0500000000000007
100
AcDbArc
 50
0.0
 51
90.0
  0
ARC
  5
25E
330
70
100
AcDbEntity
  8
desuneko-65-plate-single-layout v5_0
100
AcDbCircle
 10
11.60375
 20
-7.317499999999999
 30
0.0
 40
0.0499999999999998
100
AcDbArc
 50
270.0
 51
0.0
  0
LINE
  5
25F
330
70
100
AcDbEntity
  8
desuneko-65-plate-single-layout v5_0
100
AcDbLine
 10
19.77875
 20
-6.0175
 30
0.0
 11
19.77875
 21
-7.317499999999999
 31
0.0
  0
ARC
  5
260
330
70
100
AcDbEntity
  8
desuneko-65-plate-single-layout v5_0
100
AcDbCircle
 10
15.41375
 20
-7.317499999999999
 30
0.0
 40
0.0499999999999998
100
AcDbArc
 50
270.0
 51
0.0
  0
LINE
  5
261
330
70
100
AcDbEntity
  8
desuneko-65-plate-single-layout v5_0
100
AcDbLine
 10
17.87375
 20
-6.0175
 30
0.0
 11
17.87375
 21
-7.317499999999999
 31
0.0
  0
ARC
  5
262
330
70
100
AcDbEntity
  8
desuneko-65-plate-single-layout v5_0
100
AcDbCircle
 10
23.03375
 20
-6.0175
 30
0.0
 40
0.0500000000000007
100
AcDbArc
 50
0.0
 51
90.0
  0
LINE
  5
263
330
70
100
AcDbEntity
  8
desuneko-65-plate-single-layout v5_0
100
AcDbLine
 10
12.20875
 20
-7.367499999999999
 30
0.0
 11
13.50875
 21
-7.367499999999999
 31
0.0
  0
LINE
  5
264
330
70
100
AcDbEntity
  8
desuneko-65-plate-single-layout v5_0
100
AcDbLine
 10
17.92375
 20
-5.9675
 30
0.0
 11
19.22375
 21
-5.9675
 31
0.0
  0
ARC
  5
265
330
70
100
AcDbEntity
  8
desuneko-65-plate-single-layout v5_0
100
AcDbCircle
 10
11.60375
 20
-6.0175
 30
0.0
 40
0.0500000000000007
100
AcDbArc
 50
0.0
 51
90.0
  0
LINE
  5
266
330
70
100
AcDbEntity
  8
desuneko-65-plate-single-layout v5_0
100
AcDbLine
 10
2.8715
 20
-7.922499999999998
 30
0.0
 11
2.8715
 21
-9.2225
 31
0.0
  0
ARC
  5
267
330
70
100
AcDbEntity
  8
desuneko-65-plate-single-layout v5_0
100
AcDbCircle
 10
16.01875
 20
-7.317499999999999
 30
0.0
 40
0.0500000000000007
100
AcDbArc
 50
180.0
 51
270.0
  0
LINE
  5
268
330
70
100
AcDbEntity
  8
desuneko-65-plate-single-layout v5_0
100
AcDbLine
 10
10.25375
 20
-6.0175
 30
0.0
 11
10.25375
 21
-7.317499999999999
 31
0.0
  0
ARC
  5
269
330
70
100
AcDbEntity
  8
desuneko-65-plate-single-layout v5_0
100
AcDbCircle
 10
0.540625
 20
-9.2225
 30
0.0
 40
0.0500000000000001
100
AcDbArc
 50
180.0
 51
270.0
  0
LINE
  5
26A
330
70
100
AcDbEntity
  8
desuneko-65-plate-single-layout v5_0
100
AcDbLine
 10
13.55875
 20
-6.0175
 30
0.0
 11
13.55875
 21
-7.317499999999999
 31
0.0
  0
ARC
  5
26B
330
70
100
AcDbEntity
  8
desuneko-65-plate-single-layout v5_0
100
AcDbCircle
 10
18.3975
 20
-7.722499999999998
 30
0.0
 40
0.0500000000000007
100
AcDbArc
 50
0.0
 51
90.0
  0
ARC
  5
26C
330
70
100
AcDbEntity
  8
desuneko-65-plate-single-layout v5_0
100
AcDbCircle
 10
21.73375
 20
-6.0175
 30
0.0
 40
0.0499999999999998
100
AcDbArc
 50
90.0
 51
180.0
  0
ARC
  5
26D
330
70
100
AcDbEntity
  8
desuneko-65-plate-single-layout v5_0
100
AcDbCircle
 10
17.31875
 20
-6.0175
 30
0.0
 40
0.0500000000000007
100
AcDbArc
 50
0.0
 51
90.0
  0
ARC
  5
26E
330
70
100
AcDbEntity
  8
desuneko-65-plate-single-layout v5_0
100
AcDbCircle
 10
28.8775
 20
-7.317499999999999
 30
0.0
 40
0.0500000000000007
100
AcDbArc
 50
180.0
 51
270.0
  0
ARC
  5
26F
330
70
100
AcDbEntity
  8
desuneko-65-plate-single-layout v5_0
100
AcDbCircle
 10
1.840625
 20
-7.922499999999998
 30
0.0
 40
0.0499999999999998
100
AcDbArc
 50
0.0
 51
90.0
  0
ARC
  5
270
330
70
100
AcDbEntity
  8
desuneko-65-plate-single-layout v5_0
100
AcDbCircle
 10
19.82875
 20
-6.0175
 30
0.0
 40
0.0499999999999998
100
AcDbArc
 50
90.0
 51
180.0
  0
ARC
  5
271
330
70
100
AcDbEntity
  8
desuneko-65-plate-single-layout v5_0
100
AcDbCircle
 10
14.11375
 20
-7.317499999999999
 30
0.0
 40
0.0500000000000007
100
AcDbArc
 50
180.0
 51
270.0
  0
LINE
  5
272
330
70
100
AcDbEntity
  8
desuneko-65-plate-single-layout v5_0
100
AcDbLine
 10
10.30375
 20
-5.9675
 30
0.0
 11
11.60375
 21
-5.9675
 31
0.0
  0
ARC
  5
273
330
70
100
AcDbEntity
  8
desuneko-65-plate-single-layout v5_0
100
AcDbCircle
 10
17.7975
 20
-9.1225
 30
0.0
 40
0.0500000000000007
100
AcDbArc
 50
180.0
 51
270.0
  0
LINE
  5
274
330
70
100
AcDbEntity
  8
desuneko-65-plate-single-layout v5_0
100
AcDbLine
 10
17.92375
 20
-7.367499999999999
 30
0.0
 11
19.22375
 21
-7.367499999999999
 31
0.0
  0
ARC
  5
275
330
70
100
AcDbEntity
  8
desuneko-65-plate-single-layout v5_0
100
AcDbCircle
 10
23.03375
 20
-7.317499999999999
 30
0.0
 40
0.0499999999999998
100
AcDbArc
 50
270.0
 51
0.0
  0
ARC
  5
276
330
70
100
AcDbEntity
  8
desuneko-65-plate-single-layout v5_0
100
AcDbCircle
 10
17.7975
 20
-7.722499999999998
 30
0.0
 40
0.0499999999999998
100
AcDbArc
 50
90.0
 51
180.0
  0
ARC
  5
277
330
70
100
AcDbEntity
  8
desuneko-65-plate-single-layout v5_0
100
AcDbCircle
 10
17.92375
 20
-6.0175
 30
0.0
 40
0.0499999999999998
100
AcDbArc
 50
90.0
 51
180.0
  0
LINE
  5
278
330
70
100
AcDbEntity
  8
desuneko-65-plate-single-layout v5_0
100
AcDbLine
 10
21.68375
 20
-6.0175
 30
0.0
 11
21.68375
 21
-7.317499999999999
 31
0.0
  0
LINE
  5
279
330
70
100
AcDbEntity
  8
desuneko-65-plate-single-layout v5_0
100
AcDbLine
 10
0.540625
 20
-9.2725
 30
0.0
 11
1.840625
 21
-9.272499999999999
 31
0.0
  0
LINE
  5
27A
330
70
100
AcDbEntity
  8
desuneko-65-plate-single-layout v5_0
100
AcDbLine
 10
0.540625
 20
-7.872499999999998
 30
0.0
 11
1.840625
 21
-7.872499999999998
 31
0.0
  0
LINE
  5
27B
330
70
100
AcDbEntity
  8
desuneko-65-plate-single-layout v5_0
100
AcDbLine
 10
26.9725
 20
-7.367499999999999
 30
0.0
 11
28.27250000000001
 21
-7.367499999999999
 31
0.0
  0
LINE
  5
27C
330
70
100
AcDbEntity
  8
desuneko-65-plate-single-layout v5_0
100
AcDbLine
 10
26.9225
 20
-6.0175
 30
0.0
 11
26.9225
 21
-7.317499999999999
 31
0.0
  0
LINE
  5
27D
330
70
100
AcDbEntity
  8
desuneko-65-plate-single-layout v5_0
100
AcDbLine
 10
2.921499999999999
 20
-9.272499999999999
 30
0.0
 11
4.221499999999999
 21
-9.272499999999999
 31
0.0
  0
LINE
  5
27E
330
70
100
AcDbEntity
  8
desuneko-65-plate-single-layout v5_0
100
AcDbLine
 10
14.06375
 20
-6.0175
 30
0.0
 11
14.06375
 21
-7.317499999999999
 31
0.0
  0
ARC
  5
27F
330
70
100
AcDbEntity
  8
desuneko-65-plate-single-layout v5_0
100
AcDbCircle
 10
6.602749999999999
 20
-9.2225
 30
0.0
 40
0.0500000000000007
100
AcDbArc
 50
270.0
 51
0.0
  0
ARC
  5
280
330
70
100
AcDbEntity
  8
desuneko-65-plate-single-layout v5_0
100
AcDbCircle
 10
12.446875
 20
-7.922499999999998
 30
0.0
 40
0.0499999999999998
100
AcDbArc
 50
90.0
 51
180.0
  0
ARC
  5
281
330
70
100
AcDbEntity
  8
desuneko-65-plate-single-layout v5_0
100
AcDbCircle
 10
0.540625
 20
-7.922499999999998
 30
0.0
 40
0.0499999999999998
100
AcDbArc
 50
90.0
 51
180.0
  0
LINE
  5
282
330
70
100
AcDbEntity
  8
desuneko-65-plate-single-layout v5_0
100
AcDbLine
 10
12.20875
 20
-5.9675
 30
0.0
 11
13.50875
 21
-5.9675
 31
0.0
  0
LINE
  5
283
330
70
100
AcDbEntity
  8
desuneko-65-plate-single-layout v5_0
100
AcDbLine
 10
28.8775
 20
-7.367499999999999
 30
0.0
 11
30.1775
 21
-7.367499999999999
 31
0.0
  0
LINE
  5
284
330
70
100
AcDbEntity
  8
desuneko-65-plate-single-layout v5_0
100
AcDbLine
 10
8.396249999999998
 20
-7.672499999999998
 30
0.0
 11
7.796249999999998
 21
-7.672499999999998
 31
0.0
  0
LINE
  5
285
330
70
100
AcDbEntity
  8
desuneko-65-plate-single-layout v5_0
100
AcDbLine
 10
19.27375
 20
-6.0175
 30
0.0
 11
19.27375
 21
-7.317499999999999
 31
0.0
  0
LINE
  5
286
330
70
100
AcDbEntity
  8
desuneko-65-plate-single-layout v5_0
100
AcDbLine
 10
28.8775
 20
-5.9675
 30
0.0
 11
30.1775
 21
-5.9675
 31
0.0
  0
ARC
  5
287
330
70
100
AcDbEntity
  8
desuneko-65-plate-single-layout v5_0
100
AcDbCircle
 10
8.396249999999998
 20
-7.722499999999998
 30
0.0
 40
0.0500000000000007
100
AcDbArc
 50
0.0
 51
90.0
  0
ARC
  5
288
330
70
100
AcDbEntity
  8
desuneko-65-plate-single-layout v5_0
100
AcDbCircle
 10
25.0675
 20
-9.2225
 30
0.0
 40
0.0500000000000007
100
AcDbArc
 50
180.0
 51
270.0
  0
LINE
  5
289
330
70
100
AcDbEntity
  8
desuneko-65-plate-single-layout v5_0
100
AcDbLine
 10
28.32250000000001
 20
-6.0175
 30
0.0
 11
28.32250000000001
 21
-7.317499999999999
 31
0.0
  0
LINE
  5
28A
330
70
100
AcDbEntity
  8
desuneko-65-plate-single-layout v5_0
100
AcDbLine
 10
23.321875
 20
-7.922499999999998
 30
0.0
 11
23.321875
 21
-9.2225
 31
0.0
  0
ARC
  5
28B
330
70
100
AcDbEntity
  8
desuneko-65-plate-single-layout v5_0
100
AcDbCircle
 10
5.30275
 20
-9.2225
 30
0.0
 40
0.0499999999999998
100
AcDbArc
 50
180.0
 51
270.0
  0
ARC
  5
28C
330
70
100
AcDbEntity
  8
desuneko-65-plate-single-layout v5_0
100
AcDbCircle
 10
30.1775
 20
-7.922499999999998
 30
0.0
 40
0.0500000000000007
100
AcDbArc
 50
0.0
 51
90.0
  0
LINE
  5
28D
330
70
100
AcDbEntity
  8
desuneko-65-plate-single-layout v5_0
100
AcDbLine
 10
12.446875
 20
-7.872499999999998
 30
0.0
 11
13.746875
 21
-7.872499999999998
 31
0.0
  0
LINE
  5
28E
330
70
100
AcDbEntity
  8
desuneko-65-plate-single-layout v5_0
100
AcDbLine
 10
6.652749999999999
 20
-7.922499999999998
 30
0.0
 11
6.652749999999999
 21
-9.2225
 31
0.0
  0
LINE
  5
28F
330
70
100
AcDbEntity
  8
desuneko-65-plate-single-layout v5_0
100
AcDbLine
 10
18.3975
 20
-7.672499999999998
 30
0.0
 11
17.7975
 21
-7.672499999999998
 31
0.0
  0
ARC
  5
290
330
70
100
AcDbEntity
  8
desuneko-65-plate-single-layout v5_0
100
AcDbCircle
 10
7.796249999999998
 20
-9.1225
 30
0.0
 40
0.0500000000000007
100
AcDbArc
 50
180.0
 51
270.0
  0
LINE
  5
291
330
70
100
AcDbEntity
  8
desuneko-65-plate-single-layout v5_0
100
AcDbLine
 10
12.396875
 20
-7.922499999999998
 30
0.0
 11
12.396875
 21
-9.2225
 31
0.0
  0
ARC
  5
292
330
70
100
AcDbEntity
  8
desuneko-65-plate-single-layout v5_0
100
AcDbCircle
 10
26.36750000000001
 20
-9.2225
 30
0.0
 40
0.0500000000000007
100
AcDbArc
 50
270.0
 51
0.0
  0
LINE
  5
293
330
70
100
AcDbEntity
  8
desuneko-65-plate-single-layout v5_0
100
AcDbLine
 10
26.9225
 20
-7.922499999999998
 30
0.0
 11
26.9225
 21
-9.2225
 31
0.0
  0
ARC
  5
294
330
70
100
AcDbEntity
  8
desuneko-65-plate-single-layout v5_0
100
AcDbCircle
 10
18.3975
 20
-9.1225
 30
0.0
 40
0.0499999999999989
100
AcDbArc
 50
270.0
 51
0.0
  0
ARC
  5
295
330
70
100
AcDbEntity
  8
desuneko-65-plate-single-layout v5_0
100
AcDbCircle
 10
23.271875
 20
-7.922499999999998
 30
0.0
 40
0.0500000000000007
100
AcDbArc
 50
0.0
 51
90.0
  0
LINE
  5
296
330
70
100
AcDbEntity
  8
desuneko-65-plate-single-layout v5_0
100
AcDbLine
 10
5.30275
 20
-7.872499999999998
 30
0.0
 11
6.602749999999999
 21
-7.872499999999998
 31
0.0
  0
ARC
  5
297
330
70
100
AcDbEntity
  8
desuneko-65-plate-single-layout v5_0
100
AcDbCircle
 10
8.396249999999998
 20
-9.1225
 30
0.0
 40
0.0499999999999989
100
AcDbArc
 50
270.0
 51
0.0
  0
LINE
  5
298
330
70
100
AcDbEntity
  8
desuneko-65-plate-single-layout v5_0
100
AcDbLine
 10
28.32250000000001
 20
-7.922499999999998
 30
0.0
 11
28.32250000000001
 21
-9.2225
 31
0.0
  0
ARC
  5
299
330
70
100
AcDbEntity
  8
desuneko-65-plate-single-layout v5_0
100
AcDbCircle
 10
28.27250000000001
 20
-7.922499999999998
 30
0.0
 40
0.0500000000000007
100
AcDbArc
 50
0.0
 51
90.0
  0
ARC
  5
29A
330
70
100
AcDbEntity
  8
desuneko-65-plate-single-layout v5_0
100
AcDbCircle
 10
26.9725
 20
-6.0175
 30
0.0
 40
0.0499999999999998
100
AcDbArc
 50
90.0
 51
180.0
  0
LINE
  5
29B
330
70
100
AcDbEntity
  8
desuneko-65-plate-single-layout v5_0
100
AcDbLine
 10
4.2715
 20
-7.922499999999998
 30
0.0
 11
4.2715
 21
-9.2225
 31
0.0
  0
ARC
  5
29C
330
70
100
AcDbEntity
  8
desuneko-65-plate-single-layout v5_0
100
AcDbCircle
 10
30.1775
 20
-6.0175
 30
0.0
 40
0.0500000000000007
100
AcDbArc
 50
0.0
 51
90.0
  0
LINE
  5
29D
330
70
100
AcDbEntity
  8
desuneko-65-plate-single-layout v5_0
100
AcDbLine
 10
18.4475
 20
-9.1225
 30
0.0
 11
18.4475
 21
-7.722499999999998
 31
0.0
  0
ARC
  5
29E
330
70
100
AcDbEntity
  8
desuneko-65-plate-single-layout v5_0
100
AcDbCircle
 10
4.221499999999999
 20
-9.2225
 30
0.0
 40
0.0499999999999989
100
AcDbArc
 50
270.0
 51
0.0
  0
ARC
  5
29F
330
70
100
AcDbEntity
  8
desuneko-65-plate-single-layout v5_0
100
AcDbCircle
 10
6.602749999999999
 20
-7.922499999999998
 30
0.0
 40
0.0499999999999998
100
AcDbArc
 50
0.0
 51
90.0
  0
LINE
  5
2A0
330
70
100
AcDbEntity
  8
desuneko-65-plate-single-layout v5_0
100
AcDbLine
 10
-0.000163340513647
 20
-0.2524294083582583
 30
0.0
 11
0.0
 21
-9.272499999999999
 31
0.0
  0
LINE
  5
2A1
330
70
100
AcDbEntity
  8
desuneko-65-plate-single-layout v5_0
100
AcDbLine
 10
28.8275
 20
-6.0175
 30
0.0
 11
28.8275
 21
-7.317499999999999
 31
0.0
  0
ARC
  5
2A2
330
70
100
AcDbEntity
  8
desuneko-65-plate-single-layout v5_0
100
AcDbCircle
 10
21.971875
 20
-9.2225
 30
0.0
 40
0.0500000000000007
100
AcDbArc
 50
180.0
 51
270.0
  0
ARC
  5
2A3
330
70
100
AcDbEntity
  8
desuneko-65-plate-single-layout v5_0
100
AcDbCircle
 10
23.271875
 20
-9.2225
 30
0.0
 40
0.0500000000000007
100
AcDbArc
 50
270.0
 51
0.0
  0
LINE
  5
2A4
330
70
100
AcDbEntity
  8
desuneko-65-plate-single-layout v5_0
100
AcDbLine
 10
21.921875
 20
-7.922499999999998
 30
0.0
 11
21.921875
 21
-9.2225
 31
0.0
  0
LINE
  5
2A5
330
70
100
AcDbEntity
  8
desuneko-65-plate-single-layout v5_0
100
AcDbLine
 10
0.4906249999999999
 20
-7.922499999999998
 30
0.0
 11
0.4906249999999999
 21
-9.2225
 31
0.0
  0
ARC
  5
2A6
330
70
100
AcDbEntity
  8
desuneko-65-plate-single-layout v5_0
100
AcDbCircle
 10
13.746875
 20
-7.922499999999998
 30
0.0
 40
0.0500000000000007
100
AcDbArc
 50
0.0
 51
90.0
  0
ARC
  5
2A7
330
70
100
AcDbEntity
  8
desuneko-65-plate-single-layout v5_0
100
AcDbCircle
 10
28.8775
 20
-9.2225
 30
0.0
 40
0.0500000000000007
100
AcDbArc
 50
180.0
 51
270.0
  0
LINE
  5
2A8
330
70
100
AcDbEntity
  8
desuneko-65-plate-single-layout v5_0
100
AcDbLine
 10
25.0175
 20
-7.922499999999998
 30
0.0
 11
25.0175
 21
-9.2225
 31
0.0
  0
ARC
  5
2A9
330
70
100
AcDbEntity
  8
desuneko-65-plate-single-layout v5_0
100
AcDbCircle
 10
26.36750000000001
 20
-7.922499999999998
 30
0.0
 40
0.0500000000000007
100
AcDbArc
 50
0.0
 51
90.0
  0
LINE
  5
2AA
330
70
100
AcDbEntity
  8
desuneko-65-plate-single-layout v5_0
100
AcDbLine
 10
26.9725
 20
-9.2725
 30
0.0
 11
28.27250000000001
 21
-9.2725
 31
0.0
  0
LINE
  5
2AB
330
70
100
AcDbEntity
  8
desuneko-65-plate-single-layout v5_0
100
AcDbLine
 10
28.8275
 20
-7.922499999999998
 30
0.0
 11
28.8275
 21
-9.2225
 31
0.0
  0
ARC
  5
2AC
330
70
100
AcDbEntity
  8
desuneko-65-plate-single-layout v5_0
100
AcDbCircle
 10
23.56274515909992
 20
-9.272499999999999
 30
0.0
 40
0.2524999999999995
100
AcDbArc
 50
270.0
 51
0.0951926492757388
  0
LINE
  5
2AD
330
70
100
AcDbEntity
  8
desuneko-65-plate-single-layout v5_0
100
AcDbLine
 10
25.0675
 20
-7.872499999999998
 30
0.0
 11
26.36750000000001
 21
-7.872499999999998
 31
0.0
  0
ARC
  5
2AE
330
70
100
AcDbEntity
  8
desuneko-65-plate-single-layout v5_0
100
AcDbCircle
 10
30.1775
 20
-9.2225
 30
0.0
 40
0.0500000000000007
100
AcDbArc
 50
270.0
 51
0.0
  0
LINE
  5
2AF
330
70
100
AcDbEntity
  8
desuneko-65-plate-single-layout v5_0
100
AcDbLine
 10
17.7475
 20
-9.1225
 30
0.0
 11
17.7475
 21
-7.722499999999998
 31
0.0
  0
LINE
  5
2B0
330
70
100
AcDbEntity
  8
desuneko-65-plate-single-layout v5_0
100
AcDbLine
 10
5.25275
 20
-7.922499999999998
 30
0.0
 11
5.25275
 21
-9.2225
 31
0.0
  0
LINE
  5
2B1
330
70
100
AcDbEntity
  8
desuneko-65-plate-single-layout v5_0
100
AcDbLine
 10
18.3975
 20
-9.172499999999999
 30
0.0
 11
17.7975
 21
-9.172500000000001
 31
0.0
  0
ARC
  5
2B2
330
70
100
AcDbEntity
  8
desuneko-65-plate-single-layout v5_0
100
AcDbCircle
 10
28.8775
 20
-7.922499999999998
 30
0.0
 40
0.0499999999999998
100
AcDbArc
 50
90.0
 51
180.0
  0
LINE
  5
2B3
330
70
100
AcDbEntity
  8
desuneko-65-plate-single-layout v5_0
100
AcDbLine
 10
26.4175
 20
-7.922499999999998
 30
0.0
 11
26.4175
 21
-9.2225
 31
0.0
  0
LINE
  5
2B4
330
70
100
AcDbEntity
  8
desuneko-65-plate-single-layout v5_0
100
AcDbLine
 10
21.971875
 20
-7.872499999999998
 30
0.0
 11
23.271875
 21
-7.872499999999998
 31
0.0
  0
LINE
  5
2B5
330
70
100
AcDbEntity
  8
desuneko-65-plate-single-layout v5_0
100
AcDbLine
 10
28.8775
 20
-7.872499999999998
 30
0.0
 11
30.1775
 21
-7.872499999999998
 31
0.0
  0
LINE
  5
2B6
330
70
100
AcDbEntity
  8
desuneko-65-plate-single-layout v5_0
100
AcDbLine
 10
8.446249999999997
 20
-9.1225
 30
0.0
 11
8.446249999999999
 21
-7.722499999999998
 31
0.0
  0
ARC
  5
2B7
330
70
100
AcDbEntity
  8
desuneko-65-plate-single-layout v5_0
100
AcDbCircle
 10
4.221499999999999
 20
-7.922499999999998
 30
0.0
 40
0.0500000000000007
100
AcDbArc
 50
0.0
 51
90.0
  0
LINE
  5
2B8
330
70
100
AcDbEntity
  8
desuneko-65-plate-single-layout v5_0
100
AcDbLine
 10
12.446875
 20
-9.2725
 30
0.0
 11
13.746875
 21
-9.2725
 31
0.0
  0
ARC
  5
2B9
330
70
100
AcDbEntity
  8
desuneko-65-plate-single-layout v5_0
100
AcDbCircle
 10
21.971875
 20
-7.922499999999998
 30
0.0
 40
0.0499999999999998
100
AcDbArc
 50
90.0
 51
180.0
  0
ARC
  5
2BA
330
70
100
AcDbEntity
  8
desuneko-65-plate-single-layout v5_0
100
AcDbCircle
 10
7.796249999999998
 20
-7.722499999999998
 30
0.0
 40
0.0499999999999998
100
AcDbArc
 50
90.0
 51
180.0
  0
ARC
  5
2BB
330
70
100
AcDbEntity
  8
desuneko-65-plate-single-layout v5_0
100
AcDbCircle
 10
26.9725
 20
-7.317499999999999
 30
0.0
 40
0.0500000000000007
100
AcDbArc
 50
180.0
 51
270.0
  0
ARC
  5
2BC
330
70
100
AcDbEntity
  8
desuneko-65-plate-single-layout v5_0
100
AcDbCircle
 10
1.840625
 20
-9.2225
 30
0.0
 40
0.0499999999999989
100
AcDbArc
 50
270.0
 51
0.0
  0
ARC
  5
2BD
330
70
100
AcDbEntity
  8
desuneko-65-plate-single-layout v5_0
100
AcDbCircle
 10
30.1775
 20
-7.317499999999999
 30
0.0
 40
0.0499999999999998
100
AcDbArc
 50
270.0
 51
0.0
  0
LINE
  5
2BE
330
70
100
AcDbEntity
  8
desuneko-65-plate-single-layout v5_0
100
AcDbLine
 10
5.30275
 20
-9.2725
 30
0.0
 11
6.602749999999999
 21
-9.2725
 31
0.0
  0
LINE
  5
2BF
330
70
100
AcDbEntity
  8
desuneko-65-plate-single-layout v5_0
100
AcDbLine
 10
30.2275
 20
-7.922499999999998
 30
0.0
 11
30.2275
 21
-9.2225
 31
0.0
  0
ARC
  5
2C0
330
70
100
AcDbEntity
  8
desuneko-65-plate-single-layout v5_0
100
AcDbCircle
 10
28.27250000000001
 20
-9.2225
 30
0.0
 40
0.0500000000000007
100
AcDbArc
 50
270.0
 51
0.0
  0
ARC
  5
2C1
330
70
100
AcDbEntity
  8
desuneko-65-plate-single-layout v5_0
100
AcDbCircle
 10
26.9725
 20
-9.2225
 30
0.0
 40
0.0500000000000007
100
AcDbArc
 50
180.0
 51
270.0
  0
LINE
  5
2C2
330
70
100
AcDbEntity
  8
desuneko-65-plate-single-layout v5_0
100
AcDbLine
 10
26.9725
 20
-5.9675
 30
0.0
 11
28.27250000000001
 21
-5.9675
 31
0.0
  0
LINE
  5
2C3
330
70
100
AcDbEntity
  8
desuneko-65-plate-single-layout v5_0
100
AcDbLine
 10
1.890625
 20
-7.922499999999998
 30
0.0
 11
1.890625
 21
-9.2225
 31
0.0
  0
ARC
  5
2C4
330
70
100
AcDbEntity
  8
desuneko-65-plate-single-layout v5_0
100
AcDbCircle
 10
12.446875
 20
-9.2225
 30
0.0
 40
0.0500000000000007
100
AcDbArc
 50
180.0
 51
270.0
  0
ARC
  5
2C5
330
70
100
AcDbEntity
  8
desuneko-65-plate-single-layout v5_0
100
AcDbCircle
 10
28.27250000000001
 20
-6.0175
 30
0.0
 40
0.0500000000000007
100
AcDbArc
 50
0.0
 51
90.0
  0
ARC
  5
2C6
330
70
100
AcDbEntity
  8
desuneko-65-plate-single-layout v5_0
100
AcDbCircle
 10
28.8775
 20
-6.0175
 30
0.0
 40
0.0499999999999998
100
AcDbArc
 50
90.0
 51
180.0
  0
ARC
  5
2C7
330
70
100
AcDbEntity
  8
desuneko-65-plate-single-layout v5_0
100
AcDbCircle
 10
5.30275
 20
-7.922499999999998
 30
0.0
 40
0.0499999999999998
100
AcDbArc
 50
90.0
 51
180.0
  0
LINE
  5
2C8
330
70
100
AcDbEntity
  8
desuneko-65-plate-single-layout v5_0
100
AcDbLine
 10
24.64
 20
-7.620000000000001
 30
0.0
 11
23.93770785085632
 21
-7.620000000000001
 31
0.0
  0
LINE
  5
2C9
330
70
100
AcDbEntity
  8
desuneko-65-plate-single-layout v5_0
100
AcDbLine
 10
7.490469590245172
 20
-9.47499999999999
 30
0.0
 11
7.490469590245172
 21
-9.374999999999991
 31
0.0
  0
ARC
  5
2CA
330
70
100
AcDbEntity
  8
desuneko-65-plate-single-layout v5_0
100
AcDbCircle
 10
18.79748106709242
 20
-9.471319062919118
 30
0.0
 40
0.0500000000000028
100
AcDbArc
 50
180.0216103082839
 51
269.9557419570703
  0
LINE
  5
2CB
330
70
100
AcDbEntity
  8
desuneko-65-plate-single-layout v5_0
100
AcDbLine
 10
0.540625
 20
-9.2725
 30
0.0
 11
1.840625
 21
-9.272499999999999
 31
0.0
  0
ARC
  5
2CC
330
70
100
AcDbEntity
  8
desuneko-65-plate-single-layout v5_0
100
AcDbCircle
 10
23.93770785085632
 20
-7.745000000000001
 30
0.0
 40
0.125
100
AcDbArc
 50
90.0
 51
180.0951926492766
  0
ARC
  5
2CD
330
70
100
AcDbEntity
  8
desuneko-65-plate-single-layout v5_0
100
AcDbCircle
 10
19.590625
 20
-9.2225
 30
0.0
 40
0.0500000000000007
100
AcDbArc
 50
180.0
 51
270.0
  0
ARC
  5
2CE
330
70
100
AcDbEntity
  8
desuneko-65-plate-single-layout v5_0
100
AcDbCircle
 10
19.590625
 20
-7.922499999999998
 30
0.0
 40
0.0499999999999998
100
AcDbArc
 50
90.0
 51
180.0
  0
ARC
  5
2CF
330
70
100
AcDbEntity
  8
desuneko-65-plate-single-layout v5_0
100
AcDbCircle
 10
20.890625
 20
-7.922499999999998
 30
0.0
 40
0.0500000000000007
100
AcDbArc
 50
0.0
 51
90.0
  0
LINE
  5
2D0
330
70
100
AcDbEntity
  8
desuneko-65-plate-single-layout v5_0
100
AcDbLine
 10
21.971875
 20
-7.872499999999998
 30
0.0
 11
23.271875
 21
-7.872499999999998
 31
0.0
  0
ARC
  5
2D1
330
70
100
AcDbEntity
  8
desuneko-65-plate-single-layout v5_0
100
AcDbCircle
 10
23.271875
 20
-7.922499999999998
 30
0.0
 40
0.0500000000000007
100
AcDbArc
 50
0.0
 51
90.0
  0
ARC
  5
2D2
330
70
100
AcDbEntity
  8
desuneko-65-plate-single-layout v5_0
100
AcDbCircle
 10
23.271875
 20
-9.2225
 30
0.0
 40
0.0500000000000007
100
AcDbArc
 50
270.0
 51
0.0
  0
ARC
  5
2D3
330
70
100
AcDbEntity
  8
desuneko-65-plate-single-layout v5_0
100
AcDbCircle
 10
6.602749999999999
 20
-9.2225
 30
0.0
 40
0.0500000000000007
100
AcDbArc
 50
270.0
 51
0.0
  0
ARC
  5
2D4
330
70
100
AcDbEntity
  8
desuneko-65-plate-single-layout v5_0
100
AcDbCircle
 10
7.44046959024517
 20
-9.474999999999987
 30
0.0
 40
0.0500000000000025
100
AcDbArc
 50
270.0000000000031
 51
359.9999999999959
  0
ARC
  5
2D5
330
70
100
AcDbEntity
  8
desuneko-65-plate-single-layout v5_0
100
AcDbCircle
 10
8.640469590245169
 20
-9.382764052585098
 30
0.0
 40
0.0577640525851084
100
AcDbArc
 50
0.0
 51
89.99999999999824
  0
ARC
  5
2D6
330
70
100
AcDbEntity
  8
desuneko-65-plate-single-layout v5_0
100
AcDbCircle
 10
0.2525
 20
-9.272499999999999
 30
0.0
 40
0.2525
100
AcDbArc
 50
180.0
 51
270.0000000000001
  0
ARC
  5
2D7
330
70
100
AcDbEntity
  8
desuneko-65-plate-single-layout v5_0
100
AcDbCircle
 10
0.2523366496334364
 20
-0.2524999471616931
 30
0.0
 40
0.2525
100
AcDbArc
 50
89.96293351588574
 51
179.983993759282
  0
LINE
  5
2D8
330
70
100
AcDbEntity
  8
desuneko-65-plate-single-layout v5_0
100
AcDbLine
 10
23.321875
 20
-7.922499999999998
 30
0.0
 11
23.321875
 21
-9.2225
 31
0.0
  0
ARC
  5
2D9
330
70
100
AcDbEntity
  8
desuneko-65-plate-single-layout v5_0
100
AcDbCircle
 10
21.971875
 20
-7.922499999999998
 30
0.0
 40
0.0499999999999998
100
AcDbArc
 50
90.0
 51
180.0
  0
LINE
  5
2DA
330
70
100
AcDbEntity
  8
desuneko-65-plate-single-layout v5_0
100
AcDbLine
 10
19.540625
 20
-7.922499999999998
 30
0.0
 11
19.540625
 21
-9.2225
 31
0.0
  0
ARC
  5
2DB
330
70
100
AcDbEntity
  8
desuneko-65-plate-single-layout v5_0
100
AcDbCircle
 10
20.890625
 20
-9.2225
 30
0.0
 40
0.0500000000000007
100
AcDbArc
 50
270.0
 51
0.0
  0
LINE
  5
2DC
330
70
100
AcDbEntity
  8
desuneko-65-plate-single-layout v5_0
100
AcDbLine
 10
19.590625
 20
-9.2725
 30
0.0
 11
20.890625
 21
-9.2725
 31
0.0
  0
LINE
  5
2DD
330
70
100
AcDbEntity
  8
desuneko-65-plate-single-layout v5_0
100
AcDbLine
 10
0.540625
 20
-7.872499999999998
 30
0.0
 11
1.840625
 21
-7.872499999999998
 31
0.0
  0
LINE
  5
2DE
330
70
100
AcDbEntity
  8
desuneko-65-plate-single-layout v5_0
100
AcDbLine
 10
20.940625
 20
-7.922499999999998
 30
0.0
 11
20.940625
 21
-9.2225
 31
0.0
  0
LINE
  5
2DF
330
70
100
AcDbEntity
  8
desuneko-65-plate-single-layout v5_0
100
AcDbLine
 10
0.2525000000000004
 20
-9.525
 30
0.0
 11
7.440469590245172
 21
-9.524999999999989
 31
0.0
  0
ARC
  5
2E0
330
70
100
AcDbEntity
  8
desuneko-65-plate-single-layout v5_0
100
AcDbCircle
 10
26.9725
 20
-7.922499999999998
 30
0.0
 40
0.0499999999999998
100
AcDbArc
 50
90.0
 51
180.0
  0
LINE
  5
2E1
330
70
100
AcDbEntity
  8
desuneko-65-plate-single-layout v5_0
100
AcDbLine
 10
7.540469590245172
 20
-9.32499999999999
 30
0.0
 11
8.640469590245171
 21
-9.32499999999999
 31
0.0
  0
LINE
  5
2E2
330
70
100
AcDbEntity
  8
desuneko-65-plate-single-layout v5_0
100
AcDbLine
 10
25.0675
 20
-9.2725
 30
0.0
 11
26.36750000000001
 21
-9.2725
 31
0.0
  0
LINE
  5
2E3
330
70
100
AcDbEntity
  8
desuneko-65-plate-single-layout v5_0
100
AcDbLine
 10
8.698233642830278
 20
-9.382764052585098
 30
0.0
 11
8.698233642830278
 21
-9.474999999999987
 31
0.0
  0
LINE
  5
2E4
330
70
100
AcDbEntity
  8
desuneko-65-plate-single-layout v5_0
100
AcDbLine
 10
8.885846821986021
 20
-9.524999999999987
 30
0.0
 11
17.39750000355644
 21
-9.521789650834129
 31
0.0
  0
LINE
  5
2E5
330
70
100
AcDbEntity
  8
desuneko-65-plate-single-layout v5_0
100
AcDbLine
 10
24.765
 20
-9.272499999999999
 30
0.0
 11
24.765
 21
-7.745000000000001
 31
0.0
  0
LINE
  5
2E6
330
70
100
AcDbEntity
  8
desuneko-65-plate-single-layout v5_0
100
AcDbLine
 10
17.49761819467449
 20
-9.321752249861221
 30
0.0
 11
18.69072872891915
 21
-9.321752249861223
 31
0.0
  0
LINE
  5
2E7
330
70
100
AcDbEntity
  8
desuneko-65-plate-single-layout v5_0
100
AcDbLine
 10
23.81270802337713
 20
-7.745207678048655
 30
0.0
 11
23.81524481060789
 21
-9.272080490341723
 31
0.0
  0
ARC
  5
2E8
330
70
100
AcDbEntity
  8
desuneko-65-plate-single-layout v5_0
100
AcDbCircle
 10
25.0175
 20
-9.272499999999999
 30
0.0
 40
0.2525000000000013
100
AcDbArc
 50
180.0
 51
270.0
  0
ARC
  5
2E9
330
70
100
AcDbEntity
  8
desuneko-65-plate-single-layout v5_0
100
AcDbCircle
 10
19.590625
 20
-9.2225
 30
0.0
 40
0.0500000000000007
100
AcDbArc
 50
180.0
 51
270.0
  0
ARC
  5
2EA
330
70
100
AcDbEntity
  8
desuneko-65-plate-single-layout v5_0
100
AcDbCircle
 10
7.540469590245175
 20
-9.374999999999992
 30
0.0
 40
0.0500000000000025
100
AcDbArc
 50
90.00000000000305
 51
179.9999999999959
  0
LINE
  5
2EB
330
70
100
AcDbEntity
  8
desuneko-65-plate-single-layout v5_0
100
AcDbLine
 10
19.540625
 20
-7.922499999999998
 30
0.0
 11
19.540625
 21
-9.2225
 31
0.0
  0
LINE
  5
2EC
330
70
100
AcDbEntity
  8
desuneko-65-plate-single-layout v5_0
100
AcDbLine
 10
8.748233642830278
 20
-9.524999999999987
 30
0.0
 11
8.885846821986021
 21
-9.524999999999987
 31
0.0
  0
ARC
  5
2ED
330
70
100
AcDbEntity
  8
desuneko-65-plate-single-layout v5_0
100
AcDbCircle
 10
8.748233642830278
 20
-9.474999999999987
 30
0.0
 40
0.0500000000000007
100
AcDbArc
 50
180.0
 51
270.0
  0
ARC
  5
2EE
330
70
100
AcDbEntity
  8
desuneko-65-plate-single-layout v5_0
100
AcDbCircle
 10
30.2275
 20
-0.2524999999999999
 30
0.0
 40
0.2525000000000013
100
AcDbArc
 50
0.0
 51
90.0
  0
ARC
  5
2EF
330
70
100
AcDbEntity
  8
desuneko-65-plate-single-layout v5_0
100
AcDbCircle
 10
17.3974811450053
 20
-9.471789654390583
 30
0.0
 40
0.0499999999999957
100
AcDbArc
 50
270.0216103082737
 51
0.0216103082818821
  0
ARC
  5
2F0
330
70
100
AcDbEntity
  8
desuneko-65-plate-single-layout v5_0
100
AcDbCircle
 10
19.590625
 20
-7.922499999999998
 30
0.0
 40
0.0499999999999998
100
AcDbArc
 50
90.0
 51
180.0
  0
LINE
  5
2F1
330
70
100
AcDbEntity
  8
desuneko-65-plate-single-layout v5_0
100
AcDbLine
 10
19.590625
 20
-9.2725
 30
0.0
 11
20.890625
 21
-9.2725
 31
0.0
  0
LINE
  5
2F2
330
70
100
AcDbEntity
  8
desuneko-65-plate-single-layout v5_0
100
AcDbLine
 10
21.921875
 20
-7.922499999999998
 30
0.0
 11
21.921875
 21
-9.2225
 31
0.0
  0
LINE
  5
2F3
330
70
100
AcDbEntity
  8
desuneko-65-plate-single-layout v5_0
100
AcDbLine
 10
17.44748114144885
 20
-9.471770795839436
 30
0.0
 11
17.44744342434655
 21
-9.371770802952335
 31
0.0
  0
ARC
  5
2F4
330
70
100
AcDbEntity
  8
desuneko-65-plate-single-layout v5_0
100
AcDbCircle
 10
17.4974434207901
 20
-9.371751944401188
 30
0.0
 40
0.0500000000000063
100
AcDbArc
 50
89.7997234732689
 51
180.0216103082819
  0
LINE
  5
2F5
330
70
100
AcDbEntity
  8
desuneko-65-plate-single-layout v5_0
100
AcDbLine
 10
18.74744333187887
 20
-9.371280480622502
 30
0.0
 11
18.74748107064887
 21
-9.471337921470267
 31
0.0
  0
ARC
  5
2F6
330
70
100
AcDbEntity
  8
desuneko-65-plate-single-layout v5_0
100
AcDbCircle
 10
18.69744333543532
 20
-9.371299339173647
 30
0.0
 40
0.0499999999999992
100
AcDbArc
 50
0.021610308279845
 51
97.7176892181232
  0
ARC
  5
2F7
330
70
100
AcDbEntity
  8
desuneko-65-plate-single-layout v5_0
100
AcDbCircle
 10
21.971875
 20
-9.2225
 30
0.0
 40
0.0500000000000007
100
AcDbArc
 50
180.0
 51
270.0
  0
LINE
  5
2F8
330
70
100
AcDbEntity
  8
desuneko-65-plate-single-layout v5_0
100
AcDbLine
 10
26.9725
 20
-7.872499999999998
 30
0.0
 11
28.27250000000001
 21
-7.872499999999998
 31
0.0
  0
LINE
  5
2F9
330
70
100
AcDbEntity
  8
desuneko-65-plate-single-layout v5_0
100
AcDbLine
 10
18.79744244466778
 20
-9.521319048002201
 30
0.0
 11
23.56274515909992
 21
-9.524999999999998
 31
0.0
  0
LINE
  5
2FA
330
70
100
AcDbEntity
  8
desuneko-65-plate-single-layout v5_0
100
AcDbLine
 10
28.8775
 20
-9.2725
 30
0.0
 11
30.1775
 21
-9.2725
 31
0.0
  0
ARC
  5
2FB
330
70
100
AcDbEntity
  8
desuneko-65-plate-single-layout v5_0
100
AcDbCircle
 10
20.890625
 20
-9.2225
 30
0.0
 40
0.0500000000000007
100
AcDbArc
 50
270.0
 51
0.0
  0
ARC
  5
2FC
330
70
100
AcDbEntity
  8
desuneko-65-plate-single-layout v5_0
100
AcDbCircle
 10
30.2275
 20
-9.272499999999999
 30
0.0
 40
0.2524999999999995
100
AcDbArc
 50
270.0
 51
0.0
  0
LINE
  5
2FD
330
70
100
AcDbEntity
  8
desuneko-65-plate-single-layout v5_0
100
AcDbLine
 10
21.971875
 20
-9.2725
 30
0.0
 11
23.271875
 21
-9.2725
 31
0.0
  0
LINE
  5
2FE
330
70
100
AcDbEntity
  8
desuneko-65-plate-single-layout v5_0
100
AcDbLine
 10
25.0175
 20
-9.525
 30
0.0
 11
30.2275
 21
-9.524999999999998
 31
0.0
  0
LINE
  5
2FF
330
70
100
AcDbEntity
  8
desuneko-65-plate-single-layout v5_0
100
AcDbLine
 10
30.48
 20
-0.2524999999999999
 30
0.0
 11
30.48
 21
-9.272499999999999
 31
0.0
  0
LINE
  5
300
330
70
100
AcDbEntity
  8
desuneko-65-plate-single-layout v5_0
100
AcDbLine
 10
21.971875
 20
-9.2725
 30
0.0
 11
23.271875
 21
-9.2725
 31
0.0
  0
ARC
  5
301
330
70
100
AcDbEntity
  8
desuneko-65-plate-single-layout v5_0
100
AcDbCircle
 10
20.890625
 20
-7.922499999999998
 30
0.0
 40
0.0500000000000007
100
AcDbArc
 50
0.0
 51
90.0
  0
LINE
  5
302
330
70
100
AcDbEntity
  8
desuneko-65-plate-single-layout v5_0
100
AcDbLine
 10
20.940625
 20
-7.922499999999998
 30
0.0
 11
20.940625
 21
-9.2225
 31
0.0
  0
LINE
  5
303
330
70
100
AcDbEntity
  8
desuneko-65-plate-single-layout v5_0
100
AcDbLine
 10
19.590625
 20
-7.872499999999998
 30
0.0
 11
20.890625
 21
-7.872499999999998
 31
0.0
  0
ARC
  5
304
330
70
100
AcDbEntity
  8
desuneko-65-plate-single-layout v5_0
100
AcDbCircle
 10
1.840625
 20
-9.2225
 30
0.0
 40
0.0499999999999989
100
AcDbArc
 50
270.0
 51
0.0
  0
ARC
  5
305
330
70
100
AcDbEntity
  8
desuneko-65-plate-single-layout v5_0
100
AcDbCircle
 10
24.64
 20
-7.745000000000001
 30
0.0
 40
0.125
100
AcDbArc
 50
0.0
 51
90.0
  0
ARC
  5
306
330
70
100
AcDbEntity
  8
desuneko-65-plate-single-layout v5_0
100
AcDbCircle
 10
1.840625
 20
-7.922499999999998
 30
0.0
 40
0.0499999999999998
100
AcDbArc
 50
0.0
 51
90.0
  0
LINE
  5
307
330
70
100
AcDbEntity
  8
desuneko-65-plate-single-layout v5_0
100
AcDbLine
 10
19.590625
 20
-7.872499999999998
 30
0.0
 11
20.890625
 21
-7.872499999999998
 31
0.0
  0
ARC
  5
308
330
70
100
AcDbEntity
  8
desuneko-65-plate-single-layout v5_0
100
AcDbCircle
 10
4.760167011848167
 20
-0.0766537553806377
 30
0.0
 40
0.0499999999999995
100
AcDbArc
 50
270.0
 51
0.0000000000006043
  0
LINE
  5
309
330
70
100
AcDbEntity
  8
desuneko-65-plate-single-layout v5_0
100
AcDbLine
 10
24.77620005054026
 20
0.0006547219641054
 30
0.0
 11
24.5125
 21
0.0006547219640866
 31
0.0
  0
ARC
  5
30A
330
70
100
AcDbEntity
  8
desuneko-65-plate-single-layout v5_0
100
AcDbCircle
 10
23.51009657753035
 20
-0.0748846735457229
 30
0.0
 40
0.050000000000002
100
AcDbArc
 50
359.9996461687575
 51
89.99964616875715
  0
LINE
  5
30B
330
70
100
AcDbEntity
  8
desuneko-65-plate-single-layout v5_0
100
AcDbLine
 10
4.460167011848167
 20
-0.0266537553806372
 30
0.0
 11
4.460167011848167
 21
-0.0266537553806373
 31
0.0
  0
LINE
  5
30C
330
70
100
AcDbEntity
  8
desuneko-65-plate-single-layout v5_0
100
AcDbLine
 10
27.21385265599083
 20
-0.0477402611380978
 30
0.0
 11
27.21395800059938
 21
-0.1477711868502177
 31
0.0
  0
ARC
  5
30D
330
70
100
AcDbEntity
  8
desuneko-65-plate-single-layout v5_0
100
AcDbCircle
 10
27.16385268371736
 20
-0.0477929171289294
 30
0.0
 40
0.0500000000000064
100
AcDbArc
 50
0.0603393319679328
 51
90.06033933195979
  0
ARC
  5
30E
330
70
100
AcDbEntity
  8
desuneko-65-plate-single-layout v5_0
100
AcDbCircle
 10
28.42685
 20
-0.1472146446456237
 30
0.0
 40
0.0499999999999994
100
AcDbArc
 50
270.0248265109091
 51
0.0000000000006997
  0
LINE
  5
30F
330
70
100
AcDbEntity
  8
desuneko-65-plate-single-layout v5_0
100
AcDbLine
 10
28.47685
 20
-0.0472732190695872
 30
0.0
 11
28.47685
 21
-0.1472146446456231
 31
0.0
  0
LINE
  5
310
330
70
100
AcDbEntity
  8
desuneko-65-plate-single-layout v5_0
100
AcDbLine
 10
26.17614734400917
 20
0.0011669379546878
 30
0.0
 11
27.16380002772654
 21
0.0022070551445346
 31
0.0
  0
ARC
  5
311
330
70
100
AcDbEntity
  8
desuneko-65-plate-single-layout v5_0
100
AcDbCircle
 10
3.060167011848168
 20
-0.0766537553806375
 30
0.0
 40
0.0499999999999997
100
AcDbArc
 50
270.0
 51
0.0000000000003022
  0
LINE
  5
312
330
70
100
AcDbEntity
  8
desuneko-65-plate-single-layout v5_0
100
AcDbLine
 10
4.810167011848167
 20
-0.0766537553806372
 30
0.0
 11
4.810167011848167
 21
-0.0500000000000001
 31
0.0
  0
LINE
  5
313
330
70
100
AcDbEntity
  8
desuneko-65-plate-single-layout v5_0
100
AcDbLine
 10
22.11009626878104
 20
-0.1248760278165132
 30
0.0
 11
21.91013751119533
 21
-0.1248747929671685
 31
0.0
  0
ARC
  5
314
330
70
100
AcDbEntity
  8
desuneko-65-plate-single-layout v5_0
100
AcDbCircle
 10
22.21009657755515
 20
-0.0748766453694876
 30
0.0
 40
0.0500000000000042
100
AcDbArc
 50
89.99964616876122
 51
179.9996461687523
  0
LINE
  5
315
330
70
100
AcDbEntity
  8
desuneko-65-plate-single-layout v5_0
100
AcDbLine
 10
0.2525145478176718
 20
0.0000008830228608
 30
0.0
 11
2.760199368918439
 21
-0.0016214192364279
 31
0.0
  0
LINE
  5
316
330
70
100
AcDbEntity
  8
desuneko-65-plate-single-layout v5_0
100
AcDbLine
 10
0.2525
 20
0.0
 30
0.0
 11
0.2525145478176718
 21
0.0000008830228608
 31
0.0
  0
ARC
  5
317
330
70
100
AcDbEntity
  8
desuneko-65-plate-single-layout v5_0
100
AcDbCircle
 10
27.26395797287283
 20
-0.1477185308593934
 30
0.0
 40
0.0499999999999993
100
AcDbArc
 50
180.0603393319595
 51
270.0248265109091
  0
ARC
  5
318
330
70
100
AcDbEntity
  8
desuneko-65-plate-single-layout v5_0
100
AcDbCircle
 10
3.160167011848168
 20
-0.0766537553806368
 30
0.0
 40
0.0499999999999998
100
AcDbArc
 50
90.0
 51
180.0000000000003
  0
LINE
  5
319
330
70
100
AcDbEntity
  8
desuneko-65-plate-single-layout v5_0
100
AcDbLine
 10
27.26397963809001
 20
-0.197718526165576
 30
0.0
 11
28.42687166521718
 21
-0.1972146399518066
 31
0.0
  0
LINE
  5
31A
330
70
100
AcDbEntity
  8
desuneko-65-plate-single-layout v5_0
100
AcDbLine
 10
24.5125
 20
0.0006547219640866
 30
0.0
 11
23.90999946556985
 21
0.0
 31
0.0
  0
LINE
  5
31B
330
70
100
AcDbEntity
  8
desuneko-65-plate-single-layout v5_0
100
AcDbLine
 10
26.1262
 20
-0.0488330343187703
 30
0.0
 11
26.12620054802062
 21
-0.1492087138726865
 31
0.0
  0
ARC
  5
31C
330
70
100
AcDbEntity
  8
desuneko-65-plate-single-layout v5_0
100
AcDbCircle
 10
24.87623776971168
 20
-0.1488536395201648
 30
0.0
 40
0.0499656720876658
100
AcDbArc
 50
179.9763732063242
 51
269.9566887271796
  0
LINE
  5
31D
330
70
100
AcDbEntity
  8
desuneko-65-plate-single-layout v5_0
100
AcDbLine
 10
23.86024295218462
 20
-0.0291832877332672
 30
0.0
 11
23.86024295218462
 21
-0.0541832877332672
 31
0.0
  0
LINE
  5
31E
330
70
100
AcDbEntity
  8
desuneko-65-plate-single-layout v5_0
100
AcDbLine
 10
21.81020000000001
 20
0.0000000000000028
 30
0.0
 11
21.81015844855777
 21
0.0000000000000025
 31
0.0
  0
LINE
  5
31F
330
70
100
AcDbEntity
  8
desuneko-65-plate-single-layout v5_0
100
AcDbLine
 10
23.80999946780503
 20
-0.1249999972060323
 30
0.0
 11
23.61009626875244
 21
-0.1248852910967892
 31
0.0
  0
LINE
  5
320
330
70
100
AcDbEntity
  8
desuneko-65-plate-single-layout v5_0
100
AcDbLine
 10
21.86015843130689
 20
-0.0500415341770161
 30
0.0
 11
21.86013783722221
 21
-0.0748332587911051
 31
0.0
  0
ARC
  5
321
330
70
100
AcDbEntity
  8
desuneko-65-plate-single-layout v5_0
100
AcDbCircle
 10
22.11009657755705
 20
-0.0748760278174682
 30
0.0
 40
0.0499999999999985
100
AcDbArc
 50
269.9996461687571
 51
359.9996461687607
  0
ARC
  5
322
330
70
100
AcDbEntity
  8
desuneko-65-plate-single-layout v5_0
100
AcDbCircle
 10
21.81015844855778
 20
-0.0499999999999965
 30
0.0
 40
0.0499999999999989
100
AcDbArc
 50
359.9524053335509
 51
90.00000000000406
  0
LINE
  5
323
330
70
100
AcDbEntity
  8
desuneko-65-plate-single-layout v5_0
100
AcDbLine
 10
21.81020000000001
 20
0.0000000000000028
 30
0.0
 11
4.860167011848165
 21
-0.0000000000000001
 31
0.0
  0
LINE
  5
324
330
70
100
AcDbEntity
  8
desuneko-65-plate-single-layout v5_0
100
AcDbLine
 10
3.110167011848168
 20
-0.0766537553806372
 30
0.0
 11
3.110167011848168
 21
-0.0766537553806371
 31
0.0
  0
LINE
  5
325
330
70
100
AcDbEntity
  8
desuneko-65-plate-single-layout v5_0
100
AcDbLine
 10
2.860167011848168
 20
-0.1266537553806373
 30
0.0
 11
3.060167011848168
 21
-0.1266537553806372
 31
0.0
  0
ARC
  5
326
330
70
100
AcDbEntity
  8
desuneko-65-plate-single-layout v5_0
100
AcDbCircle
 10
2.860167011848168
 20
-0.0766537553806375
 30
0.0
 40
0.0499999999999998
100
AcDbArc
 50
179.9999999999996
 51
270.0
  0
ARC
  5
327
330
70
100
AcDbEntity
  8
desuneko-65-plate-single-layout v5_0
100
AcDbCircle
 10
26.07535960772795
 20
-0.1479702184658185
 30
0.0
 40
0.0508560230525394
100
AcDbArc
 50
270.9468518999133
 51
358.6045394146473
  0
LINE
  5
328
330
70
100
AcDbEntity
  8
desuneko-65-plate-single-layout v5_0
100
AcDbLine
 10
23.5600965775294
 20
-0.0748849823217317
 30
0.0
 11
23.5600965775294
 21
-0.0748849823217318
 31
0.0
  0
ARC
  5
329
330
70
100
AcDbEntity
  8
desuneko-65-plate-single-layout v5_0
100
AcDbCircle
 10
23.61009657752844
 20
-0.0748852910977466
 30
0.0
 40
0.0499999999999949
100
AcDbArc
 50
179.9996461687506
 51
269.9996461687612
  0
LINE
  5
32A
330
70
100
AcDbEntity
  8
desuneko-65-plate-single-layout v5_0
100
AcDbLine
 10
24.82627210187223
 20
-0.1488330354093234
 30
0.0
 11
24.82627210187223
 21
-0.0499999528905517
 31
0.0
  0
LINE
  5
32B
330
70
100
AcDbEntity
  8
desuneko-65-plate-single-layout v5_0
100
AcDbLine
 10
26.0762
 20
-0.1988192973321017
 30
0.0
 11
24.87619999944888
 21
-0.1988192973321007
 31
0.0
  0
ARC
  5
32C
330
70
100
AcDbEntity
  8
desuneko-65-plate-single-layout v5_0
100
AcDbCircle
 10
4.560167011848167
 20
-0.0766537553806372
 30
0.0
 40
0.0499999999999998
100
AcDbArc
 50
179.9999999999999
 51
270.0
  0
LINE
  5
32D
330
70
100
AcDbEntity
  8
desuneko-65-plate-single-layout v5_0
100
AcDbLine
 10
2.810167011848168
 20
-0.0516537553806372
 30
0.0
 11
2.810167011848168
 21
-0.0766537553806372
 31
0.0
  0
ARC
  5
32E
330
70
100
AcDbEntity
  8
desuneko-65-plate-single-layout v5_0
100
AcDbCircle
 10
26.1762
 20
-0.0488330343187715
 30
0.0
 40
0.0500000000000007
100
AcDbArc
 50
90.06033933196386
 51
179.9999999999986
  0
ARC
  5
32F
330
70
100
AcDbEntity
  8
desuneko-65-plate-single-layout v5_0
100
AcDbCircle
 10
4.860167011848166
 20
-0.049999999999999
 30
0.0
 40
0.0499999999999989
100
AcDbArc
 50
90.00000000000103
 51
180.0000000000011
  0
ARC
  5
330
330
70
100
AcDbEntity
  8
desuneko-65-plate-single-layout v5_0
100
AcDbCircle
 10
28.52685
 20
-0.0472732190695854
 30
0.0
 40
0.0499999999999983
100
AcDbArc
 50
89.90813125118313
 51
180.000000000002
  0
LINE
  5
331
330
70
100
AcDbEntity
  8
desuneko-65-plate-single-layout v5_0
100
AcDbLine
 10
28.52693017057298
 20
0.0027267166571638
 30
0.0
 11
30.2275
 21
0.0
 31
0.0
  0
ARC
  5
332
330
70
100
AcDbEntity
  8
desuneko-65-plate-single-layout v5_0
100
AcDbCircle
 10
23.81012655307769
 20
-0.0749266947420006
 30
0.0
 40
0.0500734637340071
100
AcDbArc
 50
269.8545845037289
 51
0.0459614994522722
  0
LINE
  5
333
330
70
100
AcDbEntity
  8
desuneko-65-plate-single-layout v5_0
100
AcDbLine
 10
23.86024295218462
 20
-0.0541832877332672
 30
0.0
 11
23.86020000070076
 21
-0.0748865268404778
 31
0.0
  0
LINE
  5
334
330
70
100
AcDbEntity
  8
desuneko-65-plate-single-layout v5_0
100
AcDbLine
 10
22.1600965775561
 20
-0.0748763365934742
 30
0.0
 11
22.1600965775561
 21
-0.0748763365934743
 31
0.0
  0
LINE
  5
335
330
70
100
AcDbEntity
  8
desuneko-65-plate-single-layout v5_0
100
AcDbLine
 10
4.510167011848167
 20
-0.0766537553806372
 30
0.0
 11
4.510167011848167
 21
-0.0766537553806372
 31
0.0
  0
ARC
  5
336
330
70
100
AcDbEntity
  8
desuneko-65-plate-single-layout v5_0
100
AcDbCircle
 10
4.460167011848167
 20
-0.0766537553806371
 30
0.0
 40
0.0499999999999998
100
AcDbArc
 50
359.9999999999999
 51
90.0
  0
ARC
  5
337
330
70
100
AcDbEntity
  8
desuneko-65-plate-single-layout v5_0
100
AcDbCircle
 10
2.7601670223112
 20
-0.0516214087733966
 30
0.0
 40
0.0499999999999996
100
AcDbArc
 50
359.9629335158854
 51
89.96293351588629
  0
ARC
  5
338
330
70
100
AcDbEntity
  8
desuneko-65-plate-single-layout v5_0
100
AcDbCircle
 10
23.90687782177124
 20
-0.0516859291497664
 30
0.0
 40
0.0517801113563896
100
AcDbArc
 50
86.5437398772006
 51
154.2413784506154
  0
LINE
  5
339
330
70
100
AcDbEntity
  8
desuneko-65-plate-single-layout v5_0
100
AcDbLine
 10
23.51009688630636
 20
-0.0248846735466744
 30
0.0
 11
22.21009688633115
 21
-0.0248766453704368
 31
0.0
  0
ARC
  5
33A
330
70
100
AcDbEntity
  8
desuneko-65-plate-single-layout v5_0
100
AcDbCircle
 10
21.91013781997134
 20
-0.0748747929681184
 30
0.0
 40
0.050000000000006
100
AcDbArc
 50
179.952405333558
 51
269.9996461687571
  0
LINE
  5
33B
330
70
100
AcDbEntity
  8
desuneko-65-plate-single-layout v5_0
100
AcDbLine
 10
4.760167011848167
 20
-0.1266537553806372
 30
0.0
 11
4.560167011848167
 21
-0.1266537553806371
 31
0.0
  0
ARC
  5
33C
330
70
100
AcDbEntity
  8
desuneko-65-plate-single-layout v5_0
100
AcDbCircle
 10
24.77598195074943
 20
-0.0496362712333077
 30
0.0
 40
0.0502914661180303
100
AcDbArc
 50
359.5856631895599
 51
89.75152371443513
  0
LINE
  5
33D
330
70
100
AcDbEntity
  8
desuneko-65-plate-single-layout v5_0
100
AcDbLine
 10
3.160167011848168
 20
-0.0266537553806371
 30
0.0
 11
4.460167011848167
 21
-0.0266537553806372
 31
0.0
  0
ENDSEC
  0
SECTION
  2
OBJECTS
  0
DICTIONARY
  5
C
330
0
100
AcDbDictionary
281
     1
  3
ACAD_COLOR
350
63
  3
ACAD_DETAILVIEWSTYLE
350
6A
  3
ACAD_GROUP
350
D
  3
ACAD_LAYOUT
350
62
  3
ACAD_MATERIAL
350
10
  3
ACAD_MLEADERSTYLE
350
66
  3
ACAD_MLINESTYLE
350
5F
  3
ACAD_PLOTSETTINGS
350
61
  3
ACAD_PLOTSTYLENAME
350
E
  3
ACAD_SCALELIST
350
42
  3
ACAD_SECTIONVIEWSTYLE
350
68
  3
ACAD_TABLESTYLE
350
64
  3
ACAD_VISUALSTYLE
350
29
  3
ACDB_RECOMPOSE_DATA
350
346
  3
AcDbVariableDictionary
350
33E
  0
DICTIONARY
  5
63
102
{ACAD_REACTORS
330
C
102
}
330
C
100
AcDbDictionary
281
     1
  0
DICTIONARY
  5
6A
102
{ACAD_REACTORS
330
C
102
}
330
C
100
AcDbDictionary
281
     1
  3
Imperial24
350
6B
  0
DICTIONARY
  5
D
102
{ACAD_REACTORS
330
C
102
}
330
C
100
AcDbDictionary
281
     1
  0
DICTIONARY
  5
62
102
{ACAD_REACTORS
330
C
102
}
330
C
100
AcDbDictionary
281
     1
  3
Layout1
350
6F
  3
Layout2
350
77
  3
Model
350
73
  0
DICTIONARY
  5
10
102
{ACAD_REACTORS
330
C
102
}
330
C
100
AcDbDictionary
281
     1
  3
ByBlock
350
19
  3
ByLayer
350
11
  3
Global
350
21
  0
DICTIONARY
  5
66
102
{ACAD_REACTORS
330
C
102
}
330
C
100
AcDbDictionary
281
     1
  3
Standard
350
67
  0
DICTIONARY
  5
5F
102
{ACAD_REACTORS
330
C
102
}
330
C
100
AcDbDictionary
281
     1
  3
Standard
350
60
  0
DICTIONARY
  5
61
102
{ACAD_REACTORS
330
C
102
}
330
C
100
AcDbDictionary
281
     1
  0
ACDBDICTIONARYWDFLT
  5
E
102
{ACAD_REACTORS
330
C
102
}
330
C
100
AcDbDictionary
281
     1
  3
Normal
350
F
100
AcDbDictionaryWithDefault
340
F
  0
DICTIONARY
  5
42
102
{ACAD_REACTORS
330
C
102
}
330
C
100
AcDbDictionary
281
     1
  3
A0
350
43
  3
A1
350
44
  3
A2
350
45
  3
A3
350
46
  3
A4
350
47
  3
A5
350
48
  3
A6
350
49
  3
A7
350
4A
  3
A8
350
4B
  3
A9
350
4C
  3
B0
350
4D
  3
B1
350
4E
  3
B2
350
4F
  3
B3
350
50
  3
B4
350
51
  3
B5
350
52
  3
B6
350
53
  0
DICTIONARY
  5
68
102
{ACAD_REACTORS
330
C
102
}
330
C
100
AcDbDictionary
281
     1
  3
Imperial24
350
69
  0
DICTIONARY
  5
64
102
{ACAD_REACTORS
330
C
102
}
330
C
100
AcDbDictionary
281
     1
  3
Standard
350
65
  0
DICTIONARY
  5
29
102
{ACAD_REACTORS
330
C
102
}
330
C
100
AcDbDictionary
281
     1
  3
2dWireframe
350
2F
  3
Basic
350
2E
  3
Brighten
350
35
  3
ColorChange
350
39
  3
Conceptual
350
32
  3
Dim
350
34
  3
EdgeColorOff
350
41
  3
Facepattern
350
38
  3
Flat
350
2A
  3
FlatWithEdges
350
2B
  3
Gouraud
350
2C
  3
GouraudWithEdges
350
2D
  3
Hidden
350
31
  3
JitterOff
350
3F
  3
Linepattern
350
37
  3
OverhangOff
350
40
  3
Realistic
350
33
  3
Shaded
350
3E
  3
Shaded with edges
350
3D
  3
Shades of Gray
350
3A
  3
Sketchy
350
3B
  3
Thicken
350
36
  3
Wireframe
350
30
  3
X-Ray
350
3C
  0
XRECORD
  5
346
102
{ACAD_REACTORS
330
C
102
}
330
C
100
AcDbXrecord
280
     1
 90
        1
330
65
  0
DICTIONARY
  5
33E
102
{ACAD_REACTORS
330
C
102
}
330
C
100
AcDbDictionary
281
     1
  3
CANNOSCALE
350
343
  3
CMLEADERSTYLE
350
340
  3
CTABLESTYLE
350
33F
  3
CVIEWDETAILSTYLE
350
341
  3
CVIEWSECTIONSTYLE
350
342
  0
ACDBDETAILVIEWSTYLE
  5
6B
102
{ACAD_XDICTIONARY
360
349
102
}
102
{ACAD_REACTORS
330
6A
102
}
330
6A
100
AcDbModelDocViewStyle
 70
     0
  3
Imperial24
290
     0
100
AcDbDetailViewStyle
 70
     0
 71
     0
 90
        3
 71
     1
340
55
 62
   256
 40
0.24
340
0
 62
   256
 40
0.24
300

 40
0.36
280
     3
 71
     2
340
5D
 90
       25
 62
   256
 71
     3
340
55
 62
   256
 40
0.24
 90
        1
 40
0.75
 90
        1
300
%<\AcVar ViewType \f "%tc1">% %<\AcVar ViewDetailId>%\PSCALE %<\AcVar ViewScale \f "%sn">%
 71
     4
340
5D
 90
       25
 62
   256
340
5D
 90
       25
 62
   256
280
     0
  0
LAYOUT
  5
6F
102
{ACAD_REACTORS
330
62
102
}
330
62
100
AcDbPlotSettings
  1

  2

  4

  6

 40
0.0
 41
0.0
 42
0.0
 43
0.0
 44
0.0
 45
0.0
 46
0.0
 47
0.0
 48
0.0
 49
0.0
140
0.0
141
0.0
142
1.0
143
1.0
 70
   688
 72
     0
 73
     0
 74
     5
  7

 75
    16
147
1.0
 76
     0
 77
     2
 78
   300
148
0.0
149
0.0
100
AcDbLayout
  1
Layout1
 70
     1
 71
     1
 10
0.0
 20
0.0
 11
12.0
 21
9.0
 12
0.0
 22
0.0
 32
0.0
 14
0.0
 24
0.0
 34
0.0
 15
0.0
 25
0.0
 35
0.0
146
0.0
 13
0.0
 23
0.0
 33
0.0
 16
1.0
 26
0.0
 36
0.0
 17
0.0
 27
1.0
 37
0.0
 76
     0
330
6C
  0
LAYOUT
  5
77
102
{ACAD_REACTORS
330
62
102
}
330
62
100
AcDbPlotSettings
  1

  2

  4

  6

 40
0.0
 41
0.0
 42
0.0
 43
0.0
 44
0.0
 45
0.0
 46
0.0
 47
0.0
 48
0.0
 49
0.0
140
0.0
141
0.0
142
1.0
143
1.0
 70
   688
 72
     0
 73
     0
 74
     5
  7

 75
    16
147
1.0
 76
     0
 77
     2
 78
   300
148
0.0
149
0.0
100
AcDbLayout
  1
Layout2
 70
     1
 71
     2
 10
0.0
 20
0.0
 11
12.0
 21
9.0
 12
0.0
 22
0.0
 32
0.0
 14
0.0
 24
0.0
 34
0.0
 15
0.0
 25
0.0
 35
0.0
146
0.0
 13
0.0
 23
0.0
 33
0.0
 16
1.0
 26
0.0
 36
0.0
 17
0.0
 27
1.0
 37
0.0
 76
     0
330
74
  0
LAYOUT
  5
73
102
{ACAD_REACTORS
330
62
102
}
330
62
100
AcDbPlotSettings
  1

  2

  4

  6

 40
0.0
 41
0.0
 42
0.0
 43
0.0
 44
0.0
 45
0.0
 46
0.0
 47
0.0
 48
0.0
 49
0.0
140
0.0
141
0.0
142
1.0
143
1.0
 70
  1712
 72
     0
 73
     0
 74
     0
  7

 75
     0
147
1.0
 76
     0
 77
     2
 78
   300
148
0.0
149
0.0
100
AcDbLayout
  1
Model
 70
     1
 71
     0
 10
0.0
 20
0.0
 11
12.0
 21
9.0
 12
0.0
 22
0.0
 32
0.0
 14
0.0
 24
0.0
 34
0.0
 15
0.0
 25
0.0
 35
0.0
146
0.0
 13
0.0
 23
0.0
 33
0.0
 16
1.0
 26
0.0
 36
0.0
 17
0.0
 27
1.0
 37
0.0
 76
     0
330
70
  0
MATERIAL
  5
19
102
{ACAD_XDICTIONARY
360
1A
102
}
102
{ACAD_REACTORS
330
10
102
}
330
10
100
AcDbMaterial
  1
ByBlock
 72
     0
 43
0.0208333333333333
 43
0.0
 43
0.0
 43
0.0
 43
0.0
 43
0.0208333333333333
 43
0.0
 43
0.0
 43
0.0
 43
0.0
 43
1.0
 43
0.0
 43
0.0
 43
0.0
 43
0.0
 43
1.0
 77
     0
 47
0.0208333333333333
 47
0.0
 47
0.0
 47
0.0
 47
0.0
 47
0.0208333333333333
 47
0.0
 47
0.0
 47
0.0
 47
0.0
 47
1.0
 47
0.0
 47
0.0
 47
0.0
 47
0.0
 47
1.0
171
     0
 49
0.0208333333333333
 49
0.0
 49
0.0
 49
0.0
 49
0.0
 49
0.0208333333333333
 49
0.0
 49
0.0
 49
0.0
 49
0.0
 49
1.0
 49
0.0
 49
0.0
 49
0.0
 49
0.0
 49
1.0
175
     0
142
0.0208333333333333
142
0.0
142
0.0
142
0.0
142
0.0
142
0.0208333333333333
142
0.0
142
0.0
142
0.0
142
0.0
142
1.0
142
0.0
142
0.0
142
0.0
142
0.0
142
1.0
179
     0
144
0.0208333333333333
144
0.0
144
0.0
144
0.0
144
0.0
144
0.0208333333333333
144
0.0
144
0.0
144
0.0
144
0.0
144
1.0
144
0.0
144
0.0
144
0.0
144
0.0
144
1.0
147
0.0208333333333333
147
0.0
147
0.0
147
0.0
147
0.0
147
0.0208333333333333
147
0.0
147
0.0
147
0.0
147
0.0
147
1.0
147
0.0
147
0.0
147
0.0
147
0.0
147
1.0
  0
MATERIAL
  5
11
102
{ACAD_XDICTIONARY
360
12
102
}
102
{ACAD_REACTORS
330
10
102
}
330
10
100
AcDbMaterial
  1
ByLayer
 72
     0
 43
0.0208333333333333
 43
0.0
 43
0.0
 43
0.0
 43
0.0
 43
0.0208333333333333
 43
0.0
 43
0.0
 43
0.0
 43
0.0
 43
1.0
 43
0.0
 43
0.0
 43
0.0
 43
0.0
 43
1.0
 77
     0
 47
0.0208333333333333
 47
0.0
 47
0.0
 47
0.0
 47
0.0
 47
0.0208333333333333
 47
0.0
 47
0.0
 47
0.0
 47
0.0
 47
1.0
 47
0.0
 47
0.0
 47
0.0
 47
0.0
 47
1.0
171
     0
 49
0.0208333333333333
 49
0.0
 49
0.0
 49
0.0
 49
0.0
 49
0.0208333333333333
 49
0.0
 49
0.0
 49
0.0
 49
0.0
 49
1.0
 49
0.0
 49
0.0
 49
0.0
 49
0.0
 49
1.0
175
     0
142
0.0208333333333333
142
0.0
142
0.0
142
0.0
142
0.0
142
0.0208333333333333
142
0.0
142
0.0
142
0.0
142
0.0
142
1.0
142
0.0
142
0.0
142
0.0
142
0.0
142
1.0
179
     0
144
0.0208333333333333
144
0.0
144
0.0
144
0.0
144
0.0
144
0.0208333333333333
144
0.0
144
0.0
144
0.0
144
0.0
144
1.0
144
0.0
144
0.0
144
0.0
144
0.0
144
1.0
147
0.0208333333333333
147
0.0
147
0.0
147
0.0
147
0.0
147
0.0208333333333333
147
0.0
147
0.0
147
0.0
147
0.0
147
1.0
147
0.0
147
0.0
147
0.0
147
0.0
147
1.0
  0
MATERIAL
  5
21
102
{ACAD_XDICTIONARY
360
22
102
}
102
{ACAD_REACTORS
330
10
102
}
330
10
100
AcDbMaterial
  1
Global
 72
     0
 43
0.0208333333333333
 43
0.0
 43
0.0
 43
0.0
 43
0.0
 43
0.0208333333333333
 43
0.0
 43
0.0
 43
0.0
 43
0.0
 43
1.0
 43
0.0
 43
0.0
 43
0.0
 43
0.0
 43
1.0
 77
     0
 47
0.0208333333333333
 47
0.0
 47
0.0
 47
0.0
 47
0.0
 47
0.0208333333333333
 47
0.0
 47
0.0
 47
0.0
 47
0.0
 47
1.0
 47
0.0
 47
0.0
 47
0.0
 47
0.0
 47
1.0
171
     0
 49
0.0208333333333333
 49
0.0
 49
0.0
 49
0.0
 49
0.0
 49
0.0208333333333333
 49
0.0
 49
0.0
 49
0.0
 49
0.0
 49
1.0
 49
0.0
 49
0.0
 49
0.0
 49
0.0
 49
1.0
175
     0
142
0.0208333333333333
142
0.0
142
0.0
142
0.0
142
0.0
142
0.0208333333333333
142
0.0
142
0.0
142
0.0
142
0.0
142
1.0
142
0.0
142
0.0
142
0.0
142
0.0
142
1.0
179
     0
144
0.0208333333333333
144
0.0
144
0.0
144
0.0
144
0.0
144
0.0208333333333333
144
0.0
144
0.0
144
0.0
144
0.0
144
1.0
144
0.0
144
0.0
144
0.0
144
0.0
144
1.0
147
0.0208333333333333
147
0.0
147
0.0
147
0.0
147
0.0
147
0.0208333333333333
147
0.0
147
0.0
147
0.0
147
0.0
147
1.0
147
0.0
147
0.0
147
0.0
147
0.0
147
1.0
  0
MLEADERSTYLE
  5
67
102
{ACAD_REACTORS
330
66
102
}
330
66
100
AcDbMLeaderStyle
179
     2
170
     2
171
     1
172
     0
 90
        2
 40
0.0
 41
0.0
173
     1
 91
-1056964608
340
5B
 92
       -2
290
     1
 42
0.09
291
     1
 43
0.36
  3
Standard
 44
0.18
300

342
55
174
     1
178
     6
175
     1
176
     0
 93
-1056964608
 45
0.18
292
     0
297
     0
 46
0.18
 94
-1056964608
 47
1.0
 49
1.0
140
1.0
293
     1
141
0.0
294
     1
177
     0
142
1.0
295
     0
296
     0
143
0.125
271
     0
272
     9
273
     9
298
     1
  0
MLINESTYLE
  5
60
102
{ACAD_REACTORS
330
5F
102
}
330
5F
100
AcDbMlineStyle
  2
STANDARD
 70
     0
  3

 62
   256
 51
90.0
 52
90.0
 71
     2
 49
0.5
 62
   256
  6
BYLAYER
 49
-0.5
 62
   256
  6
BYLAYER
  0
ACDBPLACEHOLDER
  5
F
102
{ACAD_REACTORS
330
E
102
}
330
E
  0
SCALE
  5
43
102
{ACAD_REACTORS
330
42
102
}
330
42
100
AcDbScale
 70
     0
300
1:1
140
1.0
141
1.0
290
     1
  0
SCALE
  5
44
102
{ACAD_REACTORS
330
42
102
}
330
42
100
AcDbScale
 70
     0
300
1/128" = 1'-0"
140
0.0078125
141
12.0
290
     0
  0
SCALE
  5
45
102
{ACAD_REACTORS
330
42
102
}
330
42
100
AcDbScale
 70
     0
300
1/64" = 1'-0"
140
0.015625
141
12.0
290
     0
  0
SCALE
  5
46
102
{ACAD_REACTORS
330
42
102
}
330
42
100
AcDbScale
 70
     0
300
1/32" = 1'-0"
140
0.03125
141
12.0
290
     0
  0
SCALE
  5
47
102
{ACAD_REACTORS
330
42
102
}
330
42
100
AcDbScale
 70
     0
300
1/16" = 1'-0"
140
0.0625
141
12.0
290
     0
  0
SCALE
  5
48
102
{ACAD_REACTORS
330
42
102
}
330
42
100
AcDbScale
 70
     0
300
3/32" = 1'-0"
140
0.09375
141
12.0
290
     0
  0
SCALE
  5
49
102
{ACAD_REACTORS
330
42
102
}
330
42
100
AcDbScale
 70
     0
300
1/8" = 1'-0"
140
0.125
141
12.0
290
     0
  0
SCALE
  5
4A
102
{ACAD_REACTORS
330
42
102
}
330
42
100
AcDbScale
 70
     0
300
3/16" = 1'-0"
140
0.1875
141
12.0
290
     0
  0
SCALE
  5
4B
102
{ACAD_REACTORS
330
42
102
}
330
42
100
AcDbScale
 70
     0
300
1/4" = 1'-0"
140
0.25
141
12.0
290
     0
  0
SCALE
  5
4C
102
{ACAD_REACTORS
330
42
102
}
330
42
100
AcDbScale
 70
     0
300
3/8" = 1'-0"
140
0.375
141
12.0
290
     0
  0
SCALE
  5
4D
102
{ACAD_REACTORS
330
42
102
}
330
42
100
AcDbScale
 70
     0
300
1/2" = 1'-0"
140
0.5
141
12.0
290
     0
  0
SCALE
  5
4E
102
{ACAD_REACTORS
330
42
102
}
330
42
100
AcDbScale
 70
     0
300
3/4" = 1'-0"
140
0.75
141
12.0
290
     0
  0
SCALE
  5
4F
102
{ACAD_REACTORS
330
42
102
}
330
42
100
AcDbScale
 70
     0
300
1" = 1'-0"
140
1.0
141
12.0
290
     0
  0
SCALE
  5
50
102
{ACAD_REACTORS
330
42
102
}
330
42
100
AcDbScale
 70
     0
300
1-1/2" = 1'-0"
140
1.5
141
12.0
290
     0
  0
SCALE
  5
51
102
{ACAD_REACTORS
330
42
102
}
330
42
100
AcDbScale
 70
     0
300
3" = 1'-0"
140
3.0
141
12.0
290
     0
  0
SCALE
  5
52
102
{ACAD_REACTORS
330
42
102
}
330
42
100
AcDbScale
 70
     0
300
6" = 1'-0"
140
6.0
141
12.0
290
     0
  0
SCALE
  5
53
102
{ACAD_REACTORS
330
42
102
}
330
42
100
AcDbScale
 70
     0
300
1'-0" = 1'-0"
140
12.0
141
12.0
290
     0
  0
ACDBSECTIONVIEWSTYLE
  5
69
102
{ACAD_XDICTIONARY
360
347
102
}
102
{ACAD_REACTORS
330
68
102
}
330
68
100
AcDbModelDocViewStyle
 70
     0
  3
Imperial24
290
     0
100
AcDbSectionViewStyle
 70
     0
 71
     0
 90
       78
 71
     1
340
55
 62
   256
 40
0.24
340
0
340
0
 62
   256
 40
0.24
300
I, O, Q, S, X, Z
 40
0.48
 90
        3
 40
0.18
 90
        1
 71
     2
340
5D
 90
       25
 62
   256
340
5D
 90
       50
 62
   256
 40
0.24
 40
0.0
 40
0.24
 71
     3
340
55
 62
   256
 40
0.24
 90
        1
 40
0.75
 90
        1
300
%<\AcVar ViewType \f "%tc1">% %<\AcVar ViewSectionStartId>%-%<\AcVar ViewSectionEndId>%\PSCALE %<\AcVar ViewScale \f "%sn">%
 71
     4
 62
   256
 62
   257
300
ANSI31
 40
1.0
 90
        0
290
     0
290
     0
 90
        6
 40
0.0
 40
1.570796326794896
 40
0.2617993877991494
 40
1.308996938995747
 40
-0.2617993877991494
 40
1.832595714594046
  0
TABLESTYLE
  5
65
102
{ACAD_XDICTIONARY
360
344
102
}
102
{ACAD_REACTORS
330
64
102
}
330
64
100
AcDbTableStyle
280
     0
  3
Standard
 70
     0
 71
     0
 40
0.06
 41
0.06
280
     0
281
     0
  7
Standard
140
0.18
170
     2
 62
     0
 63
     7
283
     0
 90
      512
 91
        0
  1

274
    -2
284
     1
 64
     0
275
    -2
285
     1
 65
     0
276
    -2
286
     1
 66
     0
277
    -2
287
     1
 67
     0
278
    -2
288
     1
 68
     0
279
    -2
289
     1
 69
     0
  7
Standard
140
0.25
170
     5
 62
     0
 63
     7
283
     0
 90
      512
 91
        0
  1

274
    -2
284
     1
 64
     0
275
    -2
285
     1
 65
     0
276
    -2
286
     1
 66
     0
277
    -2
287
     1
 67
     0
278
    -2
288
     1
 68
     0
279
    -2
289
     1
 69
     0
  7
Standard
140
0.18
170
     5
 62
     0
 63
     7
283
     0
 90
      512
 91
        0
  1

274
    -2
284
     1
 64
     0
275
    -2
285
     1
 65
     0
276
    -2
286
     1
 66
     0
277
    -2
287
     1
 67
     0
278
    -2
288
     1
 68
     0
279
    -2
289
     1
 69
     0
  0
VISUALSTYLE
  5
2F
102
{ACAD_REACTORS
330
29
102
}
330
29
100
AcDbVisualStyle
  2
2dWireframe
 70
     4
177
     3
291
     0
 70
    58
 90
        0
176
     1
 90
        2
176
     1
 90
        0
176
     1
 90
        0
176
     1
 40
0.6
176
     1
 40
30.0
176
     1
 62
     7
420
 16777215
176
     1
 90
        1
176
     1
 90
        4
176
     1
 62
     7
176
     1
 62
   257
176
     1
 90
        1
176
     1
 90
        1
176
     1
 40
1.0
176
     1
 90
        0
176
     1
 62
   257
176
     1
 40
1.0
176
     1
 90
        1
176
     1
 90
        6
176
     1
 90
        2
176
     1
 62
     7
176
     1
 90
        5
176
     1
 90
        0
176
     1
 90
        0
176
     1
290
     0
176
     1
 90
        1
176
     1
 40
0.0
176
     1
 90
        0
176
     1
290
     1
176
     1
290
     1
176
     1
290
     0
176
     1
290
     0
176
     1
290
     0
176
     1
290
     0
176
     1
290
     0
176
     1
290
     0
176
     1
290
     0
176
     1
 90
       50
176
     1
 40
0.0
176
     1
 40
1.0
176
     1
 90
        0
176
     1
 62
    18
420
        0
176
     1
 90
       50
176
     1
 90
        3
176
     1
 62
     5
420
      255
176
     1
290
     0
176
     1
 90
       50
176
     1
 90
       50
176
     1
 90
       50
176
     1
290
     0
176
     1
 90
       50
176
     1
 62
   256
176
     0
 40
1.0
176
     0
 90
        2
176
     1
  1
strokes_ogs.tif
176
     1
290
     0
176
     1
 40
1.0
176
     1
 40
1.0
176
     1
1001
ACAD
1000
AcDbSavedByObjectVersion
1070
     0
  0
VISUALSTYLE
  5
2E
102
{ACAD_REACTORS
330
29
102
}
330
29
100
AcDbVisualStyle
  2
Basic
 70
     7
177
     3
291
     1
 70
    58
 90
        1
176
     1
 90
        0
176
     1
 90
        1
176
     1
 90
        0
176
     1
 40
0.6
176
     1
 40
30.0
176
     1
 62
     7
420
 16777215
176
     1
 90
        0
176
     1
 90
        4
176
     1
 62
     7
176
     1
 62
   257
176
     1
 90
        1
176
     1
 90
        1
176
     1
 40
1.0
176
     1
 90
        8
176
     1
 62
     7
176
     1
 40
1.0
176
     1
 90
        1
176
     1
 90
        6
176
     1
 90
        2
176
     1
 62
     7
176
     1
 90
        5
176
     1
 90
        0
176
     1
 90
        0
176
     1
290
     0
176
     1
 90
        1
176
     1
 40
0.0
176
     1
 90
        0
176
     1
290
     0
176
     1
290
     1
176
     1
290
     1
176
     1
290
     0
176
     1
290
     0
176
     1
290
     0
176
     1
290
     0
176
     1
290
     0
176
     1
290
     0
176
     1
 90
       50
176
     1
 40
0.0
176
     1
 40
1.0
176
     1
 90
        0
176
     1
 62
    18
420
        0
176
     1
 90
       50
176
     1
 90
        3
176
     1
 62
     5
420
      255
176
     1
290
     0
176
     1
 90
       50
176
     1
 90
       50
176
     1
 90
       50
176
     1
290
     0
176
     1
 90
       50
176
     1
 62
   256
176
     0
 40
1.0
176
     0
 90
        2
176
     1
  1
strokes_ogs.tif
176
     1
290
     0
176
     1
 40
1.0
176
     1
 40
1.0
176
     1
1001
ACAD
1000
AcDbSavedByObjectVersion
1070
     0
  0
VISUALSTYLE
  5
35
102
{ACAD_REACTORS
330
29
102
}
330
29
100
AcDbVisualStyle
  2
Brighten
 70
    12
177
     3
291
     1
 70
    58
 90
        2
176
     1
 90
        2
176
     1
 90
        0
176
     1
 90
        0
176
     1
 40
0.6
176
     1
 40
30.0
176
     1
 62
     7
420
 16777215
176
     1
 90
        1
176
     1
 90
        4
176
     1
 62
     7
176
     1
 62
   257
176
     1
 90
        1
176
     1
 90
        1
176
     1
 40
1.0
176
     1
 90
        8
176
     1
 62
     7
176
     1
 40
1.0
176
     1
 90
        1
176
     1
 90
        6
176
     1
 90
        2
176
     1
 62
     7
176
     1
 90
        5
176
     1
 90
        0
176
     1
 90
        0
176
     1
290
     0
176
     1
 90
        1
176
     1
 40
50.0
176
     1
 90
        0
176
     1
290
     0
176
     1
290
     1
176
     1
290
     1
176
     1
290
     0
176
     1
290
     0
176
     1
290
     0
176
     1
290
     0
176
     1
290
     0
176
     1
290
     0
176
     1
 90
       50
176
     1
 40
0.0
176
     1
 40
1.0
176
     1
 90
        0
176
     1
 62
    18
420
        0
176
     1
 90
       50
176
     1
 90
        3
176
     1
 62
     5
420
      255
176
     1
290
     0
176
     1
 90
       50
176
     1
 90
       50
176
     1
 90
       50
176
     1
290
     0
176
     1
 90
       50
176
     1
 62
   256
176
     0
 40
1.0
176
     0
 90
        2
176
     1
  1
strokes_ogs.tif
176
     1
290
     0
176
     1
 40
1.0
176
     1
 40
1.0
176
     1
1001
ACAD
1000
AcDbSavedByObjectVersion
1070
     0
  0
VISUALSTYLE
  5
39
102
{ACAD_REACTORS
330
29
102
}
330
29
100
AcDbVisualStyle
  2
ColorChange
 70
    16
177
     3
291
     1
 70
    58
 90
        2
176
     1
 90
        2
176
     1
 90
        3
176
     1
 90
        0
176
     1
 40
0.6
176
     1
 40
30.0
176
     1
 62
     8
420
  8421504
176
     1
 90
        1
176
     1
 90
        4
176
     1
 62
     7
176
     1
 62
   257
176
     1
 90
        1
176
     1
 90
        1
176
     1
 40
1.0
176
     1
 90
        8
176
     1
 62
     8
420
  8421504
176
     1
 40
1.0
176
     1
 90
        1
176
     1
 90
        6
176
     1
 90
        2
176
     1
 62
     7
176
     1
 90
        5
176
     1
 90
        0
176
     1
 90
        0
176
     1
290
     0
176
     1
 90
        1
176
     1
 40
0.0
176
     1
 90
        0
176
     1
290
     0
176
     1
290
     1
176
     1
290
     1
176
     1
290
     0
176
     1
290
     0
176
     1
290
     0
176
     1
290
     0
176
     1
290
     0
176
     1
290
     0
176
     1
 90
       50
176
     1
 40
0.0
176
     1
 40
1.0
176
     1
 90
        0
176
     1
 62
    18
420
        0
176
     1
 90
       50
176
     1
 90
        3
176
     1
 62
     5
420
      255
176
     1
290
     0
176
     1
 90
       50
176
     1
 90
       50
176
     1
 90
       50
176
     1
290
     0
176
     1
 90
       50
176
     1
 62
   256
176
     0
 40
1.0
176
     0
 90
        2
176
     1
  1
strokes_ogs.tif
176
     1
290
     0
176
     1
 40
1.0
176
     1
 40
1.0
176
     1
1001
ACAD
1000
AcDbSavedByObjectVersion
1070
     0
  0
VISUALSTYLE
  5
32
102
{ACAD_REACTORS
330
29
102
}
330
29
100
AcDbVisualStyle
  2
Conceptual
 70
     9
177
     3
291
     0
 70
    58
 90
        3
176
     1
 90
        2
176
     1
 90
        0
176
     1
 90
        0
176
     1
 40
0.6
176
     1
 40
30.0
176
     1
 62
     7
420
 16777215
176
     1
 90
        2
176
     1
 90
        2
176
     1
 62
     7
176
     1
 62
   257
176
     1
 90
        1
176
     1
 90
        1
176
     1
 40
179.0
176
     1
 90
        8
176
     1
 62
     7
176
     1
 40
1.0
176
     1
 90
        1
176
     1
 90
        6
176
     1
 90
        2
176
     1
 62
     7
176
     1
 90
        3
176
     1
 90
        0
176
     1
 90
        0
176
     1
290
     0
176
     1
 90
        1
176
     1
 40
0.0
176
     1
 90
        0
176
     1
290
     0
176
     1
290
     1
176
     1
290
     1
176
     1
290
     0
176
     1
290
     0
176
     1
290
     0
176
     1
290
     0
176
     1
290
     0
176
     1
290
     0
176
     1
 90
       50
176
     1
 40
0.0
176
     1
 40
1.0
176
     1
 90
        0
176
     1
 62
    18
420
        0
176
     1
 90
       50
176
     1
 90
        3
176
     1
 62
     5
420
      255
176
     1
290
     0
176
     1
 90
       50
176
     1
 90
       50
176
     1
 90
       50
176
     1
290
     0
176
     1
 90
       50
176
     1
 62
   256
176
     0
 40
1.0
176
     0
 90
        2
176
     1
  1
strokes_ogs.tif
176
     1
290
     0
176
     1
 40
1.0
176
     1
 40
1.0
176
     1
1001
ACAD
1000
AcDbSavedByObjectVersion
1070
     0
  0
VISUALSTYLE
  5
34
102
{ACAD_REACTORS
330
29
102
}
330
29
100
AcDbVisualStyle
  2
Dim
 70
    11
177
     3
291
     1
 70
    58
 90
        2
176
     1
 90
        2
176
     1
 90
        0
176
     1
 90
        0
176
     1
 40
0.6
176
     1
 40
30.0
176
     1
 62
     7
420
 16777215
176
     1
 90
        1
176
     1
 90
        4
176
     1
 62
     7
176
     1
 62
   257
176
     1
 90
        1
176
     1
 90
        1
176
     1
 40
1.0
176
     1
 90
        8
176
     1
 62
     7
176
     1
 40
1.0
176
     1
 90
        1
176
     1
 90
        6
176
     1
 90
        2
176
     1
 62
     7
176
     1
 90
        5
176
     1
 90
        0
176
     1
 90
        0
176
     1
290
     0
176
     1
 90
        1
176
     1
 40
-50.0
176
     1
 90
        0
176
     1
290
     0
176
     1
290
     1
176
     1
290
     1
176
     1
290
     0
176
     1
290
     0
176
     1
290
     0
176
     1
290
     0
176
     1
290
     0
176
     1
290
     0
176
     1
 90
       50
176
     1
 40
0.0
176
     1
 40
1.0
176
     1
 90
        0
176
     1
 62
    18
420
        0
176
     1
 90
       50
176
     1
 90
        3
176
     1
 62
     5
420
      255
176
     1
290
     0
176
     1
 90
       50
176
     1
 90
       50
176
     1
 90
       50
176
     1
290
     0
176
     1
 90
       50
176
     1
 62
   256
176
     0
 40
1.0
176
     0
 90
        2
176
     1
  1
strokes_ogs.tif
176
     1
290
     0
176
     1
 40
1.0
176
     1
 40
1.0
176
     1
1001
ACAD
1000
AcDbSavedByObjectVersion
1070
     0
  0
VISUALSTYLE
  5
41
102
{ACAD_REACTORS
330
29
102
}
330
29
100
AcDbVisualStyle
  2
EdgeColorOff
 70
    22
177
     3
291
     1
 70
    58
 90
        2
176
     0
 90
        2
176
     0
 90
        0
176
     0
 90
        0
176
     0
 40
0.6
176
     0
 40
30.0
176
     0
 62
     7
420
 16777215
176
     0
 90
        1
176
     0
 90
        4
176
     0
 62
     7
176
     0
 62
   257
176
     0
 90
        1
176
     0
 90
        1
176
     0
 40
1.0
176
     0
 90
        8
176
     2
 62
     7
176
     0
 40
1.0
176
     0
 90
        1
176
     0
 90
        6
176
     0
 90
        2
176
     0
 62
     7
176
     0
 90
        5
176
     0
 90
        0
176
     0
 90
        0
176
     0
290
     0
176
     0
 90
        1
176
     0
 40
0.0
176
     0
 90
        0
176
     0
290
     0
176
     0
290
     1
176
     0
290
     1
176
     0
290
     0
176
     0
290
     0
176
     0
290
     0
176
     0
290
     0
176
     0
290
     0
176
     0
290
     0
176
     0
 90
       50
176
     0
 40
0.0
176
     0
 40
1.0
176
     0
 90
        0
176
     0
 62
    18
420
        0
176
     0
 90
       50
176
     0
 90
        3
176
     0
 62
     5
420
      255
176
     0
290
     0
176
     0
 90
       50
176
     0
 90
       50
176
     0
 90
       50
176
     0
290
     0
176
     0
 90
       50
176
     0
 62
   256
176
     0
 40
1.0
176
     0
 90
        2
176
     0
  1
strokes_ogs.tif
176
     0
290
     0
176
     0
 40
1.0
176
     0
 40
1.0
176
     0
1001
ACAD
1000
AcDbSavedByObjectVersion
1070
     0
  0
VISUALSTYLE
  5
38
102
{ACAD_REACTORS
330
29
102
}
330
29
100
AcDbVisualStyle
  2
Facepattern
 70
    15
177
     3
291
     1
 70
    58
 90
        2
176
     1
 90
        2
176
     1
 90
        0
176
     1
 90
        0
176
     1
 40
0.6
176
     1
 40
30.0
176
     1
 62
     7
420
 16777215
176
     1
 90
        1
176
     1
 90
        4
176
     1
 62
     7
176
     1
 62
   257
176
     1
 90
        1
176
     1
 90
        1
176
     1
 40
1.0
176
     1
 90
        8
176
     1
 62
     7
176
     1
 40
1.0
176
     1
 90
        1
176
     1
 90
        6
176
     1
 90
        2
176
     1
 62
     7
176
     1
 90
        5
176
     1
 90
        0
176
     1
 90
        0
176
     1
290
     0
176
     1
 90
        1
176
     1
 40
0.0
176
     1
 90
        0
176
     1
290
     0
176
     1
290
     1
176
     1
290
     1
176
     1
290
     0
176
     1
290
     0
176
     1
290
     0
176
     1
290
     0
176
     1
290
     0
176
     1
290
     0
176
     1
 90
       50
176
     1
 40
0.0
176
     1
 40
1.0
176
     1
 90
        0
176
     1
 62
    18
420
        0
176
     1
 90
       50
176
     1
 90
        3
176
     1
 62
     5
420
      255
176
     1
290
     0
176
     1
 90
       50
176
     1
 90
       50
176
     1
 90
       50
176
     1
290
     0
176
     1
 90
       50
176
     1
 62
   256
176
     0
 40
1.0
176
     0
 90
        2
176
     1
  1
strokes_ogs.tif
176
     1
290
     0
176
     1
 40
1.0
176
     1
 40
1.0
176
     1
1001
ACAD
1000
AcDbSavedByObjectVersion
1070
     0
  0
VISUALSTYLE
  5
2A
102
{ACAD_REACTORS
330
29
102
}
330
29
100
AcDbVisualStyle
  2
Flat
 70
     0
177
     3
291
     1
 70
    58
 90
        2
176
     1
 90
        1
176
     1
 90
        1
176
     1
 90
        2
176
     1
 40
0.6
176
     1
 40
30.0
176
     1
 62
     7
420
 16777215
176
     1
 90
        0
176
     1
 90
        0
176
     1
 62
     7
176
     1
 62
   257
176
     1
 90
        1
176
     1
 90
        1
176
     1
 40
1.0
176
     1
 90
        8
176
     1
 62
     7
176
     1
 40
1.0
176
     1
 90
        1
176
     1
 90
        6
176
     1
 90
        2
176
     1
 62
     7
176
     1
 90
        5
176
     1
 90
        0
176
     1
 90
        0
176
     1
290
     0
176
     1
 90
       13
176
     1
 40
0.0
176
     1
 90
        0
176
     1
290
     0
176
     1
290
     1
176
     1
290
     1
176
     1
290
     0
176
     1
290
     0
176
     1
290
     0
176
     1
290
     0
176
     1
290
     0
176
     1
290
     0
176
     1
 90
       50
176
     1
 40
0.0
176
     1
 40
1.0
176
     1
 90
        0
176
     1
 62
    18
420
        0
176
     1
 90
       50
176
     1
 90
        3
176
     1
 62
     5
420
      255
176
     1
290
     0
176
     1
 90
       50
176
     1
 90
       50
176
     1
 90
       50
176
     1
290
     0
176
     1
 90
       50
176
     1
 62
   256
176
     0
 40
1.0
176
     0
 90
        2
176
     1
  1
strokes_ogs.tif
176
     1
290
     0
176
     1
 40
1.0
176
     1
 40
1.0
176
     1
1001
ACAD
1000
AcDbSavedByObjectVersion
1070
     0
  0
VISUALSTYLE
  5
2B
102
{ACAD_REACTORS
330
29
102
}
330
29
100
AcDbVisualStyle
  2
FlatWithEdges
 70
     1
177
     3
291
     1
 70
    58
 90
        2
176
     1
 90
        1
176
     1
 90
        1
176
     1
 90
        2
176
     1
 40
0.6
176
     1
 40
30.0
176
     1
 62
     7
420
 16777215
176
     1
 90
        1
176
     1
 90
        0
176
     1
 62
     7
176
     1
 62
   257
176
     1
 90
        1
176
     1
 90
        1
176
     1
 40
1.0
176
     1
 90
        0
176
     1
 62
   257
176
     1
 40
1.0
176
     1
 90
        1
176
     1
 90
        6
176
     1
 90
        2
176
     1
 62
     7
176
     1
 90
        5
176
     1
 90
        0
176
     1
 90
        0
176
     1
290
     0
176
     1
 90
       13
176
     1
 40
0.0
176
     1
 90
        0
176
     1
290
     0
176
     1
290
     1
176
     1
290
     1
176
     1
290
     0
176
     1
290
     0
176
     1
290
     0
176
     1
290
     0
176
     1
290
     0
176
     1
290
     0
176
     1
 90
       50
176
     1
 40
0.0
176
     1
 40
1.0
176
     1
 90
        0
176
     1
 62
    18
420
        0
176
     1
 90
       50
176
     1
 90
        3
176
     1
 62
     5
420
      255
176
     1
290
     0
176
     1
 90
       50
176
     1
 90
       50
176
     1
 90
       50
176
     1
290
     0
176
     1
 90
       50
176
     1
 62
   256
176
     0
 40
1.0
176
     0
 90
        2
176
     1
  1
strokes_ogs.tif
176
     1
290
     0
176
     1
 40
1.0
176
     1
 40
1.0
176
     1
1001
ACAD
1000
AcDbSavedByObjectVersion
1070
     0
  0
VISUALSTYLE
  5
2C
102
{ACAD_REACTORS
330
29
102
}
330
29
100
AcDbVisualStyle
  2
Gouraud
 70
     2
177
     3
291
     1
 70
    58
 90
        2
176
     1
 90
        2
176
     1
 90
        1
176
     1
 90
        2
176
     1
 40
0.6
176
     1
 40
30.0
176
     1
 62
     7
420
 16777215
176
     1
 90
        0
176
     1
 90
        0
176
     1
 62
     7
176
     1
 62
   257
176
     1
 90
        1
176
     1
 90
        1
176
     1
 40
1.0
176
     1
 90
        0
176
     1
 62
     7
176
     1
 40
1.0
176
     1
 90
        1
176
     1
 90
        6
176
     1
 90
        2
176
     1
 62
     7
176
     1
 90
        5
176
     1
 90
        0
176
     1
 90
        0
176
     1
290
     0
176
     1
 90
       13
176
     1
 40
0.0
176
     1
 90
        0
176
     1
290
     0
176
     1
290
     1
176
     1
290
     1
176
     1
290
     0
176
     1
290
     0
176
     1
290
     0
176
     1
290
     0
176
     1
290
     0
176
     1
290
     0
176
     1
 90
       50
176
     1
 40
0.0
176
     1
 40
1.0
176
     1
 90
        0
176
     1
 62
    18
420
        0
176
     1
 90
       50
176
     1
 90
        3
176
     1
 62
     5
420
      255
176
     1
290
     0
176
     1
 90
       50
176
     1
 90
       50
176
     1
 90
       50
176
     1
290
     0
176
     1
 90
       50
176
     1
 62
   256
176
     0
 40
1.0
176
     0
 90
        2
176
     1
  1
strokes_ogs.tif
176
     1
290
     0
176
     1
 40
1.0
176
     1
 40
1.0
176
     1
1001
ACAD
1000
AcDbSavedByObjectVersion
1070
     0
  0
VISUALSTYLE
  5
2D
102
{ACAD_REACTORS
330
29
102
}
330
29
100
AcDbVisualStyle
  2
GouraudWithEdges
 70
     3
177
     3
291
     1
 70
    58
 90
        2
176
     1
 90
        2
176
     1
 90
        1
176
     1
 90
        2
176
     1
 40
0.6
176
     1
 40
30.0
176
     1
 62
     7
420
 16777215
176
     1
 90
        1
176
     1
 90
        0
176
     1
 62
     7
176
     1
 62
   257
176
     1
 90
        1
176
     1
 90
        1
176
     1
 40
1.0
176
     1
 90
        0
176
     1
 62
   257
176
     1
 40
1.0
176
     1
 90
        1
176
     1
 90
        6
176
     1
 90
        2
176
     1
 62
     7
176
     1
 90
        5
176
     1
 90
        0
176
     1
 90
        0
176
     1
290
     0
176
     1
 90
       13
176
     1
 40
0.0
176
     1
 90
        0
176
     1
290
     0
176
     1
290
     1
176
     1
290
     1
176
     1
290
     0
176
     1
290
     0
176
     1
290
     0
176
     1
290
     0
176
     1
290
     0
176
     1
290
     0
176
     1
 90
       50
176
     1
 40
0.0
176
     1
 40
1.0
176
     1
 90
        0
176
     1
 62
    18
420
        0
176
     1
 90
       50
176
     1
 90
        3
176
     1
 62
     5
420
      255
176
     1
290
     0
176
     1
 90
       50
176
     1
 90
       50
176
     1
 90
       50
176
     1
290
     0
176
     1
 90
       50
176
     1
 62
   256
176
     0
 40
1.0
176
     0
 90
        2
176
     1
  1
strokes_ogs.tif
176
     1
290
     0
176
     1
 40
1.0
176
     1
 40
1.0
176
     1
1001
ACAD
1000
AcDbSavedByObjectVersion
1070
     0
  0
VISUALSTYLE
  5
31
102
{ACAD_REACTORS
330
29
102
}
330
29
100
AcDbVisualStyle
  2
Hidden
 70
     6
177
     3
291
     0
 70
    58
 90
        1
176
     1
 90
        2
176
     1
 90
        2
176
     1
 90
        0
176
     1
 40
0.6
176
     1
 40
30.0
176
     1
 62
     7
420
 16777215
176
     1
 90
        2
176
     1
 90
        2
176
     1
 62
     7
176
     1
 62
   257
176
     1
 90
        2
176
     1
 90
        1
176
     1
 40
40.0
176
     1
 90
        0
176
     1
 62
   257
176
     1
 40
1.0
176
     1
 90
        1
176
     1
 90
        6
176
     1
 90
        2
176
     1
 62
     7
176
     1
 90
        3
176
     1
 90
        0
176
     1
 90
        0
176
     1
290
     0
176
     1
 90
        1
176
     1
 40
0.0
176
     1
 90
        0
176
     1
290
     0
176
     1
290
     1
176
     1
290
     1
176
     1
290
     0
176
     1
290
     0
176
     1
290
     0
176
     1
290
     0
176
     1
290
     0
176
     1
290
     0
176
     1
 90
       50
176
     1
 40
0.0
176
     1
 40
1.0
176
     1
 90
        0
176
     1
 62
    18
420
        0
176
     1
 90
       50
176
     1
 90
        3
176
     1
 62
     5
420
      255
176
     1
290
     0
176
     1
 90
       50
176
     1
 90
       50
176
     1
 90
       50
176
     1
290
     0
176
     1
 90
       50
176
     1
 62
   256
176
     0
 40
1.0
176
     0
 90
        2
176
     1
  1
strokes_ogs.tif
176
     1
290
     0
176
     1
 40
1.0
176
     1
 40
1.0
176
     1
1001
ACAD
1000
AcDbSavedByObjectVersion
1070
     0
  0
VISUALSTYLE
  5
3F
102
{ACAD_REACTORS
330
29
102
}
330
29
100
AcDbVisualStyle
  2
JitterOff
 70
    20
177
     3
291
     1
 70
    58
 90
        2
176
     0
 90
        2
176
     0
 90
        0
176
     0
 90
        0
176
     0
 40
0.6
176
     0
 40
30.0
176
     0
 62
     7
420
 16777215
176
     0
 90
        1
176
     0
 90
        4
176
     0
 62
     7
176
     0
 62
   257
176
     0
 90
        1
176
     0
 90
        1
176
     0
 40
1.0
176
     0
 90
       10
176
     2
 62
     7
176
     0
 40
1.0
176
     0
 90
        1
176
     0
 90
        6
176
     0
 90
        2
176
     0
 62
     7
176
     0
 90
        5
176
     0
 90
        0
176
     0
 90
        0
176
     0
290
     0
176
     0
 90
        1
176
     0
 40
0.0
176
     0
 90
        0
176
     0
290
     0
176
     0
290
     1
176
     0
290
     1
176
     0
290
     0
176
     0
290
     0
176
     0
290
     0
176
     0
290
     0
176
     0
290
     0
176
     0
290
     0
176
     0
 90
       50
176
     0
 40
0.0
176
     0
 40
1.0
176
     0
 90
        0
176
     0
 62
    18
420
        0
176
     0
 90
       50
176
     0
 90
        3
176
     0
 62
     5
420
      255
176
     0
290
     0
176
     0
 90
       50
176
     0
 90
       50
176
     0
 90
       50
176
     0
290
     0
176
     0
 90
       50
176
     0
 62
   256
176
     0
 40
1.0
176
     0
 90
        2
176
     0
  1
strokes_ogs.tif
176
     0
290
     0
176
     0
 40
1.0
176
     0
 40
1.0
176
     0
1001
ACAD
1000
AcDbSavedByObjectVersion
1070
     0
  0
VISUALSTYLE
  5
37
102
{ACAD_REACTORS
330
29
102
}
330
29
100
AcDbVisualStyle
  2
Linepattern
 70
    14
177
     3
291
     1
 70
    58
 90
        2
176
     1
 90
        2
176
     1
 90
        0
176
     1
 90
        0
176
     1
 40
0.6
176
     1
 40
30.0
176
     1
 62
     7
420
 16777215
176
     1
 90
        1
176
     1
 90
        4
176
     1
 62
     7
176
     1
 62
   257
176
     1
 90
        7
176
     1
 90
        7
176
     1
 40
1.0
176
     1
 90
        8
176
     1
 62
     7
176
     1
 40
1.0
176
     1
 90
        1
176
     1
 90
        6
176
     1
 90
        2
176
     1
 62
     7
176
     1
 90
        5
176
     1
 90
        0
176
     1
 90
        0
176
     1
290
     0
176
     1
 90
        1
176
     1
 40
0.0
176
     1
 90
        0
176
     1
290
     0
176
     1
290
     1
176
     1
290
     1
176
     1
290
     0
176
     1
290
     0
176
     1
290
     0
176
     1
290
     0
176
     1
290
     0
176
     1
290
     0
176
     1
 90
       50
176
     1
 40
0.0
176
     1
 40
1.0
176
     1
 90
        0
176
     1
 62
    18
420
        0
176
     1
 90
       50
176
     1
 90
        3
176
     1
 62
     5
420
      255
176
     1
290
     0
176
     1
 90
       50
176
     1
 90
       50
176
     1
 90
       50
176
     1
290
     0
176
     1
 90
       50
176
     1
 62
   256
176
     0
 40
1.0
176
     0
 90
        2
176
     1
  1
strokes_ogs.tif
176
     1
290
     0
176
     1
 40
1.0
176
     1
 40
1.0
176
     1
1001
ACAD
1000
AcDbSavedByObjectVersion
1070
     0
  0
VISUALSTYLE
  5
40
102
{ACAD_REACTORS
330
29
102
}
330
29
100
AcDbVisualStyle
  2
OverhangOff
 70
    21
177
     3
291
     1
 70
    58
 90
        2
176
     0
 90
        2
176
     0
 90
        0
176
     0
 90
        0
176
     0
 40
0.6
176
     0
 40
30.0
176
     0
 62
     7
420
 16777215
176
     0
 90
        1
176
     0
 90
        4
176
     0
 62
     7
176
     0
 62
   257
176
     0
 90
        1
176
     0
 90
        1
176
     0
 40
1.0
176
     0
 90
        9
176
     2
 62
     7
176
     0
 40
1.0
176
     0
 90
        1
176
     0
 90
        6
176
     0
 90
        2
176
     0
 62
     7
176
     0
 90
        5
176
     0
 90
        0
176
     0
 90
        0
176
     0
290
     0
176
     0
 90
        1
176
     0
 40
0.0
176
     0
 90
        0
176
     0
290
     0
176
     0
290
     1
176
     0
290
     1
176
     0
290
     0
176
     0
290
     0
176
     0
290
     0
176
     0
290
     0
176
     0
290
     0
176
     0
290
     0
176
     0
 90
       50
176
     0
 40
0.0
176
     0
 40
1.0
176
     0
 90
        0
176
     0
 62
    18
420
        0
176
     0
 90
       50
176
     0
 90
        3
176
     0
 62
     5
420
      255
176
     0
290
     0
176
     0
 90
       50
176
     0
 90
       50
176
     0
 90
       50
176
     0
290
     0
176
     0
 90
       50
176
     0
 62
   256
176
     0
 40
1.0
176
     0
 90
        2
176
     0
  1
strokes_ogs.tif
176
     0
290
     0
176
     0
 40
1.0
176
     0
 40
1.0
176
     0
1001
ACAD
1000
AcDbSavedByObjectVersion
1070
     0
  0
VISUALSTYLE
  5
33
102
{ACAD_REACTORS
330
29
102
}
330
29
100
AcDbVisualStyle
  2
Realistic
 70
     8
177
     3
291
     0
 70
    58
 90
        2
176
     1
 90
        3
176
     1
 90
        0
176
     1
 90
        2
176
     1
 40
0.6
176
     1
 40
30.0
176
     1
 62
     7
420
 16777215
176
     1
 90
        0
176
     1
 90
        0
176
     1
 62
     7
176
     1
 62
   257
176
     1
 90
        1
176
     1
 90
        1
176
     1
 40
1.0
176
     1
 90
        8
176
     1
 62
   257
176
     1
 40
1.0
176
     1
 90
        1
176
     1
 90
        6
176
     1
 90
        2
176
     1
 62
     7
176
     1
 90
        3
176
     1
 90
        0
176
     1
 90
        0
176
     1
290
     0
176
     1
 90
       13
176
     1
 40
0.0
176
     1
 90
        0
176
     1
290
     0
176
     1
290
     1
176
     1
290
     1
176
     1
290
     0
176
     1
290
     0
176
     1
290
     0
176
     1
290
     0
176
     1
290
     0
176
     1
290
     0
176
     1
 90
       50
176
     1
 40
0.0
176
     1
 40
1.0
176
     1
 90
        0
176
     1
 62
    18
420
        0
176
     1
 90
       50
176
     1
 90
        3
176
     1
 62
     5
420
      255
176
     1
290
     0
176
     1
 90
       50
176
     1
 90
       50
176
     1
 90
       50
176
     1
290
     0
176
     1
 90
       50
176
     1
 62
   256
176
     0
 40
1.0
176
     0
 90
        2
176
     1
  1
strokes_ogs.tif
176
     1
290
     0
176
     1
 40
1.0
176
     1
 40
1.0
176
     1
1001
ACAD
1000
AcDbSavedByObjectVersion
1070
     0
  0
VISUALSTYLE
  5
3E
102
{ACAD_REACTORS
330
29
102
}
330
29
100
AcDbVisualStyle
  2
Shaded
 70
    27
177
     3
291
     0
 70
    58
 90
        2
176
     1
 90
        2
176
     1
 90
        1
176
     1
 90
        2
176
     1
 40
0.6
176
     1
 40
30.0
176
     1
 62
     7
420
 16777215
176
     1
 90
        0
176
     1
 90
        4
176
     1
 62
     7
176
     1
 62
   257
176
     1
 90
        1
176
     1
 90
        1
176
     1
 40
1.0
176
     1
 90
        8
176
     1
 62
   257
176
     1
 40
1.0
176
     1
 90
        1
176
     1
 90
        6
176
     1
 90
        2
176
     1
 62
     8
420
  7895160
176
     1
 90
        3
176
     1
 90
        0
176
     1
 90
        0
176
     1
290
     0
176
     1
 90
        5
176
     1
 40
0.0
176
     1
 90
        0
176
     1
290
     0
176
     1
290
     1
176
     1
290
     1
176
     1
290
     0
176
     1
290
     0
176
     1
290
     0
176
     1
290
     0
176
     1
290
     0
176
     1
290
     0
176
     1
 90
       50
176
     1
 40
0.0
176
     1
 40
1.0
176
     1
 90
        0
176
     1
 62
    18
420
        0
176
     1
 90
       50
176
     1
 90
        3
176
     1
 62
     5
420
      255
176
     1
290
     0
176
     1
 90
       50
176
     1
 90
       50
176
     1
 90
       50
176
     1
290
     0
176
     1
 90
       50
176
     1
 62
   256
176
     0
 40
1.0
176
     0
 90
        2
176
     1
  1
strokes_ogs.tif
176
     1
290
     0
176
     1
 40
1.0
176
     1
 40
1.0
176
     1
1001
ACAD
1000
AcDbSavedByObjectVersion
1070
     0
  0
VISUALSTYLE
  5
3D
102
{ACAD_REACTORS
330
29
102
}
330
29
100
AcDbVisualStyle
  2
Shaded with edges
 70
    26
177
     3
291
     0
 70
    58
 90
        2
176
     1
 90
        2
176
     1
 90
        1
176
     1
 90
        2
176
     1
 40
0.6
176
     1
 40
30.0
176
     1
 62
     7
420
 16777215
176
     1
 90
        1
176
     1
 90
        2
176
     1
 62
     7
176
     1
 62
   257
176
     1
 90
        2
176
     1
 90
        1
176
     1
 40
1.0
176
     1
 90
        8
176
     1
 62
   257
176
     1
 40
1.0
176
     1
 90
        1
176
     1
 90
        6
176
     1
 90
        2
176
     1
 62
     7
176
     1
 90
        3
176
     1
 90
        0
176
     1
 90
        0
176
     1
290
     0
176
     1
 90
        5
176
     1
 40
0.0
176
     1
 90
        0
176
     1
290
     0
176
     1
290
     1
176
     1
290
     1
176
     1
290
     0
176
     1
290
     0
176
     1
290
     0
176
     1
290
     0
176
     1
290
     0
176
     1
290
     0
176
     1
 90
       50
176
     1
 40
0.0
176
     1
 40
1.0
176
     1
 90
        0
176
     1
 62
    18
420
        0
176
     1
 90
       50
176
     1
 90
        3
176
     1
 62
     5
420
      255
176
     1
290
     0
176
     1
 90
       50
176
     1
 90
       50
176
     1
 90
       50
176
     1
290
     0
176
     1
 90
       50
176
     1
 62
   256
176
     0
 40
1.0
176
     0
 90
        2
176
     1
  1
strokes_ogs.tif
176
     1
290
     0
176
     1
 40
1.0
176
     1
 40
1.0
176
     1
1001
ACAD
1000
AcDbSavedByObjectVersion
1070
     0
  0
VISUALSTYLE
  5
3A
102
{ACAD_REACTORS
330
29
102
}
330
29
100
AcDbVisualStyle
  2
Shades of Gray
 70
    23
177
     3
291
     0
 70
    58
 90
        2
176
     1
 90
        2
176
     1
 90
        3
176
     1
 90
        0
176
     1
 40
0.6
176
     1
 40
30.0
176
     1
 62
     7
420
 16777215
176
     1
 90
        2
176
     1
 90
        2
176
     1
 62
     7
176
     1
 62
     7
176
     1
 90
        1
176
     1
 90
        1
176
     1
 40
40.0
176
     1
 90
        8
176
     1
 62
     7
176
     1
 40
1.0
176
     1
 90
        1
176
     1
 90
        6
176
     1
 90
        2
176
     1
 62
     7
176
     1
 90
        3
176
     1
 90
        0
176
     1
 90
        0
176
     1
290
     0
176
     1
 90
        1
176
     1
 40
0.0
176
     1
 90
        0
176
     1
290
     0
176
     1
290
     1
176
     1
290
     1
176
     1
290
     0
176
     1
290
     0
176
     1
290
     0
176
     1
290
     0
176
     1
290
     0
176
     1
290
     0
176
     1
 90
       50
176
     1
 40
0.0
176
     1
 40
1.0
176
     1
 90
        0
176
     1
 62
    18
420
        0
176
     1
 90
       50
176
     1
 90
        3
176
     1
 62
     5
420
      255
176
     1
290
     0
176
     1
 90
       50
176
     1
 90
       50
176
     1
 90
       50
176
     1
290
     0
176
     1
 90
       50
176
     1
 62
   256
176
     0
 40
1.0
176
     0
 90
        2
176
     1
  1
strokes_ogs.tif
176
     1
290
     0
176
     1
 40
1.0
176
     1
 40
1.0
176
     1
1001
ACAD
1000
AcDbSavedByObjectVersion
1070
     0
  0
VISUALSTYLE
  5
3B
102
{ACAD_REACTORS
330
29
102
}
330
29
100
AcDbVisualStyle
  2
Sketchy
 70
    24
177
     3
291
     0
 70
    58
 90
        1
176
     1
 90
        2
176
     1
 90
        2
176
     1
 90
        0
176
     1
 40
0.6
176
     1
 40
30.0
176
     1
 62
     7
420
 16777215
176
     1
 90
        2
176
     1
 90
        2
176
     1
 62
     7
176
     1
 62
     7
176
     1
 90
        1
176
     1
 90
        1
176
     1
 40
40.0
176
     1
 90
       11
176
     1
 62
     7
176
     1
 40
1.0
176
     1
 90
        1
176
     1
 90
        6
176
     1
 90
        2
176
     1
 62
     7
176
     1
 90
        6
176
     1
 90
        0
176
     1
 90
        0
176
     1
290
     0
176
     1
 90
        1
176
     1
 40
0.0
176
     1
 90
        0
176
     1
290
     0
176
     1
290
     1
176
     1
290
     1
176
     1
290
     0
176
     1
290
     0
176
     1
290
     0
176
     1
290
     0
176
     1
290
     0
176
     1
290
     0
176
     1
 90
       50
176
     1
 40
0.0
176
     1
 40
1.0
176
     1
 90
        0
176
     1
 62
    18
420
        0
176
     1
 90
       50
176
     1
 90
        3
176
     1
 62
     5
420
      255
176
     1
290
     0
176
     1
 90
       50
176
     1
 90
       50
176
     1
 90
       50
176
     1
290
     0
176
     1
 90
       50
176
     1
 62
   256
176
     0
 40
1.0
176
     0
 90
        2
176
     1
  1
strokes_ogs.tif
176
     1
290
     0
176
     1
 40
1.0
176
     1
 40
1.0
176
     1
1001
ACAD
1000
AcDbSavedByObjectVersion
1070
     0
  0
VISUALSTYLE
  5
36
102
{ACAD_REACTORS
330
29
102
}
330
29
100
AcDbVisualStyle
  2
Thicken
 70
    13
177
     3
291
     1
 70
    58
 90
        2
176
     1
 90
        2
176
     1
 90
        0
176
     1
 90
        0
176
     1
 40
0.6
176
     1
 40
30.0
176
     1
 62
     7
420
 16777215
176
     1
 90
        1
176
     1
 90
        4
176
     1
 62
     7
176
     1
 62
   257
176
     1
 90
        1
176
     1
 90
        1
176
     1
 40
1.0
176
     1
 90
       12
176
     1
 62
     7
176
     1
 40
1.0
176
     1
 90
        1
176
     1
 90
        6
176
     1
 90
        2
176
     1
 62
     7
176
     1
 90
        5
176
     1
 90
        0
176
     1
 90
        0
176
     1
290
     0
176
     1
 90
        1
176
     1
 40
0.0
176
     1
 90
        0
176
     1
290
     0
176
     1
290
     1
176
     1
290
     1
176
     1
290
     0
176
     1
290
     0
176
     1
290
     0
176
     1
290
     0
176
     1
290
     0
176
     1
290
     0
176
     1
 90
       50
176
     1
 40
0.0
176
     1
 40
1.0
176
     1
 90
        0
176
     1
 62
    18
420
        0
176
     1
 90
       50
176
     1
 90
        3
176
     1
 62
     5
420
      255
176
     1
290
     0
176
     1
 90
       50
176
     1
 90
       50
176
     1
 90
       50
176
     1
290
     0
176
     1
 90
       50
176
     1
 62
   256
176
     0
 40
1.0
176
     0
 90
        2
176
     1
  1
strokes_ogs.tif
176
     1
290
     0
176
     1
 40
1.0
176
     1
 40
1.0
176
     1
1001
ACAD
1000
AcDbSavedByObjectVersion
1070
     0
  0
VISUALSTYLE
  5
30
102
{ACAD_REACTORS
330
29
102
}
330
29
100
AcDbVisualStyle
  2
Wireframe
 70
     5
177
     3
291
     0
 70
    58
 90
        0
176
     1
 90
        2
176
     1
 90
        0
176
     1
 90
        0
176
     1
 40
0.6
176
     1
 40
30.0
176
     1
 62
     7
420
 16777215
176
     1
 90
        1
176
     1
 90
        4
176
     1
 62
     7
176
     1
 62
   257
176
     1
 90
        1
176
     1
 90
        1
176
     1
 40
1.0
176
     1
 90
        0
176
     1
 62
   257
176
     1
 40
1.0
176
     1
 90
        1
176
     1
 90
        6
176
     1
 90
        2
176
     1
 62
     7
176
     1
 90
        3
176
     1
 90
        0
176
     1
 90
        0
176
     1
290
     0
176
     1
 90
        1
176
     1
 40
0.0
176
     1
 90
        0
176
     1
290
     0
176
     1
290
     1
176
     1
290
     1
176
     1
290
     0
176
     1
290
     0
176
     1
290
     0
176
     1
290
     0
176
     1
290
     0
176
     1
290
     0
176
     1
 90
       50
176
     1
 40
0.0
176
     1
 40
1.0
176
     1
 90
        0
176
     1
 62
    18
420
        0
176
     1
 90
       50
176
     1
 90
        3
176
     1
 62
     5
420
      255
176
     1
290
     0
176
     1
 90
       50
176
     1
 90
       50
176
     1
 90
       50
176
     1
290
     0
176
     1
 90
       50
176
     1
 62
   256
176
     0
 40
1.0
176
     0
 90
        2
176
     1
  1
strokes_ogs.tif
176
     1
290
     0
176
     1
 40
1.0
176
     1
 40
1.0
176
     1
1001
ACAD
1000
AcDbSavedByObjectVersion
1070
     0
  0
VISUALSTYLE
  5
3C
102
{ACAD_REACTORS
330
29
102
}
330
29
100
AcDbVisualStyle
  2
X-Ray
 70
    25
177
     3
291
     0
 70
    58
 90
        2
176
     1
 90
        2
176
     1
 90
        1
176
     1
 90
        1
176
     1
 40
0.5
176
     1
 40
30.0
176
     1
 62
     7
420
 16777215
176
     1
 90
        1
176
     1
 90
        0
176
     1
 62
     7
176
     1
 62
   257
176
     1
 90
        1
176
     1
 90
        1
176
     1
 40
1.0
176
     1
 90
        8
176
     1
 62
     7
176
     1
 40
1.0
176
     1
 90
        1
176
     1
 90
        6
176
     1
 90
        2
176
     1
 62
     7
176
     1
 90
        3
176
     1
 90
        0
176
     1
 90
        0
176
     1
290
     0
176
     1
 90
       13
176
     1
 40
0.0
176
     1
 90
        0
176
     1
290
     0
176
     1
290
     1
176
     1
290
     1
176
     1
290
     0
176
     1
290
     0
176
     1
290
     0
176
     1
290
     0
176
     1
290
     0
176
     1
290
     0
176
     1
 90
       50
176
     1
 40
0.0
176
     1
 40
1.0
176
     1
 90
        0
176
     1
 62
    18
420
        0
176
     1
 90
       50
176
     1
 90
        3
176
     1
 62
     5
420
      255
176
     1
290
     0
176
     1
 90
       50
176
     1
 90
       50
176
     1
 90
       50
176
     1
290
     0
176
     1
 90
       50
176
     1
 62
   256
176
     0
 40
1.0
176
     0
 90
        2
176
     1
  1
strokes_ogs.tif
176
     1
290
     0
176
     1
 40
1.0
176
     1
 40
1.0
176
     1
1001
ACAD
1000
AcDbSavedByObjectVersion
1070
     0
  0
DICTIONARYVAR
  5
343
102
{ACAD_REACTORS
330
33E
102
}
330
33E
100
DictionaryVariables
280
     0
  1
1:1
  0
DICTIONARYVAR
  5
340
102
{ACAD_REACTORS
330
33E
102
}
330
33E
100
DictionaryVariables
280
     0
  1
STANDARD
  0
DICTIONARYVAR
  5
33F
102
{ACAD_REACTORS
330
33E
102
}
330
33E
100
DictionaryVariables
280
     0
  1
STANDARD
  0
DICTIONARYVAR
  5
341
102
{ACAD_REACTORS
330
33E
102
}
330
33E
100
DictionaryVariables
280
     0
  1
Imperial24
  0
DICTIONARYVAR
  5
342
102
{ACAD_REACTORS
330
33E
102
}
330
33E
100
DictionaryVariables
280
     0
  1
Imperial24
  0
DICTIONARY
  5
349
330
6B
100
AcDbDictionary
280
     1
281
     1
  3
ACAD_XREC_ROUNDTRIP
360
34A
  0
DICTIONARY
  5
1A
330
19
100
AcDbDictionary
280
     1
281
     1
  3
BUMPTILE
360
1C
  3
DIFFUSETILE
360
1B
  3
OPACITYTILE
360
1F
  3
REFLECTIONTILE
360
1E
  3
REFRACTIONTILE
360
20
  3
SPECULARTILE
360
1D
  0
DICTIONARY
  5
12
330
11
100
AcDbDictionary
280
     1
281
     1
  3
BUMPTILE
360
14
  3
DIFFUSETILE
360
13
  3
OPACITYTILE
360
17
  3
REFLECTIONTILE
360
16
  3
REFRACTIONTILE
360
18
  3
SPECULARTILE
360
15
  0
DICTIONARY
  5
22
330
21
100
AcDbDictionary
280
     1
281
     1
  3
BUMPTILE
360
24
  3
DIFFUSETILE
360
23
  3
OPACITYTILE
360
27
  3
REFLECTIONTILE
360
26
  3
REFRACTIONTILE
360
28
  3
SPECULARTILE
360
25
  0
DICTIONARY
  5
347
330
69
100
AcDbDictionary
280
     1
281
     1
  3
ACAD_XREC_ROUNDTRIP
360
348
  0
DICTIONARY
  5
344
330
65
100
AcDbDictionary
280
     1
281
     1
  3
ACAD_ROUNDTRIP_2008_TABLESTYLE_CELLSTYLEMAP
360
345
  0
XRECORD
  5
34A
102
{ACAD_REACTORS
330
349
102
}
330
349
100
AcDbXrecord
280
     1
102
DISPLAYNAME
  1
Imperial24
102
FLAGS
 90
        0
  0
XRECORD
  5
1C
102
{ACAD_REACTORS
330
1A
102
}
330
1A
100
AcDbXrecord
280
     1
270
     1
271
     1
  0
XRECORD
  5
1B
102
{ACAD_REACTORS
330
1A
102
}
330
1A
100
AcDbXrecord
280
     1
270
     1
271
     1
  0
XRECORD
  5
1F
102
{ACAD_REACTORS
330
1A
102
}
330
1A
100
AcDbXrecord
280
     1
270
     1
271
     1
  0
XRECORD
  5
1E
102
{ACAD_REACTORS
330
1A
102
}
330
1A
100
AcDbXrecord
280
     1
270
     1
271
     1
  0
XRECORD
  5
20
102
{ACAD_REACTORS
330
1A
102
}
330
1A
100
AcDbXrecord
280
     1
270
     1
271
     1
  0
XRECORD
  5
1D
102
{ACAD_REACTORS
330
1A
102
}
330
1A
100
AcDbXrecord
280
     1
270
     1
271
     1
  0
XRECORD
  5
14
102
{ACAD_REACTORS
330
12
102
}
330
12
100
AcDbXrecord
280
     1
270
     1
271
     1
  0
XRECORD
  5
13
102
{ACAD_REACTORS
330
12
102
}
330
12
100
AcDbXrecord
280
     1
270
     1
271
     1
  0
XRECORD
  5
17
102
{ACAD_REACTORS
330
12
102
}
330
12
100
AcDbXrecord
280
     1
270
     1
271
     1
  0
XRECORD
  5
16
102
{ACAD_REACTORS
330
12
102
}
330
12
100
AcDbXrecord
280
     1
270
     1
271
     1
  0
XRECORD
  5
18
102
{ACAD_REACTORS
330
12
102
}
330
12
100
AcDbXrecord
280
     1
270
     1
271
     1
  0
XRECORD
  5
15
102
{ACAD_REACTORS
330
12
102
}
330
12
100
AcDbXrecord
280
     1
270
     1
271
     1
  0
XRECORD
  5
24
102
{ACAD_REACTORS
330
22
102
}
330
22
100
AcDbXrecord
280
     1
270
     1
271
     1
  0
XRECORD
  5
23
102
{ACAD_REACTORS
330
22
102
}
330
22
100
AcDbXrecord
280
     1
270
     1
271
     1
  0
XRECORD
  5
27
102
{ACAD_REACTORS
330
22
102
}
330
22
100
AcDbXrecord
280
     1
270
     1
271
     1
  0
XRECORD
  5
26
102
{ACAD_REACTORS
330
22
102
}
330
22
100
AcDbXrecord
280
     1
270
     1
271
     1
  0
XRECORD
  5
28
102
{ACAD_REACTORS
330
22
102
}
330
22
100
AcDbXrecord
280
     1
270
     1
271
     1
  0
XRECORD
  5
25
102
{ACAD_REACTORS
330
22
102
}
330
22
100
AcDbXrecord
280
     1
270
     1
271
     1
  0
XRECORD
  5
348
102
{ACAD_REACTORS
330
347
102
}
330
347
100
AcDbXrecord
280
     1
102
DISPLAYNAME
  1
Imperial24
102
FLAGS
 90
        0
  0
CELLSTYLEMAP
  5
345
102
{ACAD_REACTORS
330
344
102
}
330
344
100
AcDbCellStyleMap
 90
        3
300
CELLSTYLE
  1
TABLEFORMAT_BEGIN
 90
        5
170
     1
 91
        0
 92
    32768
 62
   257
 93
        1
300
CONTENTFORMAT
  1
CONTENTFORMAT_BEGIN
 90
        0
 91
        0
 92
      512
 93
        0
300

 40
0.0
140
1.0
 94
        5
 62
     0
340
55
144
0.25
309
CONTENTFORMAT_END
171
     0
 94
        0
309
TABLEFORMAT_END
  1
CELLSTYLE_BEGIN
 90
        1
 91
        1
300
_TITLE
309
CELLSTYLE_END
300
CELLSTYLE
  1
TABLEFORMAT_BEGIN
 90
        5
170
     1
 91
        0
 92
        0
 62
   257
 93
        1
300
CONTENTFORMAT
  1
CONTENTFORMAT_BEGIN
 90
        0
 91
        0
 92
      512
 93
        0
300

 40
0.0
140
1.0
 94
        5
 62
     0
340
55
144
0.18
309
CONTENTFORMAT_END
171
     0
 94
        0
309
TABLEFORMAT_END
  1
CELLSTYLE_BEGIN
 90
        2
 91
        1
300
_HEADER
309
CELLSTYLE_END
300
CELLSTYLE
  1
TABLEFORMAT_BEGIN
 90
        5
170
     1
 91
        0
 92
        0
 62
   257
 93
        1
300
CONTENTFORMAT
  1
CONTENTFORMAT_BEGIN
 90
        0
 91
        0
 92
      512
 93
        0
300

 40
0.0
140
1.0
 94
        2
 62
     0
340
55
144
0.18
309
CONTENTFORMAT_END
171
     0
 94
        0
309
TABLEFORMAT_END
  1
CELLSTYLE_BEGIN
 90
        3
 91
        2
300
_DATA
309
CELLSTYLE_END
  0
ENDSEC
  0
EOF
